G04 #@! TF.GenerationSoftware,KiCad,Pcbnew,(5.1.2-1)-1*
G04 #@! TF.CreationDate,2021-12-02T20:33:12-05:00*
G04 #@! TF.ProjectId,lil_duder,6c696c5f-6475-4646-9572-2e6b69636164,rev?*
G04 #@! TF.SameCoordinates,Original*
G04 #@! TF.FileFunction,Copper,L1,Top*
G04 #@! TF.FilePolarity,Positive*
%FSLAX46Y46*%
G04 Gerber Fmt 4.6, Leading zero omitted, Abs format (unit mm)*
G04 Created by KiCad (PCBNEW (5.1.2-1)-1) date 2021-12-02 20:33:12*
%MOMM*%
%LPD*%
G04 APERTURE LIST*
%ADD10C,1.998980*%
%ADD11C,2.499360*%
%ADD12C,1.600000*%
%ADD13C,2.400000*%
%ADD14C,0.100000*%
%ADD15R,2.400000X2.400000*%
%ADD16C,1.600000*%
%ADD17O,1.600000X1.600000*%
%ADD18R,1.600000X1.600000*%
%ADD19C,1.450000*%
%ADD20C,1.905000*%
%ADD21C,1.905000*%
%ADD22C,1.500000*%
%ADD23C,0.812800*%
G04 APERTURE END LIST*
D10*
X49022000Y-37846000D03*
X40640000Y-36068000D03*
D11*
X40640000Y-22860000D03*
D12*
X55680368Y-21561669D03*
X50981905Y-19851568D03*
D13*
X60808551Y-35338750D03*
X61315778Y-38215373D03*
D14*
G36*
X62705925Y-39188764D02*
G01*
X60342387Y-39605520D01*
X59925631Y-37241982D01*
X62289169Y-36825226D01*
X62705925Y-39188764D01*
X62705925Y-39188764D01*
G37*
D12*
X44084793Y-79238857D03*
X44953034Y-74314818D03*
X61850400Y-73254600D03*
X60982159Y-68330561D03*
X58534787Y-56604202D03*
X57666546Y-61528241D03*
D13*
X58232732Y-76618615D03*
D14*
G36*
X59622879Y-75645224D02*
G01*
X59206123Y-78008762D01*
X56842585Y-77592006D01*
X57259341Y-75228468D01*
X59622879Y-75645224D01*
X59622879Y-75645224D01*
G37*
D13*
X55356108Y-76111389D03*
X46092988Y-70448361D03*
D14*
G36*
X45119597Y-71838508D02*
G01*
X44702841Y-69474970D01*
X47066379Y-69058214D01*
X47483135Y-71421752D01*
X45119597Y-71838508D01*
X45119597Y-71838508D01*
G37*
D13*
X48969611Y-69941134D03*
X33184782Y-72033997D03*
X35929625Y-73033038D03*
D14*
G36*
X37467680Y-72315831D02*
G01*
X36646832Y-74571093D01*
X34391570Y-73750245D01*
X35212418Y-71494983D01*
X37467680Y-72315831D01*
X37467680Y-72315831D01*
G37*
D15*
X27821373Y-67553827D03*
D13*
X30742373Y-67553827D03*
D12*
X19750000Y-39900000D03*
X19750000Y-44900000D03*
X15900000Y-46100000D03*
X19113938Y-49930222D03*
D15*
X30822000Y-18387200D03*
D13*
X33743000Y-18387200D03*
X23582405Y-36646267D03*
X25042905Y-34116607D03*
D14*
G36*
X24603675Y-32477377D02*
G01*
X26682135Y-33677377D01*
X25482135Y-35755837D01*
X23403675Y-34555837D01*
X24603675Y-32477377D01*
X24603675Y-32477377D01*
G37*
D11*
X61941539Y-42185581D03*
X58724800Y-26670000D03*
X21150000Y-53400000D03*
X25200000Y-53500000D03*
X60873361Y-64936885D03*
X48061939Y-61002429D03*
X25323800Y-57886600D03*
X36819344Y-78197529D03*
X34370323Y-81116158D03*
D14*
G36*
X34524355Y-82876747D02*
G01*
X32609734Y-81270190D01*
X34216291Y-79355569D01*
X36130912Y-80962126D01*
X34524355Y-82876747D01*
X34524355Y-82876747D01*
G37*
D11*
X32374821Y-63581036D03*
X38088019Y-68440246D03*
D14*
G36*
X39848608Y-68286214D02*
G01*
X38242051Y-70200835D01*
X36327430Y-68594278D01*
X37933987Y-66679657D01*
X39848608Y-68286214D01*
X39848608Y-68286214D01*
G37*
D11*
X35169390Y-65991225D03*
X27050000Y-19700000D03*
X19400000Y-36650000D03*
D12*
X58530057Y-41665280D03*
D16*
X58530057Y-41665280D02*
X58530057Y-41665280D01*
D12*
X57206858Y-49169515D03*
X54775753Y-41937489D03*
X56098952Y-34433254D03*
D16*
X56098952Y-34433254D02*
X56098952Y-34433254D01*
D12*
X47962279Y-18060800D03*
X40458044Y-16737601D03*
D16*
X40458044Y-16737601D02*
X40458044Y-16737601D01*
D12*
X54420391Y-44240771D03*
D16*
X54420391Y-44240771D02*
X54420391Y-44240771D01*
D12*
X53097192Y-51745006D03*
X48098592Y-74615610D03*
X46775393Y-82119845D03*
D16*
X46775393Y-82119845D02*
X46775393Y-82119845D01*
D12*
X57541929Y-81814800D03*
X50037694Y-80491601D03*
D16*
X50037694Y-80491601D02*
X50037694Y-80491601D01*
D17*
X57385976Y-71891192D03*
D12*
X57385976Y-64271192D03*
X49991355Y-63881204D03*
X42830897Y-66487397D03*
D16*
X42830897Y-66487397D02*
X42830897Y-66487397D01*
D12*
X19778102Y-64825069D03*
X24676144Y-70662328D03*
D16*
X24676144Y-70662328D02*
X24676144Y-70662328D01*
D12*
X29635372Y-60036694D03*
D16*
X29635372Y-60036694D02*
X29635372Y-60036694D01*
D12*
X23798113Y-64934736D03*
X25598042Y-25712741D03*
D16*
X25598042Y-25712741D02*
X25598042Y-25712741D01*
D12*
X20700000Y-31550000D03*
X19301958Y-28287259D03*
D16*
X19301958Y-28287259D02*
X19301958Y-28287259D01*
D12*
X24200000Y-22450000D03*
D18*
X29150000Y-23200000D03*
D17*
X36770000Y-56220000D03*
X29150000Y-25740000D03*
X36770000Y-53680000D03*
X29150000Y-28280000D03*
X36770000Y-51140000D03*
X29150000Y-30820000D03*
X36770000Y-48600000D03*
X29150000Y-33360000D03*
X36770000Y-46060000D03*
X29150000Y-35900000D03*
X36770000Y-43520000D03*
X29150000Y-38440000D03*
X36770000Y-40980000D03*
X29150000Y-40980000D03*
X36770000Y-38440000D03*
X29150000Y-43520000D03*
X36770000Y-35900000D03*
X29150000Y-46060000D03*
X36770000Y-33360000D03*
X29150000Y-48600000D03*
X36770000Y-30820000D03*
X29150000Y-51140000D03*
X36770000Y-28280000D03*
X29150000Y-53680000D03*
X36770000Y-25740000D03*
X29150000Y-56220000D03*
X36770000Y-23200000D03*
D12*
X45936624Y-29561565D03*
D16*
X45936624Y-29561565D02*
X45936624Y-29561565D01*
D12*
X55703275Y-25007300D03*
D16*
X55703275Y-25007300D02*
X55703275Y-25007300D01*
D12*
X46805355Y-27174745D03*
D16*
X46805355Y-27174745D02*
X46805355Y-27174745D01*
D12*
X54834544Y-27394119D03*
D16*
X54834544Y-27394119D02*
X54834544Y-27394119D01*
D12*
X47674087Y-24787926D03*
D16*
X47674087Y-24787926D02*
X47674087Y-24787926D01*
D12*
X53965813Y-29780939D03*
D16*
X53965813Y-29780939D02*
X53965813Y-29780939D01*
D12*
X48542818Y-22401107D03*
D16*
X48542818Y-22401107D02*
X48542818Y-22401107D01*
D12*
X53097082Y-32167758D03*
D14*
G36*
X54122452Y-31689620D02*
G01*
X53575220Y-33193128D01*
X52071712Y-32645896D01*
X52618944Y-31142388D01*
X54122452Y-31689620D01*
X54122452Y-31689620D01*
G37*
D18*
X48600000Y-47650000D03*
D17*
X40980000Y-55270000D03*
X46060000Y-47650000D03*
X43520000Y-55270000D03*
X43520000Y-47650000D03*
X46060000Y-55270000D03*
X40980000Y-47650000D03*
X48600000Y-55270000D03*
D19*
X54798587Y-57925492D03*
D14*
G36*
X53958706Y-58513583D02*
G01*
X54210496Y-57085611D01*
X55638468Y-57337401D01*
X55386678Y-58765373D01*
X53958706Y-58513583D01*
X53958706Y-58513583D01*
G37*
D19*
X54357521Y-60426904D03*
X53916454Y-62928315D03*
X53475388Y-65429727D03*
X53034322Y-67931139D03*
X52593255Y-70432550D03*
X52152189Y-72933962D03*
X51711122Y-75435374D03*
X51270056Y-77936786D03*
D20*
X31868813Y-76863223D03*
D14*
G36*
X33241258Y-76709434D02*
G01*
X31955683Y-78241523D01*
X30496368Y-77017012D01*
X31781943Y-75484923D01*
X33241258Y-76709434D01*
X33241258Y-76709434D01*
G37*
D20*
X29923060Y-75230542D03*
D21*
X29892528Y-75266929D02*
X29953592Y-75194155D01*
D20*
X27977307Y-73597862D03*
D21*
X27946775Y-73634249D02*
X28007839Y-73561475D01*
D22*
X24150000Y-42200000D03*
X24150000Y-47080000D03*
D23*
X49022000Y-37846000D02*
X44958000Y-36576000D01*
X44958000Y-36576000D02*
X40640000Y-36068000D01*
M02*
