G04 #@! TF.GenerationSoftware,KiCad,Pcbnew,(5.1.2-1)-1*
G04 #@! TF.CreationDate,2021-12-02T20:33:12-05:00*
G04 #@! TF.ProjectId,lil_duder,6c696c5f-6475-4646-9572-2e6b69636164,rev?*
G04 #@! TF.SameCoordinates,Original*
G04 #@! TF.FileFunction,Copper,L2,Bot*
G04 #@! TF.FilePolarity,Positive*
%FSLAX46Y46*%
G04 Gerber Fmt 4.6, Leading zero omitted, Abs format (unit mm)*
G04 Created by KiCad (PCBNEW (5.1.2-1)-1) date 2021-12-02 20:33:12*
%MOMM*%
%LPD*%
G04 APERTURE LIST*
%ADD10C,1.998980*%
%ADD11C,2.499360*%
%ADD12C,1.600000*%
%ADD13C,2.400000*%
%ADD14C,0.100000*%
%ADD15R,2.400000X2.400000*%
%ADD16C,1.600000*%
%ADD17O,1.600000X1.600000*%
%ADD18R,1.600000X1.600000*%
%ADD19C,1.450000*%
%ADD20C,1.905000*%
%ADD21C,1.905000*%
%ADD22C,1.500000*%
%ADD23C,0.812800*%
G04 APERTURE END LIST*
D10*
X49022000Y-37846000D03*
X40640000Y-36068000D03*
D11*
X40640000Y-22860000D03*
D12*
X55680368Y-21561669D03*
X50981905Y-19851568D03*
D13*
X60808551Y-35338750D03*
X61315778Y-38215373D03*
D14*
G36*
X62705925Y-39188764D02*
G01*
X60342387Y-39605520D01*
X59925631Y-37241982D01*
X62289169Y-36825226D01*
X62705925Y-39188764D01*
X62705925Y-39188764D01*
G37*
D12*
X44084793Y-79238857D03*
X44953034Y-74314818D03*
X61850400Y-73254600D03*
X60982159Y-68330561D03*
X58534787Y-56604202D03*
X57666546Y-61528241D03*
D13*
X58232732Y-76618615D03*
D14*
G36*
X59622879Y-75645224D02*
G01*
X59206123Y-78008762D01*
X56842585Y-77592006D01*
X57259341Y-75228468D01*
X59622879Y-75645224D01*
X59622879Y-75645224D01*
G37*
D13*
X55356108Y-76111389D03*
X46092988Y-70448361D03*
D14*
G36*
X45119597Y-71838508D02*
G01*
X44702841Y-69474970D01*
X47066379Y-69058214D01*
X47483135Y-71421752D01*
X45119597Y-71838508D01*
X45119597Y-71838508D01*
G37*
D13*
X48969611Y-69941134D03*
X33184782Y-72033997D03*
X35929625Y-73033038D03*
D14*
G36*
X37467680Y-72315831D02*
G01*
X36646832Y-74571093D01*
X34391570Y-73750245D01*
X35212418Y-71494983D01*
X37467680Y-72315831D01*
X37467680Y-72315831D01*
G37*
D15*
X27821373Y-67553827D03*
D13*
X30742373Y-67553827D03*
D12*
X19750000Y-39900000D03*
X19750000Y-44900000D03*
X15900000Y-46100000D03*
X19113938Y-49930222D03*
D15*
X30822000Y-18387200D03*
D13*
X33743000Y-18387200D03*
X23582405Y-36646267D03*
X25042905Y-34116607D03*
D14*
G36*
X24603675Y-32477377D02*
G01*
X26682135Y-33677377D01*
X25482135Y-35755837D01*
X23403675Y-34555837D01*
X24603675Y-32477377D01*
X24603675Y-32477377D01*
G37*
D11*
X61941539Y-42185581D03*
X58724800Y-26670000D03*
X21150000Y-53400000D03*
X25200000Y-53500000D03*
X60873361Y-64936885D03*
X48061939Y-61002429D03*
X25323800Y-57886600D03*
X36819344Y-78197529D03*
X34370323Y-81116158D03*
D14*
G36*
X34524355Y-82876747D02*
G01*
X32609734Y-81270190D01*
X34216291Y-79355569D01*
X36130912Y-80962126D01*
X34524355Y-82876747D01*
X34524355Y-82876747D01*
G37*
D11*
X32374821Y-63581036D03*
X38088019Y-68440246D03*
D14*
G36*
X39848608Y-68286214D02*
G01*
X38242051Y-70200835D01*
X36327430Y-68594278D01*
X37933987Y-66679657D01*
X39848608Y-68286214D01*
X39848608Y-68286214D01*
G37*
D11*
X35169390Y-65991225D03*
X27050000Y-19700000D03*
X19400000Y-36650000D03*
D12*
X58530057Y-41665280D03*
D16*
X58530057Y-41665280D02*
X58530057Y-41665280D01*
D12*
X57206858Y-49169515D03*
X54775753Y-41937489D03*
X56098952Y-34433254D03*
D16*
X56098952Y-34433254D02*
X56098952Y-34433254D01*
D12*
X47962279Y-18060800D03*
X40458044Y-16737601D03*
D16*
X40458044Y-16737601D02*
X40458044Y-16737601D01*
D12*
X54420391Y-44240771D03*
D16*
X54420391Y-44240771D02*
X54420391Y-44240771D01*
D12*
X53097192Y-51745006D03*
X48098592Y-74615610D03*
X46775393Y-82119845D03*
D16*
X46775393Y-82119845D02*
X46775393Y-82119845D01*
D12*
X57541929Y-81814800D03*
X50037694Y-80491601D03*
D16*
X50037694Y-80491601D02*
X50037694Y-80491601D01*
D17*
X57385976Y-71891192D03*
D12*
X57385976Y-64271192D03*
X49991355Y-63881204D03*
X42830897Y-66487397D03*
D16*
X42830897Y-66487397D02*
X42830897Y-66487397D01*
D12*
X19778102Y-64825069D03*
X24676144Y-70662328D03*
D16*
X24676144Y-70662328D02*
X24676144Y-70662328D01*
D12*
X29635372Y-60036694D03*
D16*
X29635372Y-60036694D02*
X29635372Y-60036694D01*
D12*
X23798113Y-64934736D03*
X25598042Y-25712741D03*
D16*
X25598042Y-25712741D02*
X25598042Y-25712741D01*
D12*
X20700000Y-31550000D03*
X19301958Y-28287259D03*
D16*
X19301958Y-28287259D02*
X19301958Y-28287259D01*
D12*
X24200000Y-22450000D03*
D18*
X29150000Y-23200000D03*
D17*
X36770000Y-56220000D03*
X29150000Y-25740000D03*
X36770000Y-53680000D03*
X29150000Y-28280000D03*
X36770000Y-51140000D03*
X29150000Y-30820000D03*
X36770000Y-48600000D03*
X29150000Y-33360000D03*
X36770000Y-46060000D03*
X29150000Y-35900000D03*
X36770000Y-43520000D03*
X29150000Y-38440000D03*
X36770000Y-40980000D03*
X29150000Y-40980000D03*
X36770000Y-38440000D03*
X29150000Y-43520000D03*
X36770000Y-35900000D03*
X29150000Y-46060000D03*
X36770000Y-33360000D03*
X29150000Y-48600000D03*
X36770000Y-30820000D03*
X29150000Y-51140000D03*
X36770000Y-28280000D03*
X29150000Y-53680000D03*
X36770000Y-25740000D03*
X29150000Y-56220000D03*
X36770000Y-23200000D03*
D12*
X45936624Y-29561565D03*
D16*
X45936624Y-29561565D02*
X45936624Y-29561565D01*
D12*
X55703275Y-25007300D03*
D16*
X55703275Y-25007300D02*
X55703275Y-25007300D01*
D12*
X46805355Y-27174745D03*
D16*
X46805355Y-27174745D02*
X46805355Y-27174745D01*
D12*
X54834544Y-27394119D03*
D16*
X54834544Y-27394119D02*
X54834544Y-27394119D01*
D12*
X47674087Y-24787926D03*
D16*
X47674087Y-24787926D02*
X47674087Y-24787926D01*
D12*
X53965813Y-29780939D03*
D16*
X53965813Y-29780939D02*
X53965813Y-29780939D01*
D12*
X48542818Y-22401107D03*
D16*
X48542818Y-22401107D02*
X48542818Y-22401107D01*
D12*
X53097082Y-32167758D03*
D14*
G36*
X54122452Y-31689620D02*
G01*
X53575220Y-33193128D01*
X52071712Y-32645896D01*
X52618944Y-31142388D01*
X54122452Y-31689620D01*
X54122452Y-31689620D01*
G37*
D18*
X48600000Y-47650000D03*
D17*
X40980000Y-55270000D03*
X46060000Y-47650000D03*
X43520000Y-55270000D03*
X43520000Y-47650000D03*
X46060000Y-55270000D03*
X40980000Y-47650000D03*
X48600000Y-55270000D03*
D19*
X54798587Y-57925492D03*
D14*
G36*
X53958706Y-58513583D02*
G01*
X54210496Y-57085611D01*
X55638468Y-57337401D01*
X55386678Y-58765373D01*
X53958706Y-58513583D01*
X53958706Y-58513583D01*
G37*
D19*
X54357521Y-60426904D03*
X53916454Y-62928315D03*
X53475388Y-65429727D03*
X53034322Y-67931139D03*
X52593255Y-70432550D03*
X52152189Y-72933962D03*
X51711122Y-75435374D03*
X51270056Y-77936786D03*
D20*
X31868813Y-76863223D03*
D14*
G36*
X33241258Y-76709434D02*
G01*
X31955683Y-78241523D01*
X30496368Y-77017012D01*
X31781943Y-75484923D01*
X33241258Y-76709434D01*
X33241258Y-76709434D01*
G37*
D20*
X29923060Y-75230542D03*
D21*
X29892528Y-75266929D02*
X29953592Y-75194155D01*
D20*
X27977307Y-73597862D03*
D21*
X27946775Y-73634249D02*
X28007839Y-73561475D01*
D22*
X24150000Y-42200000D03*
X24150000Y-47080000D03*
D23*
X56098952Y-34433254D02*
X60808551Y-35338750D01*
X61315778Y-38215373D02*
X61941539Y-42185581D01*
X61941539Y-42185581D02*
X58530056Y-41665280D01*
X51711123Y-75435374D02*
X55356111Y-76111388D01*
X49412350Y-75946565D02*
X51711123Y-75435374D01*
X44084793Y-79238857D02*
X47445284Y-77336045D01*
X47445284Y-77336045D02*
X49412350Y-75946565D01*
X29150000Y-40980000D02*
X26800000Y-40050000D01*
X26800000Y-40050000D02*
X23582405Y-36646267D01*
X23582405Y-36646267D02*
X19400000Y-36650000D01*
X19400000Y-36650000D02*
X17050000Y-38200000D01*
X17050000Y-38200000D02*
X17150000Y-40950000D01*
X17150000Y-40950000D02*
X19750000Y-44900000D01*
X19750000Y-44900000D02*
X15900000Y-46100000D01*
X55680368Y-21561669D02*
X55703275Y-25007300D01*
X48098592Y-74615610D02*
X52152190Y-72933961D01*
X54798587Y-57925492D02*
X58534788Y-56604203D01*
X60824288Y-68289468D02*
X62366451Y-67426514D01*
X62366451Y-67426514D02*
X63551169Y-65649173D01*
X63551169Y-65649173D02*
X63383846Y-63505112D01*
X63383846Y-63505112D02*
X62159901Y-61268606D01*
X62159901Y-61268606D02*
X60254863Y-58298195D01*
X60254863Y-58298195D02*
X58534788Y-56604203D01*
X46060000Y-55270000D02*
X45950000Y-57300000D01*
X45950000Y-57300000D02*
X43100000Y-57600000D01*
X43100000Y-57600000D02*
X41200000Y-57600000D01*
X41200000Y-57600000D02*
X40980000Y-55270000D01*
X30742372Y-67553825D02*
X33184782Y-72033997D01*
X30742372Y-67553825D02*
X32374821Y-63581036D01*
X32374821Y-63581036D02*
X35169390Y-65991225D01*
X38088019Y-68440246D02*
X35169390Y-65991225D01*
X29923060Y-75230542D02*
X33184782Y-72033997D01*
X19400000Y-36650000D02*
X18100000Y-31750000D01*
X18100000Y-31750000D02*
X16900000Y-29650000D01*
X16900000Y-29650000D02*
X17550000Y-25950000D01*
X17550000Y-25950000D02*
X22700000Y-20350000D01*
X22700000Y-20350000D02*
X24350000Y-17550000D01*
X24350000Y-17550000D02*
X27850000Y-16150000D01*
X27850000Y-16150000D02*
X31600000Y-16000000D01*
X31600000Y-16000000D02*
X33350000Y-16150000D01*
X33350000Y-16150000D02*
X33743000Y-18387200D01*
X45150000Y-16850000D02*
X48350000Y-16150000D01*
X42550000Y-18950000D02*
X38200000Y-19000000D01*
X38200000Y-19000000D02*
X33743000Y-18387200D01*
X36770000Y-38440000D02*
X34500000Y-37550000D01*
X32250000Y-55100000D02*
X31200000Y-41900000D01*
X31200000Y-41900000D02*
X29150000Y-40980000D01*
X48098592Y-74615610D02*
X44953034Y-74314820D01*
X52152189Y-72933962D02*
X54150400Y-72354600D01*
X54150400Y-72354600D02*
X56600400Y-69754600D01*
X56600400Y-69754600D02*
X57850400Y-70004600D01*
X57850400Y-70004600D02*
X58650400Y-70804600D01*
X58650400Y-70804600D02*
X59550400Y-72154600D01*
X59550400Y-72154600D02*
X59900400Y-73754600D01*
X59900400Y-73754600D02*
X60200400Y-75154600D01*
X60200400Y-75154600D02*
X61500400Y-75954600D01*
X61500400Y-75954600D02*
X63900400Y-74904600D01*
X63900400Y-74904600D02*
X64400400Y-72554600D01*
X64400400Y-72554600D02*
X62366451Y-67426514D01*
X60982159Y-68330561D02*
X59250400Y-66854600D01*
X59250400Y-66854600D02*
X57950400Y-66254600D01*
X57950400Y-66254600D02*
X55850400Y-66604600D01*
X55850400Y-66604600D02*
X53034322Y-67931139D01*
X29635373Y-60036695D02*
X27819908Y-62630905D01*
X27819908Y-62630905D02*
X25644106Y-66157359D01*
X25644106Y-66157359D02*
X22932072Y-69233863D01*
X22932072Y-69233863D02*
X22061658Y-71049043D01*
X22061658Y-71049043D02*
X25021930Y-74055168D01*
X25021930Y-74055168D02*
X27326226Y-76053973D01*
X28488943Y-76768528D02*
X29923060Y-75230542D01*
X61500400Y-75954600D02*
X59950400Y-83404600D01*
X59950400Y-83404600D02*
X55300400Y-84604600D01*
X55300400Y-84604600D02*
X53250400Y-84604600D01*
X53250400Y-84604600D02*
X50050400Y-87554600D01*
X50050400Y-87554600D02*
X45050400Y-88154600D01*
X27588774Y-76215325D02*
X28488943Y-76768528D01*
X27326226Y-76053973D02*
X27588774Y-76215325D01*
X34500000Y-37550000D02*
X32588200Y-33477200D01*
X32588200Y-33477200D02*
X32740600Y-24917400D01*
X32740600Y-24917400D02*
X33743000Y-18387200D01*
X58724800Y-26670000D02*
X55703275Y-25007300D01*
X29635372Y-60036694D02*
X32250000Y-55100000D01*
X32374821Y-63581036D02*
X35560000Y-61036200D01*
X35560000Y-61036200D02*
X39395400Y-59385200D01*
X39395400Y-59385200D02*
X41200000Y-57600000D01*
X45050400Y-88154600D02*
X40970200Y-85318600D01*
X40970200Y-85318600D02*
X38633400Y-81457800D01*
X38633400Y-81457800D02*
X38963600Y-77698600D01*
X38963600Y-77698600D02*
X39319200Y-72263000D01*
X39319200Y-72263000D02*
X38088019Y-68440246D01*
X55680368Y-21561669D02*
X55880000Y-17780000D01*
X55880000Y-17780000D02*
X54102000Y-15748000D01*
X54102000Y-15748000D02*
X50546000Y-15494000D01*
X50546000Y-15494000D02*
X48350000Y-16150000D01*
X48542818Y-22401107D02*
X45974000Y-20828000D01*
X45974000Y-20828000D02*
X43826766Y-17918766D01*
X43826766Y-17918766D02*
X42550000Y-18950000D01*
X45150000Y-16850000D02*
X43826766Y-17918766D01*
X52593256Y-70432550D02*
X48969611Y-69941135D01*
X52593255Y-70432550D02*
X54750400Y-69054600D01*
X54750400Y-69054600D02*
X55950400Y-68154600D01*
X55950400Y-68154600D02*
X57650400Y-67904600D01*
X57650400Y-67904600D02*
X59000400Y-69404600D01*
X59000400Y-69404600D02*
X60550400Y-71204600D01*
X60550400Y-71204600D02*
X61850400Y-73254600D01*
X31868813Y-76863223D02*
X34370323Y-81116158D01*
X34370323Y-81116158D02*
X36819342Y-78197528D01*
X36819342Y-78197528D02*
X35929625Y-73033039D01*
X57541929Y-81814800D02*
X58232733Y-76618615D01*
X58232733Y-76618615D02*
X57385976Y-71891193D01*
X50037695Y-80491601D02*
X49332296Y-82540772D01*
X49332296Y-82540772D02*
X47686626Y-84313277D01*
X47686626Y-84313277D02*
X45002357Y-83759020D01*
X45002357Y-83759020D02*
X43868666Y-81707863D01*
X43868666Y-81707863D02*
X41847860Y-80466354D01*
X41847860Y-80466354D02*
X41629910Y-78495314D01*
X41629910Y-78495314D02*
X42885468Y-73068660D01*
X42885468Y-73068660D02*
X46092988Y-70448362D01*
X46092988Y-70448362D02*
X42830899Y-66487400D01*
X53475388Y-65429727D02*
X49991355Y-63881204D01*
X49991355Y-63881204D02*
X48061939Y-61002429D01*
X53916454Y-62928315D02*
X57666546Y-61528241D01*
X53916454Y-62928315D02*
X51650400Y-60454600D01*
X51650400Y-60454600D02*
X52000400Y-58404600D01*
X52000400Y-58404600D02*
X52850400Y-56054600D01*
X29150000Y-38440000D02*
X32300000Y-38950000D01*
X32300000Y-38950000D02*
X36770000Y-40980000D01*
X36770000Y-40980000D02*
X36770000Y-43520000D01*
X29150000Y-38440000D02*
X27200000Y-37150000D01*
X27200000Y-37150000D02*
X25042905Y-34116607D01*
X25042905Y-34116607D02*
X22800000Y-32200000D01*
X22800000Y-32200000D02*
X20700000Y-31550000D01*
X20700000Y-31550000D02*
X19301958Y-28287259D01*
X43520000Y-55270000D02*
X45050000Y-52700000D01*
X47600000Y-50150000D02*
X48600000Y-47650000D01*
X27821372Y-67553826D02*
X24676141Y-70662329D01*
X24676141Y-70662329D02*
X27977308Y-73597861D01*
X45936624Y-29561565D02*
X47250000Y-30900000D01*
X27821372Y-67553826D02*
X29431251Y-63199738D01*
X29431251Y-63199738D02*
X31012244Y-61393370D01*
X33200000Y-59850000D02*
X34450000Y-55250000D01*
X34450000Y-55250000D02*
X34200000Y-48500000D01*
X34200000Y-48500000D02*
X34200000Y-44050000D01*
X34200000Y-44050000D02*
X36770000Y-43520000D01*
X31012244Y-61393370D02*
X33200000Y-59850000D01*
X57206858Y-49169515D02*
X55626000Y-52755800D01*
X55626000Y-52755800D02*
X52882800Y-54152800D01*
X52882800Y-54152800D02*
X50012600Y-53289200D01*
X50012600Y-53289200D02*
X46906500Y-50843500D01*
X46906500Y-50843500D02*
X47600000Y-50150000D01*
X45050000Y-52700000D02*
X46906500Y-50843500D01*
X52850400Y-56054600D02*
X52882800Y-54152800D01*
X47250000Y-30900000D02*
X49530000Y-27178000D01*
X49530000Y-27178000D02*
X51054000Y-23368000D01*
X51054000Y-23368000D02*
X50981905Y-19851568D01*
X48600000Y-47650000D02*
X46736000Y-43942000D01*
X42164000Y-43180000D02*
X36770000Y-43520000D01*
X47250000Y-30900000D02*
X45720000Y-34036000D01*
X45720000Y-34036000D02*
X44450000Y-40894000D01*
X44450000Y-40894000D02*
X44558857Y-43579143D01*
X44558857Y-43579143D02*
X42164000Y-43180000D01*
X46736000Y-43942000D02*
X44558857Y-43579143D01*
X29150000Y-43520000D02*
X26300000Y-43200000D01*
X26300000Y-43200000D02*
X24150000Y-42200000D01*
X24150000Y-42200000D02*
X19750000Y-39900000D01*
X19113938Y-49930222D02*
X24150000Y-47080000D01*
X29150000Y-46060000D02*
X26850000Y-46150000D01*
X26850000Y-46150000D02*
X24150000Y-47080000D01*
X24200000Y-22450000D02*
X27050000Y-19700000D01*
X29150000Y-23200000D02*
X27050000Y-19700000D01*
X27050000Y-19700000D02*
X30822000Y-18387200D01*
X21150000Y-53400000D02*
X23000000Y-50150000D01*
X23000000Y-50150000D02*
X26700000Y-49000000D01*
X26700000Y-49000000D02*
X29150000Y-48600000D01*
X25200000Y-53500000D02*
X29150000Y-51140000D01*
X59318036Y-64639995D02*
X59870116Y-61884555D01*
X57385976Y-64271192D02*
X59318036Y-64639995D01*
X59318036Y-64639995D02*
X60873361Y-64936885D01*
X59870116Y-61884555D02*
X59627516Y-60195282D01*
X59627516Y-60195282D02*
X58131939Y-59035214D01*
X58131939Y-59035214D02*
X56418015Y-59559583D01*
X56418015Y-59559583D02*
X54357522Y-60426903D01*
X29150000Y-53680000D02*
X27457400Y-54711600D01*
X27457400Y-54711600D02*
X25323800Y-57886600D01*
X54420391Y-44240771D02*
X54775753Y-41937489D01*
X54775753Y-41937489D02*
X53517800Y-40513000D01*
X53517800Y-40513000D02*
X53035200Y-38582600D01*
X53035200Y-38582600D02*
X54000400Y-35509200D01*
X54000400Y-35509200D02*
X55321200Y-31648400D01*
X55321200Y-31648400D02*
X53965813Y-29780939D01*
X47962279Y-18060800D02*
X50546000Y-17526000D01*
X50546000Y-17526000D02*
X52324000Y-18034000D01*
X52324000Y-18034000D02*
X53340000Y-19050000D01*
X53340000Y-19050000D02*
X53340000Y-22860000D01*
X53340000Y-22860000D02*
X53086000Y-24892000D01*
X53086000Y-24892000D02*
X54834544Y-27394119D01*
X19778102Y-64825069D02*
X23798113Y-64934736D01*
X40458044Y-16737601D02*
X37450000Y-15300000D01*
X37450000Y-15300000D02*
X34300000Y-14700000D01*
X34300000Y-14700000D02*
X26400000Y-15050000D01*
X26400000Y-15050000D02*
X23600000Y-15650000D01*
X23600000Y-15650000D02*
X21550000Y-17850000D01*
X21550000Y-17850000D02*
X19800000Y-20700000D01*
X19800000Y-20700000D02*
X16700000Y-23950000D01*
X16700000Y-23950000D02*
X15500000Y-27050000D01*
X15500000Y-27050000D02*
X15550000Y-31150000D01*
X15550000Y-31150000D02*
X15500000Y-41600000D01*
X15500000Y-41600000D02*
X14350000Y-44600000D01*
X14350000Y-44600000D02*
X13900000Y-45900000D01*
X13900000Y-45900000D02*
X14650000Y-48700000D01*
X14650000Y-48700000D02*
X17500000Y-52250000D01*
X17500000Y-52250000D02*
X19050000Y-55300000D01*
X19778102Y-64825069D02*
X19888200Y-57734200D01*
X19888200Y-57734200D02*
X19050000Y-55300000D01*
X53097082Y-32167758D02*
X51906022Y-35352454D01*
X53097192Y-51745006D02*
X51968400Y-45161200D01*
X51968400Y-45161200D02*
X51536600Y-39116000D01*
X46775392Y-82119845D02*
X48027769Y-79197016D01*
X48027769Y-79197016D02*
X49579672Y-78090626D01*
X49579672Y-78090626D02*
X51270056Y-77936785D01*
X51270056Y-77936786D02*
X52050400Y-79204600D01*
X52050400Y-79204600D02*
X51950400Y-81804600D01*
X51950400Y-81804600D02*
X50300400Y-85154600D01*
X50300400Y-85154600D02*
X47300400Y-86304600D01*
X47300400Y-86304600D02*
X43250400Y-85254600D01*
X43250400Y-85254600D02*
X41950400Y-83154600D01*
X41950400Y-83154600D02*
X40500400Y-81504600D01*
X40500400Y-81504600D02*
X40200400Y-77454600D01*
X40200400Y-77454600D02*
X41249600Y-70916800D01*
X41249600Y-70916800D02*
X41325800Y-67767200D01*
X41325800Y-67767200D02*
X39700200Y-64516000D01*
X39700200Y-64516000D02*
X43408600Y-60858400D01*
X43408600Y-60858400D02*
X47320200Y-58445400D01*
X47320200Y-58445400D02*
X48488600Y-57759600D01*
X48488600Y-57759600D02*
X48600000Y-55270000D01*
X25598042Y-25712741D02*
X29150000Y-25740000D01*
X46060000Y-47650000D02*
X44150000Y-49900000D01*
X44150000Y-49900000D02*
X40900000Y-51550000D01*
X40900000Y-51550000D02*
X36770000Y-53680000D01*
X36770000Y-51140000D02*
X39200000Y-50300000D01*
X39200000Y-50300000D02*
X40980000Y-47650000D01*
X43520000Y-47650000D02*
X42750000Y-45850000D01*
X42750000Y-45850000D02*
X40350000Y-45500000D01*
X40350000Y-45500000D02*
X36770000Y-46060000D01*
X36770000Y-33360000D02*
X35229800Y-32461200D01*
X35229800Y-32461200D02*
X34747200Y-30200600D01*
X34747200Y-30200600D02*
X34975800Y-21767800D01*
X34975800Y-21767800D02*
X35814000Y-20675600D01*
X35814000Y-20675600D02*
X38481000Y-20955000D01*
X38481000Y-20955000D02*
X40640000Y-22860000D01*
X40640000Y-36068000D02*
X36770000Y-35900000D01*
X49022000Y-37846000D02*
X51593838Y-38576162D01*
X51593838Y-38576162D02*
X51920000Y-35500000D01*
X51536600Y-39116000D02*
X51593838Y-38576162D01*
X47674087Y-24787926D02*
X46805355Y-27174745D01*
M02*
