M48
; DRILL file {KiCad (5.1.2-1)-1} date Tuesday, November 09, 2021 at 11:57:44 AM
; FORMAT={-:-/ absolute / inch / decimal}
; #@! TF.CreationDate,2021-11-09T11:57:44-05:00
; #@! TF.GenerationSoftware,Kicad,Pcbnew,(5.1.2-1)-1
FMAT,2
INCH
T1C0.0315
T2C0.0335
T3C0.0394
T4C0.0394
T5C0.0433
T6C0.1378
%
G90
G05
T1
X2.1514Y-1.473
X2.254Y-1.1911
X0.7599Y-1.1137
X0.9528Y-0.8839
X1.8085Y-1.1638
X1.8427Y-1.0699
X1.8769Y-0.9759
X1.9111Y-0.8819
X2.0904Y-1.2664
X2.1246Y-1.1725
X2.1588Y-1.0785
X2.193Y-0.9845
X2.3284Y-1.4012
X2.431Y-1.1193
X2.7749Y-1.9912
X2.8091Y-2.185
X2.0072Y-0.7816
X2.1921Y-0.8489
X1.0276Y-2.8248
X1.323Y-2.8769
X2.344Y-2.47
X2.6394Y-2.5221
X1.5928Y-0.659
X1.8883Y-0.7111
X1.5827Y-1.1016
X1.5827Y-1.4016
X2.0603Y-1.9186
X2.3422Y-1.816
X0.815Y-1.2421
X1.0078Y-1.0123
X2.6443Y-1.7234
X2.6785Y-1.5295
X0.9508Y-1.6614
X0.9508Y-1.8535
X0.7776Y-1.5709
X0.7776Y-1.7677
X1.7441Y-1.3976
X2.0441Y-1.3976
X2.2836Y-1.1042
X2.3862Y-0.8223
X1.6134Y-1.876
X1.6134Y-2.176
X1.7134Y-1.876
X1.7134Y-2.176
X1.8134Y-1.876
X1.8134Y-2.176
X1.9134Y-1.876
X1.9134Y-2.176
X0.626Y-1.815
X0.7525Y-1.9658
X2.6333Y-1.8314
X2.6333Y-2.1314
X1.1516Y-2.7264
X1.2037Y-2.4309
X2.1096Y-2.4206
X2.1438Y-2.2268
X1.1476Y-0.9134
X1.1476Y-1.0134
X1.1476Y-1.1134
X1.1476Y-1.2134
X1.1476Y-1.3134
X1.1476Y-1.4134
X1.1476Y-1.5134
X1.1476Y-1.6134
X1.1476Y-1.7134
X1.1476Y-1.8134
X1.1476Y-1.9134
X1.1476Y-2.0134
X1.1476Y-2.1134
X1.1476Y-2.2134
X1.4476Y-0.9134
X1.4476Y-1.0134
X1.4476Y-1.1134
X1.4476Y-1.2134
X1.4476Y-1.3134
X1.4476Y-1.4134
X1.4476Y-1.5134
X1.4476Y-1.6134
X1.4476Y-1.7134
X1.4476Y-1.8134
X1.4476Y-1.9134
X1.4476Y-2.0134
X1.4476Y-2.1134
X1.4476Y-2.2134
X2.2156Y-2.5341
X2.2676Y-2.2386
T2
X2.3925Y-2.3694
X2.4099Y-2.2709
X2.4272Y-2.1724
X2.4446Y-2.0739
X2.462Y-1.9755
X2.4793Y-1.877
X2.4967Y-1.7785
X2.5141Y-1.68
X2.5314Y-1.5815
T3
X2.5534Y-2.2975
X2.6666Y-2.3175
X1.2135Y-0.7239
X1.3285Y-0.7239
X2.5626Y-0.8896
X2.5626Y-1.0046
X0.9284Y-1.4428
X0.9859Y-1.3432
X1.3392Y-2.7036
X1.4273Y-2.6296
X2.1887Y-2.0746
X2.3019Y-2.0546
X1.6143Y-2.7029
X1.7224Y-2.6636
T4
X1.065Y-0.7756
X0.9921Y-2.1063
X1.0404Y-2.4163
X1.376Y-2.4685
X2.2749Y-0.7366
X0.9921Y-2.2657
X0.7638Y-1.4429
X1.6Y-0.9
X2.7706Y-1.8576
X1.5213Y-2.4705
X1.6713Y-2.4705
X0.8327Y-2.1024
X1.8799Y-2.7969
X1.8799Y-2.9469
X2.5597Y-1.1628
X2.2662Y-1.7027
T5
X1.4969Y-2.8819
X1.5969Y-2.8819
X1.6969Y-2.8819
T6
X2.874Y-2.9134
X0.6693Y-0.6693
X2.874Y-0.6693
X0.6693Y-2.9134
T0
M30
