M48
; DRILL file {KiCad (5.1.2-1)-1} date Thursday, December 02, 2021 at 08:33:18 PM
; FORMAT={-:-/ absolute / inch / decimal}
; #@! TF.CreationDate,2021-12-02T20:33:18-05:00
; #@! TF.GenerationSoftware,Kicad,Pcbnew,(5.1.2-1)-1
FMAT,2
INCH
T1C0.0315
T2C0.0315
T3C0.0335
T4C0.0394
T5C0.0394
T6C0.0433
T7C0.1378
%
G90
G05
T1
X2.2703Y-2.4224
X2.3045Y-2.2285
X1.5928Y-0.659
X1.8883Y-0.7111
X0.9369Y-2.5565
X1.1667Y-2.3636
X1.6134Y-1.876
X1.6134Y-2.176
X1.7134Y-1.876
X1.7134Y-2.176
X1.8134Y-1.876
X1.8134Y-2.176
X1.9134Y-1.876
X1.9134Y-2.176
X1.6863Y-2.6176
X1.9682Y-2.515
X0.9508Y-1.6614
X0.9508Y-1.8535
X1.1476Y-0.9134
X1.1476Y-1.0134
X1.1476Y-1.1134
X1.1476Y-1.2134
X1.1476Y-1.3134
X1.1476Y-1.4134
X1.1476Y-1.5134
X1.1476Y-1.6134
X1.1476Y-1.7134
X1.1476Y-1.8134
X1.1476Y-1.9134
X1.1476Y-2.0134
X1.1476Y-2.1134
X1.1476Y-2.2134
X1.4476Y-0.9134
X1.4476Y-1.0134
X1.4476Y-1.1134
X1.4476Y-1.2134
X1.4476Y-1.3134
X1.4476Y-1.4134
X1.4476Y-1.5134
X1.4476Y-1.6134
X1.4476Y-1.7134
X1.4476Y-1.8134
X1.4476Y-1.9134
X1.4476Y-2.0134
X1.4476Y-2.1134
X1.4476Y-2.2134
X1.8416Y-3.2331
X1.8936Y-2.9376
X0.7599Y-1.1137
X0.9528Y-0.8839
X1.8085Y-1.1638
X1.8427Y-1.0699
X1.8769Y-0.9759
X1.9111Y-0.8819
X2.0904Y-1.2664
X2.1246Y-1.1725
X2.1588Y-1.0785
X2.193Y-0.9845
X2.1565Y-1.6511
X2.2086Y-1.3556
X0.7787Y-2.5522
X0.9715Y-2.782
X2.2593Y-2.5304
X2.2593Y-2.8304
X2.0072Y-0.7816
X2.1921Y-0.8489
X2.0904Y-2.0372
X2.1425Y-1.7418
X0.815Y-1.2421
X1.0078Y-1.0123
X1.7356Y-3.1196
X1.7698Y-2.9258
X0.7776Y-1.5709
X0.7776Y-1.7677
X2.2522Y-1.9358
X2.3043Y-1.6404
X2.4009Y-2.6902
X2.4351Y-2.884
X1.97Y-3.169
X2.2654Y-3.2211
X0.626Y-1.815
X0.7525Y-1.9658
T2
X1.93Y-1.49
X1.6Y-1.42
T3
X2.0185Y-3.0684
X2.0359Y-2.9699
X2.0532Y-2.8714
X2.0706Y-2.7729
X2.088Y-2.6745
X2.1053Y-2.576
X2.1227Y-2.4775
X2.1401Y-2.379
X2.1574Y-2.2805
T4
X2.1794Y-2.9965
X2.2926Y-3.0165
X1.0953Y-2.6596
X1.2103Y-2.6596
X0.9284Y-1.4428
X0.9859Y-1.3432
X1.8147Y-2.7736
X1.9279Y-2.7536
X2.394Y-1.3913
X2.414Y-1.5045
X1.3065Y-2.836
X1.4146Y-2.8753
X1.2135Y-0.7239
X1.3285Y-0.7239
T5
X1.2746Y-2.5032
X1.3846Y-2.5981
X1.4995Y-2.6945
X1.3532Y-3.1935
X1.065Y-0.7756
X0.7638Y-1.4429
X1.4496Y-3.0786
X1.6Y-0.9
X1.8922Y-2.4017
X0.9921Y-2.1063
X0.997Y-2.279
X2.3966Y-2.5566
X2.4386Y-1.6608
X2.312Y-1.05
X0.8327Y-2.1024
T6
X1.1015Y-2.8976
X1.1781Y-2.9618
X1.2547Y-3.0261
T7
X0.66Y-0.6693
X2.49Y-0.67
X0.66Y-3.5
X2.49Y-3.5
T0
M30
