G04 #@! TF.GenerationSoftware,KiCad,Pcbnew,(5.1.2-1)-1*
G04 #@! TF.CreationDate,2021-11-10T21:08:18-05:00*
G04 #@! TF.ProjectId,lil_duder,6c696c5f-6475-4646-9572-2e6b69636164,rev?*
G04 #@! TF.SameCoordinates,Original*
G04 #@! TF.FileFunction,Legend,Top*
G04 #@! TF.FilePolarity,Positive*
%FSLAX46Y46*%
G04 Gerber Fmt 4.6, Leading zero omitted, Abs format (unit mm)*
G04 Created by KiCad (PCBNEW (5.1.2-1)-1) date 2021-11-10 21:08:18*
%MOMM*%
%LPD*%
G04 APERTURE LIST*
%ADD10C,0.150000*%
%ADD11C,0.120000*%
G04 APERTURE END LIST*
D10*
X16933333Y-34277380D02*
X16600000Y-33801190D01*
X16361904Y-34277380D02*
X16361904Y-33277380D01*
X16742857Y-33277380D01*
X16838095Y-33325000D01*
X16885714Y-33372619D01*
X16933333Y-33467857D01*
X16933333Y-33610714D01*
X16885714Y-33705952D01*
X16838095Y-33753571D01*
X16742857Y-33801190D01*
X16361904Y-33801190D01*
X17314285Y-34229761D02*
X17457142Y-34277380D01*
X17695238Y-34277380D01*
X17790476Y-34229761D01*
X17838095Y-34182142D01*
X17885714Y-34086904D01*
X17885714Y-33991666D01*
X17838095Y-33896428D01*
X17790476Y-33848809D01*
X17695238Y-33801190D01*
X17504761Y-33753571D01*
X17409523Y-33705952D01*
X17361904Y-33658333D01*
X17314285Y-33563095D01*
X17314285Y-33467857D01*
X17361904Y-33372619D01*
X17409523Y-33325000D01*
X17504761Y-33277380D01*
X17742857Y-33277380D01*
X17885714Y-33325000D01*
X18171428Y-33277380D02*
X18742857Y-33277380D01*
X18457142Y-34277380D02*
X18457142Y-33277380D01*
X19076190Y-33896428D02*
X19838095Y-33896428D01*
X40795638Y-93506980D02*
X40986114Y-93506980D01*
X41081352Y-93459361D01*
X41128971Y-93411742D01*
X41224209Y-93268885D01*
X41271828Y-93078409D01*
X41271828Y-92697457D01*
X41224209Y-92602219D01*
X41176590Y-92554600D01*
X41081352Y-92506980D01*
X40890876Y-92506980D01*
X40795638Y-92554600D01*
X40748019Y-92602219D01*
X40700400Y-92697457D01*
X40700400Y-92935552D01*
X40748019Y-93030790D01*
X40795638Y-93078409D01*
X40890876Y-93126028D01*
X41081352Y-93126028D01*
X41176590Y-93078409D01*
X41224209Y-93030790D01*
X41271828Y-92935552D01*
X41557542Y-92506980D02*
X41890876Y-93506980D01*
X42224209Y-92506980D01*
X42319447Y-93602219D02*
X43081352Y-93602219D01*
X43890876Y-93411742D02*
X43843257Y-93459361D01*
X43700399Y-93506980D01*
X43605161Y-93506980D01*
X43462304Y-93459361D01*
X43367066Y-93364123D01*
X43319447Y-93268885D01*
X43271828Y-93078409D01*
X43271828Y-92935552D01*
X43319447Y-92745076D01*
X43367066Y-92649838D01*
X43462304Y-92554600D01*
X43605161Y-92506980D01*
X43700399Y-92506980D01*
X43843257Y-92554600D01*
X43890876Y-92602219D01*
X44462304Y-93506980D02*
X44367066Y-93459361D01*
X44319447Y-93411742D01*
X44271828Y-93316504D01*
X44271828Y-93030790D01*
X44319447Y-92935552D01*
X44367066Y-92887933D01*
X44462304Y-92840314D01*
X44605161Y-92840314D01*
X44700399Y-92887933D01*
X44748019Y-92935552D01*
X44795638Y-93030790D01*
X44795638Y-93316504D01*
X44748019Y-93411742D01*
X44700399Y-93459361D01*
X44605161Y-93506980D01*
X44462304Y-93506980D01*
X45224209Y-92840314D02*
X45224209Y-93506980D01*
X45224209Y-92935552D02*
X45271828Y-92887933D01*
X45367066Y-92840314D01*
X45509923Y-92840314D01*
X45605161Y-92887933D01*
X45652780Y-92983171D01*
X45652780Y-93506980D01*
X35208855Y-61879674D02*
X35166507Y-61781978D01*
X35057072Y-61690151D01*
X34917028Y-61634803D01*
X34782854Y-61646542D01*
X34685158Y-61688889D01*
X34526244Y-61804194D01*
X34434417Y-61913628D01*
X34348460Y-62090151D01*
X34323720Y-62193716D01*
X34335459Y-62327891D01*
X34414285Y-62456196D01*
X34487241Y-62517414D01*
X34627285Y-62572762D01*
X34694372Y-62566893D01*
X34908635Y-62311545D01*
X34762722Y-62189109D01*
X34961459Y-62915330D02*
X35604247Y-62149285D01*
X35399199Y-63282637D01*
X36041987Y-62516593D01*
X35763982Y-63588726D02*
X36406770Y-62822682D01*
X36589161Y-62975727D01*
X36667987Y-63104032D01*
X36679726Y-63238206D01*
X36654986Y-63341772D01*
X36569029Y-63518294D01*
X36477202Y-63627729D01*
X36318288Y-63743033D01*
X36220592Y-63785381D01*
X36086417Y-63797120D01*
X35946374Y-63741771D01*
X35763982Y-63588726D01*
X36286417Y-64151426D02*
X36870070Y-64641169D01*
X37612637Y-65015607D02*
X37545550Y-65021477D01*
X37405506Y-64966128D01*
X37332549Y-64904910D01*
X37253723Y-64776605D01*
X37241984Y-64642431D01*
X37266724Y-64538865D01*
X37352681Y-64362343D01*
X37444508Y-64252908D01*
X37603422Y-64137604D01*
X37701118Y-64095256D01*
X37835293Y-64083518D01*
X37975337Y-64138866D01*
X38048293Y-64200084D01*
X38127119Y-64328389D01*
X38132989Y-64395476D01*
X37989159Y-65455871D02*
X37946811Y-65358175D01*
X37940942Y-65291088D01*
X37965681Y-65187522D01*
X38149335Y-64968652D01*
X38247031Y-64926305D01*
X38314118Y-64920435D01*
X38417684Y-64945175D01*
X38527119Y-65037002D01*
X38569466Y-65134698D01*
X38575336Y-65201785D01*
X38550596Y-65305351D01*
X38366943Y-65524221D01*
X38269246Y-65566568D01*
X38202159Y-65572438D01*
X38098594Y-65547698D01*
X37989159Y-65455871D01*
X39001337Y-65434918D02*
X38572812Y-65945614D01*
X38940119Y-65507875D02*
X39007206Y-65502005D01*
X39110772Y-65526745D01*
X39220207Y-65618572D01*
X39262554Y-65716268D01*
X39237815Y-65819833D01*
X38901116Y-66221095D01*
X59330161Y-62759361D02*
X59473019Y-62806980D01*
X59711114Y-62806980D01*
X59806352Y-62759361D01*
X59853971Y-62711742D01*
X59901590Y-62616504D01*
X59901590Y-62521266D01*
X59853971Y-62426028D01*
X59806352Y-62378409D01*
X59711114Y-62330790D01*
X59520638Y-62283171D01*
X59425400Y-62235552D01*
X59377780Y-62187933D01*
X59330161Y-62092695D01*
X59330161Y-61997457D01*
X59377780Y-61902219D01*
X59425400Y-61854600D01*
X59520638Y-61806980D01*
X59758733Y-61806980D01*
X59901590Y-61854600D01*
X60330161Y-62806980D02*
X60330161Y-61806980D01*
X60711114Y-61806980D01*
X60806352Y-61854600D01*
X60853971Y-61902219D01*
X60901590Y-61997457D01*
X60901590Y-62140314D01*
X60853971Y-62235552D01*
X60806352Y-62283171D01*
X60711114Y-62330790D01*
X60330161Y-62330790D01*
X61330161Y-62806980D02*
X61330161Y-61806980D01*
X61901590Y-62806980D02*
X61473019Y-62235552D01*
X61901590Y-61806980D02*
X61330161Y-62378409D01*
X62092066Y-62902219D02*
X62853971Y-62902219D01*
X63044447Y-62521266D02*
X63520638Y-62521266D01*
X62949209Y-62806980D02*
X63282542Y-61806980D01*
X63615876Y-62806980D01*
X41858733Y-61959361D02*
X42001590Y-62006980D01*
X42239685Y-62006980D01*
X42334923Y-61959361D01*
X42382542Y-61911742D01*
X42430161Y-61816504D01*
X42430161Y-61721266D01*
X42382542Y-61626028D01*
X42334923Y-61578409D01*
X42239685Y-61530790D01*
X42049209Y-61483171D01*
X41953971Y-61435552D01*
X41906352Y-61387933D01*
X41858733Y-61292695D01*
X41858733Y-61197457D01*
X41906352Y-61102219D01*
X41953971Y-61054600D01*
X42049209Y-61006980D01*
X42287304Y-61006980D01*
X42430161Y-61054600D01*
X42858733Y-62006980D02*
X42858733Y-61006980D01*
X43239685Y-61006980D01*
X43334923Y-61054600D01*
X43382542Y-61102219D01*
X43430161Y-61197457D01*
X43430161Y-61340314D01*
X43382542Y-61435552D01*
X43334923Y-61483171D01*
X43239685Y-61530790D01*
X42858733Y-61530790D01*
X43858733Y-62006980D02*
X43858733Y-61006980D01*
X44430161Y-62006980D02*
X44001590Y-61435552D01*
X44430161Y-61006980D02*
X43858733Y-61578409D01*
X44620638Y-62102219D02*
X45382542Y-62102219D01*
X45953971Y-61483171D02*
X46096828Y-61530790D01*
X46144447Y-61578409D01*
X46192066Y-61673647D01*
X46192066Y-61816504D01*
X46144447Y-61911742D01*
X46096828Y-61959361D01*
X46001590Y-62006980D01*
X45620638Y-62006980D01*
X45620638Y-61006980D01*
X45953971Y-61006980D01*
X46049209Y-61054600D01*
X46096828Y-61102219D01*
X46144447Y-61197457D01*
X46144447Y-61292695D01*
X46096828Y-61387933D01*
X46049209Y-61435552D01*
X45953971Y-61483171D01*
X45620638Y-61483171D01*
X64203633Y-43123826D02*
X64029985Y-42139019D01*
X64482288Y-42784570D01*
X64686523Y-42023253D01*
X64860171Y-43008061D01*
X65329128Y-42925371D02*
X65213362Y-42268833D01*
X65155479Y-41940564D02*
X65116853Y-41995728D01*
X65172017Y-42034355D01*
X65210644Y-41979190D01*
X65155479Y-41940564D01*
X65172017Y-42034355D01*
X66211875Y-42721366D02*
X66126353Y-42784799D01*
X65938770Y-42817875D01*
X65836710Y-42787517D01*
X65781546Y-42748891D01*
X65718112Y-42663368D01*
X65668498Y-42381995D01*
X65698856Y-42279934D01*
X65737483Y-42224770D01*
X65823005Y-42161336D01*
X66010587Y-42128261D01*
X66112648Y-42158618D01*
X66576053Y-42318676D02*
X67326383Y-42186372D01*
X67017369Y-42627689D02*
X66885066Y-41877359D01*
X60007752Y-29603980D02*
X60007752Y-28603980D01*
X60341085Y-29318266D01*
X60674419Y-28603980D01*
X60674419Y-29603980D01*
X61150609Y-29603980D02*
X61150609Y-28937314D01*
X61150609Y-28603980D02*
X61102990Y-28651600D01*
X61150609Y-28699219D01*
X61198228Y-28651600D01*
X61150609Y-28603980D01*
X61150609Y-28699219D01*
X62055371Y-29556361D02*
X61960133Y-29603980D01*
X61769657Y-29603980D01*
X61674419Y-29556361D01*
X61626800Y-29508742D01*
X61579180Y-29413504D01*
X61579180Y-29127790D01*
X61626800Y-29032552D01*
X61674419Y-28984933D01*
X61769657Y-28937314D01*
X61960133Y-28937314D01*
X62055371Y-28984933D01*
X62483942Y-29223028D02*
X63245847Y-29223028D01*
X25433333Y-17502380D02*
X25100000Y-17026190D01*
X24861904Y-17502380D02*
X24861904Y-16502380D01*
X25242857Y-16502380D01*
X25338095Y-16550000D01*
X25385714Y-16597619D01*
X25433333Y-16692857D01*
X25433333Y-16835714D01*
X25385714Y-16930952D01*
X25338095Y-16978571D01*
X25242857Y-17026190D01*
X24861904Y-17026190D01*
X25814285Y-17454761D02*
X25957142Y-17502380D01*
X26195238Y-17502380D01*
X26290476Y-17454761D01*
X26338095Y-17407142D01*
X26385714Y-17311904D01*
X26385714Y-17216666D01*
X26338095Y-17121428D01*
X26290476Y-17073809D01*
X26195238Y-17026190D01*
X26004761Y-16978571D01*
X25909523Y-16930952D01*
X25861904Y-16883333D01*
X25814285Y-16788095D01*
X25814285Y-16692857D01*
X25861904Y-16597619D01*
X25909523Y-16550000D01*
X26004761Y-16502380D01*
X26242857Y-16502380D01*
X26385714Y-16550000D01*
X26671428Y-16502380D02*
X27242857Y-16502380D01*
X26957142Y-17502380D02*
X26957142Y-16502380D01*
X27576190Y-17121428D02*
X28338095Y-17121428D01*
D11*
X57201391Y-20657352D02*
X56264256Y-23232110D01*
X50398017Y-18181127D02*
X49460882Y-20755884D01*
X49460882Y-20755884D02*
X56264256Y-23232110D01*
X50398017Y-18181127D02*
X57201391Y-20657352D01*
X58505271Y-37122307D02*
X60019905Y-36855236D01*
X62068305Y-36494048D02*
X63582940Y-36226977D01*
X58500294Y-37082567D02*
X60012959Y-36815843D01*
X62061359Y-36454655D02*
X63574024Y-36187932D01*
X58496303Y-37042654D02*
X60006013Y-36776451D01*
X62054413Y-36415263D02*
X63564124Y-36149060D01*
X58493296Y-37002567D02*
X59999067Y-36737059D01*
X62047467Y-36375871D02*
X63553238Y-36110363D01*
X58490290Y-36962480D02*
X59992121Y-36697667D01*
X62040521Y-36336478D02*
X63542353Y-36071665D01*
X58487283Y-36922393D02*
X59985175Y-36658274D01*
X62033576Y-36297086D02*
X63531468Y-36032967D01*
X58485261Y-36882133D02*
X59978230Y-36618882D01*
X62026630Y-36257694D02*
X63519598Y-35994443D01*
X58484224Y-36841698D02*
X59971284Y-36579490D01*
X62019684Y-36218301D02*
X63506743Y-35956093D01*
X58484172Y-36801091D02*
X59964338Y-36540097D01*
X62012738Y-36178909D02*
X63492904Y-35917916D01*
X58484119Y-36760483D02*
X59957392Y-36500705D01*
X62005792Y-36139517D02*
X63479064Y-35879739D01*
X58485052Y-36719701D02*
X59950446Y-36461313D01*
X61894483Y-35508255D02*
X63163901Y-35284423D01*
X58588431Y-36050584D02*
X59839137Y-35830051D01*
X61887537Y-35468863D02*
X63138243Y-35248330D01*
X58601182Y-36007719D02*
X59832191Y-35790659D01*
X61880592Y-35429470D02*
X63111601Y-35212410D01*
X58615902Y-35964506D02*
X59825245Y-35751266D01*
X61873646Y-35390078D02*
X63082990Y-35176838D01*
X58629637Y-35921467D02*
X59818300Y-35711874D01*
X61866700Y-35350686D02*
X63055363Y-35141092D01*
X58645341Y-35878081D02*
X59811354Y-35672482D01*
X61859754Y-35311293D02*
X63025766Y-35105694D01*
X58662031Y-35834521D02*
X59804408Y-35633089D01*
X61852808Y-35271901D02*
X62995185Y-35070469D01*
X58679705Y-35790788D02*
X59797462Y-35593697D01*
X61845862Y-35232509D02*
X62963619Y-35035418D01*
X58698364Y-35746881D02*
X59790516Y-35554305D01*
X58517193Y-37201439D02*
X60033797Y-36934020D01*
X58511232Y-37161873D02*
X60026851Y-36894628D01*
X62075251Y-36533440D02*
X63590870Y-36266195D01*
X61838916Y-35193117D02*
X62931068Y-35000541D01*
X58718008Y-35702800D02*
X59783570Y-35514912D01*
X61831970Y-35153724D02*
X62897532Y-34965837D01*
X58737652Y-35658719D02*
X59776624Y-35475520D01*
X61825024Y-35114332D02*
X62863996Y-34931133D01*
X58760250Y-35614117D02*
X59769678Y-35436128D01*
X61818078Y-35074940D02*
X62827506Y-34896950D01*
X58782848Y-35569515D02*
X59762732Y-35396736D01*
X61811132Y-35035547D02*
X62791016Y-34862767D01*
X62089143Y-36612225D02*
X63605747Y-36344806D01*
X61998846Y-36100124D02*
X63464240Y-35841736D01*
X58485984Y-36678920D02*
X59943500Y-36421920D01*
X61991900Y-36060732D02*
X63449415Y-35803733D01*
X58487902Y-36637965D02*
X59936554Y-36382528D01*
X61984954Y-36021340D02*
X63433606Y-35765903D01*
X58490804Y-36596836D02*
X59929608Y-36343136D01*
X61978008Y-35981948D02*
X63416812Y-35728248D01*
X58493706Y-36555707D02*
X59922662Y-36303743D01*
X58806432Y-35524740D02*
X59755786Y-35357343D01*
X61804186Y-34996155D02*
X62753541Y-34828758D01*
X58831984Y-35479617D02*
X59748840Y-35317951D01*
X61797240Y-34956763D02*
X62714096Y-34795096D01*
X58858522Y-35434321D02*
X59741894Y-35278559D01*
X61790294Y-34917370D02*
X62673667Y-34761608D01*
X58887029Y-35388677D02*
X59734948Y-35239166D01*
X61783349Y-34877978D02*
X62631268Y-34728467D01*
X58916521Y-35342860D02*
X59728002Y-35199774D01*
X61776403Y-34838586D02*
X62587884Y-34695500D01*
X58946998Y-35296869D02*
X59721057Y-35160382D01*
X61769457Y-34799193D02*
X62543516Y-34662706D01*
X58980429Y-35250357D02*
X59714111Y-35120989D01*
X61762511Y-34759801D02*
X62496193Y-34630433D01*
X59014845Y-35203672D02*
X59707165Y-35081597D01*
X61755565Y-34720409D02*
X62447885Y-34598334D01*
X59051230Y-35156639D02*
X59700219Y-35042205D01*
X61748619Y-34681017D02*
X62397607Y-34566582D01*
X59089586Y-35109259D02*
X59693273Y-35002812D01*
X61741673Y-34641624D02*
X62345360Y-34535178D01*
X59129911Y-35061531D02*
X62291143Y-34504121D01*
X59173190Y-35013283D02*
X62233972Y-34473584D01*
X59219424Y-34964514D02*
X62173847Y-34443569D01*
X59268612Y-34915223D02*
X62110767Y-34414075D01*
X59320754Y-34865412D02*
X62044732Y-34385101D01*
X59376836Y-34814906D02*
X61974759Y-34356823D01*
X59436857Y-34763706D02*
X61900846Y-34329238D01*
X59501802Y-34711637D02*
X61822009Y-34302522D01*
X59573641Y-34658353D02*
X61736278Y-34277022D01*
X59652373Y-34603854D02*
X61643654Y-34252737D01*
X59739969Y-34547791D02*
X61542167Y-34230015D01*
X59841352Y-34489297D02*
X61426892Y-34209724D01*
X59960461Y-34427678D02*
X61293891Y-34192558D01*
X60110100Y-34360676D02*
X61130360Y-34180776D01*
X60333599Y-34280650D02*
X60892969Y-34182018D01*
X60040485Y-40208379D02*
X59953661Y-39715975D01*
X59750871Y-40005589D02*
X60243275Y-39918765D01*
X62082197Y-36572832D02*
X63598801Y-36305414D01*
X58524139Y-37240831D02*
X60040743Y-36973413D01*
X61971062Y-35942555D02*
X63400018Y-35690592D01*
X58497419Y-36513420D02*
X59915543Y-36263366D01*
X61963943Y-35902178D02*
X63382066Y-35652125D01*
X58502291Y-36471944D02*
X59908597Y-36223974D01*
X61956997Y-35862786D02*
X63363302Y-35614816D01*
X58508148Y-36430294D02*
X59901651Y-36184582D01*
X61950051Y-35823394D02*
X63343554Y-35577681D01*
X58514004Y-36388644D02*
X59894705Y-36145189D01*
X61943105Y-35784001D02*
X63323805Y-35540546D01*
X58520846Y-36346821D02*
X59887759Y-36105797D01*
X61936159Y-35744609D02*
X63303072Y-35503585D01*
X58527687Y-36304997D02*
X59880813Y-36066405D01*
X61929213Y-35705217D02*
X63282339Y-35466624D01*
X58536498Y-36262827D02*
X59873867Y-36027012D01*
X61922267Y-35665824D02*
X63259636Y-35430010D01*
X58545309Y-36220656D02*
X59866921Y-35987620D01*
X61915321Y-35626432D02*
X63236933Y-35393396D01*
X58555105Y-36178312D02*
X59859975Y-35948228D01*
X61908375Y-35587040D02*
X63213246Y-35356956D01*
X58564901Y-36135967D02*
X59853029Y-35908836D01*
X61901429Y-35547647D02*
X63189558Y-35320516D01*
X58576666Y-36093276D02*
X59846083Y-35869443D01*
X63964944Y-36792819D02*
G75*
G03X63964944Y-36792819I-2900001J0D01*
G01*
X42541120Y-80103944D02*
X43798333Y-72973936D01*
X45239494Y-80579740D02*
X46496706Y-73449732D01*
X42541120Y-80103944D02*
X45239494Y-80579740D01*
X43798333Y-72973936D02*
X46496706Y-73449732D01*
X60695699Y-74595483D02*
X59438487Y-67465475D01*
X63394073Y-74119687D02*
X62136860Y-66989679D01*
X60695699Y-74595483D02*
X63394073Y-74119687D01*
X59438487Y-67465475D02*
X62136860Y-66989679D01*
X57380086Y-55263320D02*
X60078459Y-55739116D01*
X56122873Y-62393328D02*
X58821247Y-62869124D01*
X58821247Y-62869124D02*
X60078459Y-55739116D01*
X56122873Y-62393328D02*
X57380086Y-55263320D01*
X59710176Y-76367780D02*
G75*
G03X59710176Y-76367780I-2899999J0D01*
G01*
X55301781Y-78466738D02*
X55525614Y-77197321D01*
X55926194Y-75155867D02*
X56153326Y-73867738D01*
X55337874Y-78492395D02*
X55565006Y-77204267D01*
X55965586Y-75162813D02*
X56195670Y-73857942D01*
X55374314Y-78516083D02*
X55604398Y-77211213D01*
X56004979Y-75169759D02*
X56238015Y-73848147D01*
X55410755Y-78539771D02*
X55643790Y-77218159D01*
X56044371Y-75176704D02*
X56280185Y-73839336D01*
X55447369Y-78562474D02*
X55683183Y-77225105D01*
X56083763Y-75183650D02*
X56322356Y-73830525D01*
X55483983Y-78585176D02*
X55722575Y-77232051D01*
X56123156Y-75190596D02*
X56364179Y-73823683D01*
X55520944Y-78605910D02*
X55761967Y-77238996D01*
X56162548Y-75197542D02*
X56406003Y-73816842D01*
X55557905Y-78626643D02*
X55801360Y-77245942D01*
X56201940Y-75204488D02*
X56447652Y-73810985D01*
X55595040Y-78646391D02*
X55840752Y-77252888D01*
X56241333Y-75211434D02*
X56489302Y-73805129D01*
X55632175Y-78666140D02*
X55880144Y-77259834D01*
X56280725Y-75218380D02*
X56530778Y-73800257D01*
X55669483Y-78684903D02*
X55919537Y-77266780D01*
X56321102Y-75225500D02*
X56573065Y-73796544D01*
X56362165Y-78908584D02*
X56629583Y-77391980D01*
X56951379Y-75336634D02*
X57218797Y-73820030D01*
X59379755Y-78701436D02*
X59466579Y-78209032D01*
X59669369Y-78498646D02*
X59176965Y-78411822D01*
X54199376Y-76195807D02*
X54298008Y-75636436D01*
X54198135Y-76433198D02*
X54378034Y-75412937D01*
X54209917Y-76596728D02*
X54445037Y-75263299D01*
X54227082Y-76729730D02*
X54506656Y-75144189D01*
X54247373Y-76845004D02*
X54565150Y-75042806D01*
X54270095Y-76946492D02*
X54621212Y-74955210D01*
X54294380Y-77039116D02*
X54675712Y-74876478D01*
X54319881Y-77124847D02*
X54728996Y-74804639D01*
X54346597Y-77203683D02*
X54781065Y-74739694D01*
X54374181Y-77277596D02*
X54832265Y-74679673D01*
X54402460Y-77347570D02*
X54882771Y-74623592D01*
X54431433Y-77413604D02*
X54932582Y-74571449D01*
X54460928Y-77476684D02*
X54981872Y-74522261D01*
X54490943Y-77536810D02*
X55030641Y-74476027D01*
X54521479Y-77593981D02*
X55078890Y-74432748D01*
X55020171Y-74996110D02*
X55126617Y-74392423D01*
X54552536Y-77648198D02*
X54658983Y-77044510D01*
X55059563Y-75003056D02*
X55173997Y-74354068D01*
X54583941Y-77700445D02*
X54698375Y-77051456D01*
X55098956Y-75010002D02*
X55221030Y-74317682D01*
X54615693Y-77750722D02*
X54737767Y-77058402D01*
X55138348Y-75016948D02*
X55267716Y-74283266D01*
X54647792Y-77799030D02*
X54777160Y-77065348D01*
X55177740Y-75023894D02*
X55314228Y-74249835D01*
X54680065Y-77846353D02*
X54816552Y-77072294D01*
X55217132Y-75030840D02*
X55360219Y-74219358D01*
X54712858Y-77890722D02*
X54855944Y-77079240D01*
X55256525Y-75037786D02*
X55406036Y-74189866D01*
X54745826Y-77934106D02*
X54895337Y-77086186D01*
X55295917Y-75044732D02*
X55451680Y-74161359D01*
X54778966Y-77976505D02*
X54934729Y-77093132D01*
X55335309Y-75051678D02*
X55496976Y-74134822D01*
X54812455Y-78016934D02*
X54974121Y-77100078D01*
X55374702Y-75058624D02*
X55542099Y-74109269D01*
X54846117Y-78056378D02*
X55013514Y-77107024D01*
X55707950Y-78702856D02*
X55959914Y-77273900D01*
X56360494Y-75232446D02*
X56614194Y-73793641D01*
X55745606Y-78719650D02*
X55999306Y-77280846D01*
X56399887Y-75239391D02*
X56655323Y-73790739D01*
X55783262Y-78736444D02*
X56038698Y-77287792D01*
X56439279Y-75246337D02*
X56696278Y-73788822D01*
X55821091Y-78752253D02*
X56078091Y-77294737D01*
X56478671Y-75253283D02*
X56737060Y-73787889D01*
X56990771Y-75343580D02*
X57258189Y-73826976D01*
X55414094Y-75065570D02*
X55586874Y-74085686D01*
X54880126Y-78093853D02*
X55052906Y-77113970D01*
X55453486Y-75072516D02*
X55631476Y-74063088D01*
X54914309Y-78130344D02*
X55092298Y-77120916D01*
X55492879Y-75079461D02*
X55676077Y-74040489D01*
X54948492Y-78166834D02*
X55131690Y-77127862D01*
X55532271Y-75086407D02*
X55720158Y-74020845D01*
X54983195Y-78200370D02*
X55171083Y-77134808D01*
X55571663Y-75093353D02*
X55764239Y-74001202D01*
X56911987Y-75329688D02*
X57179231Y-73814069D01*
X56283554Y-78893708D02*
X56550798Y-77378089D01*
X56322773Y-78901638D02*
X56590191Y-77385035D01*
X55017899Y-78233905D02*
X55210475Y-77141753D01*
X55611056Y-75100299D02*
X55808146Y-73982542D01*
X55052777Y-78266456D02*
X55249867Y-77148699D01*
X55650448Y-75107245D02*
X55851880Y-73964868D01*
X55087828Y-78298022D02*
X55289260Y-77155645D01*
X55689840Y-75114191D02*
X55895440Y-73948179D01*
X55123053Y-78328604D02*
X55328652Y-77162591D01*
X55729233Y-75121137D02*
X55938826Y-73932474D01*
X55158451Y-78358200D02*
X55368044Y-77169537D01*
X55768625Y-75128083D02*
X55981865Y-73918739D01*
X55194197Y-78385827D02*
X55407437Y-77176483D01*
X55808017Y-75135029D02*
X56025077Y-73904019D01*
X55229769Y-78414439D02*
X55446829Y-77183429D01*
X55847409Y-75141975D02*
X56067943Y-73891269D01*
X55265688Y-78441081D02*
X55486221Y-77190375D01*
X55886802Y-75148921D02*
X56110634Y-73879504D01*
X55859095Y-78767077D02*
X56117483Y-77301683D01*
X56518064Y-75260229D02*
X56777841Y-73786957D01*
X55897098Y-78781902D02*
X56156875Y-77308629D01*
X56557456Y-75267175D02*
X56818449Y-73787009D01*
X55935274Y-78795741D02*
X56196268Y-77315575D01*
X56596848Y-75274121D02*
X56859057Y-73787061D01*
X55973451Y-78809581D02*
X56235660Y-77322521D01*
X56636240Y-75281067D02*
X56899491Y-73788098D01*
X56011802Y-78822436D02*
X56275052Y-77329467D01*
X56675633Y-75288013D02*
X56939752Y-73790120D01*
X56050326Y-78834306D02*
X56314445Y-77336413D01*
X56715025Y-75294959D02*
X56979839Y-73793127D01*
X56089023Y-78845191D02*
X56353837Y-77343359D01*
X56754417Y-75301905D02*
X57019925Y-73796134D01*
X56127721Y-78856076D02*
X56393229Y-77350305D01*
X56793810Y-75308851D02*
X57060012Y-73799140D01*
X56166419Y-78866961D02*
X56432621Y-77357251D01*
X56833202Y-75315797D02*
X57099926Y-73803132D01*
X56205290Y-78876861D02*
X56472014Y-77364197D01*
X56872594Y-75322743D02*
X57139665Y-73808108D01*
X56244335Y-78885777D02*
X56511406Y-77371143D01*
X50415543Y-70197526D02*
G75*
G03X50415543Y-70197526I-2900001J0D01*
G01*
X48215085Y-67709249D02*
X48438918Y-68978666D01*
X48760714Y-71034012D02*
X48987845Y-72322141D01*
X48172394Y-67697484D02*
X48399525Y-68985612D01*
X48721321Y-71040958D02*
X48951405Y-72345829D01*
X48130049Y-67687688D02*
X48360133Y-68992558D01*
X48681929Y-71047904D02*
X48914965Y-72369516D01*
X48087705Y-67677892D02*
X48320741Y-68999504D01*
X48642537Y-71054850D02*
X48878351Y-72392219D01*
X48045534Y-67669081D02*
X48281349Y-69006450D01*
X48603144Y-71061796D02*
X48841737Y-72414922D01*
X48003364Y-67660270D02*
X48241956Y-69013396D01*
X48563752Y-71068742D02*
X48804776Y-72435655D01*
X47961540Y-67653429D02*
X48202564Y-69020342D01*
X48524360Y-71075688D02*
X48767815Y-72456388D01*
X47919717Y-67646587D02*
X48163172Y-69027288D01*
X48484967Y-71082634D02*
X48730680Y-72476137D01*
X47878067Y-67640731D02*
X48123779Y-69034234D01*
X48445575Y-71089580D02*
X48693545Y-72495885D01*
X47836417Y-67634874D02*
X48084387Y-69041180D01*
X48406183Y-71096526D02*
X48656236Y-72514649D01*
X47794941Y-67630002D02*
X48044995Y-69048126D01*
X48365806Y-71103645D02*
X48617769Y-72532601D01*
X47067530Y-67656722D02*
X47334948Y-69173326D01*
X47735529Y-71214780D02*
X48002947Y-72731384D01*
X44302772Y-68883454D02*
X44389596Y-69375858D01*
X44099982Y-69173068D02*
X44592386Y-69086244D01*
X50027711Y-69466182D02*
X50126343Y-70025552D01*
X49947685Y-69242683D02*
X50127585Y-70262943D01*
X49880683Y-69093044D02*
X50115803Y-70426474D01*
X49819064Y-68973935D02*
X50098637Y-70559475D01*
X49760570Y-68872552D02*
X50078346Y-70674750D01*
X49704507Y-68784956D02*
X50055624Y-70776237D01*
X49650008Y-68706224D02*
X50031339Y-70868861D01*
X49596724Y-68634385D02*
X50005839Y-70954592D01*
X49544655Y-68569440D02*
X49979123Y-71033429D01*
X49493455Y-68509419D02*
X49951538Y-71107342D01*
X49442949Y-68453337D02*
X49923260Y-71177315D01*
X49393138Y-68401195D02*
X49894286Y-71243350D01*
X49343847Y-68352007D02*
X49864792Y-71306430D01*
X49295078Y-68305773D02*
X49834777Y-71366555D01*
X49246830Y-68262494D02*
X49804240Y-71423726D01*
X49666737Y-70874256D02*
X49773183Y-71477943D01*
X49199102Y-68222169D02*
X49305549Y-68825856D01*
X49627344Y-70881202D02*
X49741779Y-71530190D01*
X49151722Y-68183813D02*
X49266156Y-68832802D01*
X49587952Y-70888148D02*
X49710027Y-71580468D01*
X49104689Y-68147428D02*
X49226764Y-68839748D01*
X49548560Y-70895094D02*
X49677928Y-71628776D01*
X49058004Y-68113012D02*
X49187372Y-68846694D01*
X49509168Y-70902040D02*
X49645655Y-71676099D01*
X49011492Y-68079581D02*
X49147979Y-68853640D01*
X49469775Y-70908986D02*
X49612861Y-71720467D01*
X48965501Y-68049104D02*
X49108587Y-68860585D01*
X49430383Y-70915932D02*
X49579894Y-71763851D01*
X48919684Y-68019612D02*
X49069195Y-68867531D01*
X49390991Y-70922877D02*
X49546753Y-71806250D01*
X48874040Y-67991105D02*
X49029802Y-68874477D01*
X49351598Y-70929823D02*
X49513265Y-71846679D01*
X48828744Y-67964567D02*
X48990410Y-68881423D01*
X49312206Y-70936769D02*
X49479603Y-71886124D01*
X48783621Y-67939015D02*
X48951018Y-68888369D01*
X47752654Y-67626289D02*
X48004618Y-69055245D01*
X48326413Y-71110591D02*
X48580113Y-72549395D01*
X47711525Y-67623387D02*
X47965225Y-69062191D01*
X48287021Y-71117537D02*
X48542458Y-72566189D01*
X47670396Y-67620485D02*
X47925833Y-69069137D01*
X48247629Y-71124483D02*
X48504628Y-72581998D01*
X47629441Y-67618567D02*
X47886441Y-69076083D01*
X48208237Y-71131429D02*
X48466625Y-72596823D01*
X47696136Y-71221726D02*
X47963555Y-72738330D01*
X49272814Y-70943715D02*
X49445594Y-71923599D01*
X48738846Y-67915431D02*
X48911625Y-68895315D01*
X49233421Y-70950661D02*
X49411411Y-71960089D01*
X48694244Y-67892833D02*
X48872233Y-68902261D01*
X49194029Y-70957607D02*
X49377228Y-71996579D01*
X48649642Y-67870235D02*
X48832841Y-68909207D01*
X49154637Y-70964553D02*
X49342524Y-72030115D01*
X48605561Y-67850591D02*
X48793449Y-68916153D01*
X49115244Y-70971499D02*
X49307820Y-72063651D01*
X47774921Y-71207834D02*
X48042166Y-72723453D01*
X47146488Y-67643815D02*
X47413733Y-69159434D01*
X47106922Y-67649776D02*
X47374341Y-69166380D01*
X48561480Y-67830947D02*
X48754056Y-68923099D01*
X49075852Y-70978445D02*
X49272943Y-72096202D01*
X48517573Y-67812288D02*
X48714664Y-68930045D01*
X49036460Y-70985391D02*
X49237892Y-72127768D01*
X48473840Y-67794614D02*
X48675272Y-68936991D01*
X48997068Y-70992337D02*
X49202667Y-72158349D01*
X48430280Y-67777924D02*
X48635879Y-68943937D01*
X48957675Y-70999283D02*
X49167269Y-72187946D01*
X48386894Y-67762220D02*
X48596487Y-68950883D01*
X48918283Y-71006229D02*
X49131523Y-72215573D01*
X48343855Y-67748485D02*
X48557095Y-68957828D01*
X48878891Y-71013175D02*
X49095951Y-72244184D01*
X48300642Y-67733765D02*
X48517702Y-68964774D01*
X48839498Y-71020120D02*
X49060031Y-72270826D01*
X48257777Y-67721014D02*
X48478310Y-68971720D01*
X48800106Y-71027066D02*
X49023938Y-72296484D01*
X47588660Y-67617635D02*
X47847048Y-69083029D01*
X48168844Y-71138375D02*
X48428622Y-72611647D01*
X47547878Y-67616702D02*
X47807656Y-69089975D01*
X48129452Y-71145321D02*
X48390445Y-72625487D01*
X47507270Y-67616755D02*
X47768264Y-69096921D01*
X48090060Y-71152267D02*
X48352268Y-72639326D01*
X47466663Y-67616807D02*
X47728871Y-69103867D01*
X48050667Y-71159213D02*
X48313918Y-72652181D01*
X47426228Y-67617844D02*
X47689479Y-69110813D01*
X48011275Y-71166159D02*
X48275394Y-72664051D01*
X47385968Y-67619866D02*
X47650087Y-69117758D01*
X47971883Y-71173104D02*
X48236696Y-72674936D01*
X47345881Y-67622873D02*
X47610694Y-69124704D01*
X47932490Y-71180050D02*
X48197998Y-72685821D01*
X47305794Y-67625879D02*
X47571302Y-69131650D01*
X47893098Y-71186996D02*
X48159301Y-72696707D01*
X47265707Y-67628886D02*
X47531910Y-69138596D01*
X47853706Y-71193942D02*
X48120429Y-72706607D01*
X47225794Y-67632877D02*
X47492518Y-69145542D01*
X47814313Y-71200888D02*
X48081384Y-72715523D01*
X47186054Y-67637854D02*
X47453125Y-69152488D01*
X33577747Y-74920475D02*
X34103774Y-73475228D01*
X34815176Y-71520667D02*
X35341203Y-70075420D01*
X33540844Y-74904915D02*
X34066187Y-73461547D01*
X34777589Y-71506986D02*
X35302932Y-70063618D01*
X33504282Y-74888415D02*
X34028599Y-73447866D01*
X34740001Y-71493306D02*
X35264318Y-70052757D01*
X33468063Y-74870975D02*
X33991011Y-73434185D01*
X34702413Y-71479625D02*
X35225362Y-70042835D01*
X33431843Y-74853536D02*
X33953424Y-73420505D01*
X34664826Y-71465944D02*
X35186406Y-70032913D01*
X33395623Y-74836096D02*
X33915836Y-73406824D01*
X34627238Y-71452263D02*
X35147450Y-70022991D01*
X33359746Y-74817717D02*
X33878248Y-73393143D01*
X34589650Y-71438582D02*
X35108153Y-70014008D01*
X33324210Y-74798398D02*
X33840661Y-73379462D01*
X34552062Y-71424901D02*
X35068513Y-70005966D01*
X33289017Y-74778139D02*
X33803073Y-73365781D01*
X34514475Y-71411221D02*
X35028531Y-69998863D01*
X33253823Y-74757881D02*
X33765485Y-73352101D01*
X34476887Y-71397540D02*
X34988549Y-69991760D01*
X33218971Y-74736682D02*
X33727897Y-73338420D01*
X33874544Y-71178305D02*
X34315408Y-69967041D01*
X32691189Y-74312594D02*
X33125554Y-73119185D01*
X33836956Y-71164624D02*
X34271322Y-69971215D01*
X32660442Y-74280120D02*
X33087967Y-73105504D01*
X33799369Y-71150943D02*
X34226894Y-69976328D01*
X32630378Y-74245766D02*
X33050379Y-73091823D01*
X33761781Y-71137263D02*
X34181782Y-69983320D01*
X32599973Y-74212351D02*
X33012791Y-73078142D01*
X33724193Y-71123582D02*
X34137012Y-69989373D01*
X32570252Y-74177058D02*
X32975204Y-73064462D01*
X33686606Y-71109901D02*
X34091557Y-69997305D01*
X32540873Y-74140824D02*
X32937616Y-73050781D01*
X33649018Y-71096220D02*
X34045761Y-70006177D01*
X32511835Y-74103651D02*
X32900028Y-73037100D01*
X33611430Y-71082539D02*
X33999623Y-70015988D01*
X32483140Y-74065538D02*
X32862441Y-73023419D01*
X33652239Y-74949716D02*
X34178950Y-73502589D01*
X33614993Y-74935096D02*
X34141362Y-73488909D01*
X34852764Y-71534348D02*
X35379133Y-70088161D01*
X33573842Y-71068859D02*
X33953143Y-70026739D01*
X32454787Y-74026486D02*
X32824853Y-73009738D01*
X33536255Y-71055178D02*
X33906320Y-70038430D01*
X32426434Y-73987433D02*
X32787265Y-72996058D01*
X33498667Y-71041497D02*
X33859498Y-70050121D01*
X32399107Y-73945562D02*
X32749677Y-72982377D01*
X33461079Y-71027816D02*
X33811650Y-70064631D01*
X32371780Y-73903690D02*
X32712090Y-72968696D01*
X33423492Y-71014135D02*
X33763802Y-70079141D01*
X34927939Y-71561710D02*
X35454650Y-70114583D01*
X34439299Y-71383859D02*
X34948225Y-69985596D01*
X33184120Y-74715484D02*
X33690310Y-73324739D01*
X34401712Y-71370178D02*
X34907901Y-69979433D01*
X33149610Y-74693346D02*
X33652722Y-73311058D01*
X34364124Y-71356497D02*
X34867236Y-69974210D01*
X33115443Y-74670268D02*
X33615134Y-73297377D01*
X34326536Y-71342817D02*
X34826228Y-69969926D01*
X33081275Y-74647191D02*
X33577547Y-73283697D01*
X32344795Y-73860879D02*
X32674502Y-72955015D01*
X33385904Y-71000454D02*
X33715611Y-70094591D01*
X32318494Y-73816188D02*
X32636914Y-72941334D01*
X33348316Y-70986774D02*
X33666737Y-70111920D01*
X32292534Y-73770558D02*
X32599327Y-72927654D01*
X33310728Y-70973093D02*
X33617521Y-70130189D01*
X32267260Y-73723048D02*
X32561739Y-72913973D01*
X33273141Y-70959412D02*
X33567620Y-70150337D01*
X32242327Y-73674599D02*
X32524151Y-72900292D01*
X33235553Y-70945731D02*
X33517378Y-70171425D01*
X32217736Y-73625210D02*
X32486563Y-72886611D01*
X33197965Y-70932050D02*
X33466793Y-70193452D01*
X32194171Y-73573001D02*
X32448976Y-72872930D01*
X33160378Y-70918370D02*
X33415183Y-70218299D01*
X32170948Y-73519853D02*
X32411388Y-72859250D01*
X33122790Y-70904689D02*
X33363230Y-70244085D01*
X32148409Y-73464826D02*
X32373800Y-72845569D01*
X33085202Y-70891008D02*
X33310594Y-70271751D01*
X32126554Y-73407919D02*
X32336213Y-72831888D01*
X33047615Y-70877327D02*
X33257273Y-70301296D01*
X32105384Y-73349133D02*
X33203268Y-70332720D01*
X32085239Y-73287528D02*
X33148237Y-70366964D01*
X32066120Y-73223104D02*
X33092181Y-70404026D01*
X32048028Y-73155861D02*
X33035098Y-70443908D01*
X32030961Y-73085798D02*
X32976989Y-70486609D01*
X32015263Y-73011977D02*
X32917512Y-70533068D01*
X32000932Y-72934397D02*
X32856667Y-70583286D01*
X31988312Y-72852119D02*
X32794112Y-70638203D01*
X31978086Y-72763263D02*
X32729162Y-70699698D01*
X31970254Y-72667829D02*
X32661819Y-70767770D01*
X31965500Y-72563937D02*
X32591397Y-70844300D01*
X31965535Y-72446890D02*
X32516187Y-70933985D01*
X31971726Y-72312929D02*
X32434821Y-71040585D01*
X31988519Y-72149837D02*
X32342852Y-71176316D01*
X32030964Y-71916268D02*
X32225232Y-71382523D01*
X37017972Y-75133977D02*
X36548125Y-74962967D01*
X36697543Y-75283395D02*
X36868553Y-74813548D01*
X34890352Y-71548029D02*
X35417063Y-70100902D01*
X33689827Y-74963397D02*
X34216538Y-73516270D01*
X34288948Y-71329136D02*
X34785220Y-69965642D01*
X33046510Y-74622831D02*
X33539019Y-73269674D01*
X34250421Y-71315113D02*
X34742930Y-69961956D01*
X33013027Y-74597874D02*
X33501431Y-73255993D01*
X34212833Y-71301432D02*
X34701238Y-69959551D01*
X32979885Y-74571977D02*
X33463844Y-73242312D01*
X34175246Y-71287751D02*
X34659204Y-69958086D01*
X32946744Y-74546080D02*
X33426256Y-73228631D01*
X34137658Y-71274071D02*
X34617170Y-69956622D01*
X32913944Y-74519244D02*
X33388668Y-73214950D01*
X34100070Y-71260390D02*
X34574794Y-69956096D01*
X32881145Y-74492407D02*
X33351081Y-73201270D01*
X34062483Y-71246709D02*
X34532418Y-69955571D01*
X32849030Y-74463691D02*
X33313493Y-73187589D01*
X34024895Y-71233028D02*
X34489358Y-69956926D01*
X32816914Y-74434976D02*
X33275905Y-73173908D01*
X33987307Y-71219347D02*
X34446298Y-69958280D01*
X32785141Y-74405320D02*
X33238318Y-73160227D01*
X33949719Y-71205667D02*
X34402896Y-69960574D01*
X32753367Y-74375664D02*
X33200730Y-73146546D01*
X33912132Y-71191986D02*
X34359494Y-69962868D01*
X32722278Y-74344129D02*
X33163142Y-73132866D01*
X37472240Y-72538990D02*
G75*
G03X37472240Y-72538990I-2900001J0D01*
G01*
X32165873Y-67553827D02*
G75*
G03X32165873Y-67553827I-2900000J0D01*
G01*
X30386873Y-65224827D02*
X30386873Y-66513827D01*
X30346873Y-68593827D02*
X30346873Y-69901827D01*
X30346873Y-65205827D02*
X30346873Y-66513827D01*
X30306873Y-68593827D02*
X30306873Y-69918827D01*
X30306873Y-65188827D02*
X30306873Y-66513827D01*
X30266873Y-68593827D02*
X30266873Y-69935827D01*
X30266873Y-65171827D02*
X30266873Y-66513827D01*
X30226873Y-68593827D02*
X30226873Y-69951827D01*
X30226873Y-65155827D02*
X30226873Y-66513827D01*
X30186873Y-68593827D02*
X30186873Y-69967827D01*
X30186873Y-65139827D02*
X30186873Y-66513827D01*
X30146873Y-68593827D02*
X30146873Y-69981827D01*
X30146873Y-65125827D02*
X30146873Y-66513827D01*
X30106873Y-68593827D02*
X30106873Y-69995827D01*
X30106873Y-65111827D02*
X30106873Y-66513827D01*
X30066873Y-68593827D02*
X30066873Y-70008827D01*
X30066873Y-65098827D02*
X30066873Y-66513827D01*
X30026873Y-68593827D02*
X30026873Y-70021827D01*
X30026873Y-65085827D02*
X30026873Y-66513827D01*
X29986873Y-68593827D02*
X29986873Y-70033827D01*
X29986873Y-65073827D02*
X29986873Y-66513827D01*
X29945873Y-68593827D02*
X29945873Y-70044827D01*
X29265873Y-64973827D02*
X29265873Y-66513827D01*
X29305873Y-68593827D02*
X29305873Y-70133827D01*
X26330098Y-65701827D02*
X26330098Y-66201827D01*
X26080098Y-65951827D02*
X26580098Y-65951827D01*
X31866873Y-67269827D02*
X31866873Y-67837827D01*
X31826873Y-67035827D02*
X31826873Y-68071827D01*
X31786873Y-66876827D02*
X31786873Y-68230827D01*
X31746873Y-66748827D02*
X31746873Y-68358827D01*
X31706873Y-66638827D02*
X31706873Y-68468827D01*
X31666873Y-66542827D02*
X31666873Y-68564827D01*
X31626873Y-66455827D02*
X31626873Y-68651827D01*
X31586873Y-66375827D02*
X31586873Y-68731827D01*
X31546873Y-66302827D02*
X31546873Y-68804827D01*
X31506873Y-66234827D02*
X31506873Y-68872827D01*
X31466873Y-66170827D02*
X31466873Y-68936827D01*
X31426873Y-66110827D02*
X31426873Y-68996827D01*
X31386873Y-66053827D02*
X31386873Y-69053827D01*
X31346873Y-65999827D02*
X31346873Y-69107827D01*
X31306873Y-65948827D02*
X31306873Y-69158827D01*
X31266873Y-68593827D02*
X31266873Y-69206827D01*
X31266873Y-65900827D02*
X31266873Y-66513827D01*
X31226873Y-68593827D02*
X31226873Y-69252827D01*
X31226873Y-65854827D02*
X31226873Y-66513827D01*
X31186873Y-68593827D02*
X31186873Y-69296827D01*
X31186873Y-65810827D02*
X31186873Y-66513827D01*
X31146873Y-68593827D02*
X31146873Y-69338827D01*
X31146873Y-65768827D02*
X31146873Y-66513827D01*
X31106873Y-68593827D02*
X31106873Y-69379827D01*
X31106873Y-65727827D02*
X31106873Y-66513827D01*
X31066873Y-68593827D02*
X31066873Y-69417827D01*
X31066873Y-65689827D02*
X31066873Y-66513827D01*
X31026873Y-68593827D02*
X31026873Y-69454827D01*
X31026873Y-65652827D02*
X31026873Y-66513827D01*
X30986873Y-68593827D02*
X30986873Y-69490827D01*
X30986873Y-65616827D02*
X30986873Y-66513827D01*
X30946873Y-68593827D02*
X30946873Y-69524827D01*
X30946873Y-65582827D02*
X30946873Y-66513827D01*
X30906873Y-68593827D02*
X30906873Y-69557827D01*
X30906873Y-65549827D02*
X30906873Y-66513827D01*
X29945873Y-65062827D02*
X29945873Y-66513827D01*
X29905873Y-68593827D02*
X29905873Y-70054827D01*
X29905873Y-65052827D02*
X29905873Y-66513827D01*
X29865873Y-68593827D02*
X29865873Y-70064827D01*
X29865873Y-65042827D02*
X29865873Y-66513827D01*
X29825873Y-68593827D02*
X29825873Y-70073827D01*
X29825873Y-65033827D02*
X29825873Y-66513827D01*
X29785873Y-68593827D02*
X29785873Y-70081827D01*
X29265873Y-68593827D02*
X29265873Y-70133827D01*
X30866873Y-68593827D02*
X30866873Y-69588827D01*
X30866873Y-65518827D02*
X30866873Y-66513827D01*
X30826873Y-68593827D02*
X30826873Y-69618827D01*
X30826873Y-65488827D02*
X30826873Y-66513827D01*
X30786873Y-68593827D02*
X30786873Y-69648827D01*
X30786873Y-65458827D02*
X30786873Y-66513827D01*
X30746873Y-68593827D02*
X30746873Y-69675827D01*
X30746873Y-65431827D02*
X30746873Y-66513827D01*
X30706873Y-68593827D02*
X30706873Y-69702827D01*
X29345873Y-68593827D02*
X29345873Y-70132827D01*
X29345873Y-64974827D02*
X29345873Y-66513827D01*
X29305873Y-64973827D02*
X29305873Y-66513827D01*
X30706873Y-65404827D02*
X30706873Y-66513827D01*
X30666873Y-68593827D02*
X30666873Y-69728827D01*
X30666873Y-65378827D02*
X30666873Y-66513827D01*
X30626873Y-68593827D02*
X30626873Y-69753827D01*
X30626873Y-65353827D02*
X30626873Y-66513827D01*
X30586873Y-68593827D02*
X30586873Y-69777827D01*
X30586873Y-65329827D02*
X30586873Y-66513827D01*
X30546873Y-68593827D02*
X30546873Y-69800827D01*
X30546873Y-65306827D02*
X30546873Y-66513827D01*
X30506873Y-68593827D02*
X30506873Y-69821827D01*
X30506873Y-65285827D02*
X30506873Y-66513827D01*
X30466873Y-68593827D02*
X30466873Y-69843827D01*
X30466873Y-65263827D02*
X30466873Y-66513827D01*
X30426873Y-68593827D02*
X30426873Y-69863827D01*
X30426873Y-65243827D02*
X30426873Y-66513827D01*
X30386873Y-68593827D02*
X30386873Y-69882827D01*
X29785873Y-65025827D02*
X29785873Y-66513827D01*
X29745873Y-68593827D02*
X29745873Y-70089827D01*
X29745873Y-65017827D02*
X29745873Y-66513827D01*
X29705873Y-68593827D02*
X29705873Y-70096827D01*
X29705873Y-65010827D02*
X29705873Y-66513827D01*
X29665873Y-68593827D02*
X29665873Y-70103827D01*
X29665873Y-65003827D02*
X29665873Y-66513827D01*
X29625873Y-68593827D02*
X29625873Y-70109827D01*
X29625873Y-64997827D02*
X29625873Y-66513827D01*
X29585873Y-68593827D02*
X29585873Y-70114827D01*
X29585873Y-64992827D02*
X29585873Y-66513827D01*
X29545873Y-68593827D02*
X29545873Y-70118827D01*
X29545873Y-64988827D02*
X29545873Y-66513827D01*
X29505873Y-68593827D02*
X29505873Y-70122827D01*
X29505873Y-64984827D02*
X29505873Y-66513827D01*
X29465873Y-68593827D02*
X29465873Y-70126827D01*
X29465873Y-64980827D02*
X29465873Y-66513827D01*
X29425873Y-68593827D02*
X29425873Y-70129827D01*
X29425873Y-64977827D02*
X29425873Y-66513827D01*
X29385873Y-68593827D02*
X29385873Y-70131827D01*
X29385873Y-64975827D02*
X29385873Y-66513827D01*
X18380000Y-38780000D02*
X21120000Y-38780000D01*
X18380000Y-46020000D02*
X21120000Y-46020000D01*
X21120000Y-46020000D02*
X21120000Y-38780000D01*
X18380000Y-46020000D02*
X18380000Y-38780000D01*
X16229559Y-44361411D02*
X20883341Y-49907573D01*
X14130597Y-46122649D02*
X18784379Y-51668811D01*
X16229559Y-44361411D02*
X14130597Y-46122649D01*
X20883341Y-49907573D02*
X18784379Y-51668811D01*
X35166500Y-18387200D02*
G75*
G03X35166500Y-18387200I-2900000J0D01*
G01*
X33387500Y-16058200D02*
X33387500Y-17347200D01*
X33347500Y-19427200D02*
X33347500Y-20735200D01*
X33347500Y-16039200D02*
X33347500Y-17347200D01*
X33307500Y-19427200D02*
X33307500Y-20752200D01*
X33307500Y-16022200D02*
X33307500Y-17347200D01*
X33267500Y-19427200D02*
X33267500Y-20769200D01*
X33267500Y-16005200D02*
X33267500Y-17347200D01*
X33227500Y-19427200D02*
X33227500Y-20785200D01*
X33227500Y-15989200D02*
X33227500Y-17347200D01*
X33187500Y-19427200D02*
X33187500Y-20801200D01*
X33187500Y-15973200D02*
X33187500Y-17347200D01*
X33147500Y-19427200D02*
X33147500Y-20815200D01*
X33147500Y-15959200D02*
X33147500Y-17347200D01*
X33107500Y-19427200D02*
X33107500Y-20829200D01*
X33107500Y-15945200D02*
X33107500Y-17347200D01*
X33067500Y-19427200D02*
X33067500Y-20842200D01*
X33067500Y-15932200D02*
X33067500Y-17347200D01*
X33027500Y-19427200D02*
X33027500Y-20855200D01*
X33027500Y-15919200D02*
X33027500Y-17347200D01*
X32987500Y-19427200D02*
X32987500Y-20867200D01*
X32987500Y-15907200D02*
X32987500Y-17347200D01*
X32946500Y-19427200D02*
X32946500Y-20878200D01*
X32266500Y-15807200D02*
X32266500Y-17347200D01*
X32306500Y-19427200D02*
X32306500Y-20967200D01*
X29330725Y-16535200D02*
X29330725Y-17035200D01*
X29080725Y-16785200D02*
X29580725Y-16785200D01*
X34867500Y-18103200D02*
X34867500Y-18671200D01*
X34827500Y-17869200D02*
X34827500Y-18905200D01*
X34787500Y-17710200D02*
X34787500Y-19064200D01*
X34747500Y-17582200D02*
X34747500Y-19192200D01*
X34707500Y-17472200D02*
X34707500Y-19302200D01*
X34667500Y-17376200D02*
X34667500Y-19398200D01*
X34627500Y-17289200D02*
X34627500Y-19485200D01*
X34587500Y-17209200D02*
X34587500Y-19565200D01*
X34547500Y-17136200D02*
X34547500Y-19638200D01*
X34507500Y-17068200D02*
X34507500Y-19706200D01*
X34467500Y-17004200D02*
X34467500Y-19770200D01*
X34427500Y-16944200D02*
X34427500Y-19830200D01*
X34387500Y-16887200D02*
X34387500Y-19887200D01*
X34347500Y-16833200D02*
X34347500Y-19941200D01*
X34307500Y-16782200D02*
X34307500Y-19992200D01*
X34267500Y-19427200D02*
X34267500Y-20040200D01*
X34267500Y-16734200D02*
X34267500Y-17347200D01*
X34227500Y-19427200D02*
X34227500Y-20086200D01*
X34227500Y-16688200D02*
X34227500Y-17347200D01*
X34187500Y-19427200D02*
X34187500Y-20130200D01*
X34187500Y-16644200D02*
X34187500Y-17347200D01*
X34147500Y-19427200D02*
X34147500Y-20172200D01*
X34147500Y-16602200D02*
X34147500Y-17347200D01*
X34107500Y-19427200D02*
X34107500Y-20213200D01*
X34107500Y-16561200D02*
X34107500Y-17347200D01*
X34067500Y-19427200D02*
X34067500Y-20251200D01*
X34067500Y-16523200D02*
X34067500Y-17347200D01*
X34027500Y-19427200D02*
X34027500Y-20288200D01*
X34027500Y-16486200D02*
X34027500Y-17347200D01*
X33987500Y-19427200D02*
X33987500Y-20324200D01*
X33987500Y-16450200D02*
X33987500Y-17347200D01*
X33947500Y-19427200D02*
X33947500Y-20358200D01*
X33947500Y-16416200D02*
X33947500Y-17347200D01*
X33907500Y-19427200D02*
X33907500Y-20391200D01*
X33907500Y-16383200D02*
X33907500Y-17347200D01*
X32946500Y-15896200D02*
X32946500Y-17347200D01*
X32906500Y-19427200D02*
X32906500Y-20888200D01*
X32906500Y-15886200D02*
X32906500Y-17347200D01*
X32866500Y-19427200D02*
X32866500Y-20898200D01*
X32866500Y-15876200D02*
X32866500Y-17347200D01*
X32826500Y-19427200D02*
X32826500Y-20907200D01*
X32826500Y-15867200D02*
X32826500Y-17347200D01*
X32786500Y-19427200D02*
X32786500Y-20915200D01*
X32266500Y-19427200D02*
X32266500Y-20967200D01*
X33867500Y-19427200D02*
X33867500Y-20422200D01*
X33867500Y-16352200D02*
X33867500Y-17347200D01*
X33827500Y-19427200D02*
X33827500Y-20452200D01*
X33827500Y-16322200D02*
X33827500Y-17347200D01*
X33787500Y-19427200D02*
X33787500Y-20482200D01*
X33787500Y-16292200D02*
X33787500Y-17347200D01*
X33747500Y-19427200D02*
X33747500Y-20509200D01*
X33747500Y-16265200D02*
X33747500Y-17347200D01*
X33707500Y-19427200D02*
X33707500Y-20536200D01*
X32346500Y-19427200D02*
X32346500Y-20966200D01*
X32346500Y-15808200D02*
X32346500Y-17347200D01*
X32306500Y-15807200D02*
X32306500Y-17347200D01*
X33707500Y-16238200D02*
X33707500Y-17347200D01*
X33667500Y-19427200D02*
X33667500Y-20562200D01*
X33667500Y-16212200D02*
X33667500Y-17347200D01*
X33627500Y-19427200D02*
X33627500Y-20587200D01*
X33627500Y-16187200D02*
X33627500Y-17347200D01*
X33587500Y-19427200D02*
X33587500Y-20611200D01*
X33587500Y-16163200D02*
X33587500Y-17347200D01*
X33547500Y-19427200D02*
X33547500Y-20634200D01*
X33547500Y-16140200D02*
X33547500Y-17347200D01*
X33507500Y-19427200D02*
X33507500Y-20655200D01*
X33507500Y-16119200D02*
X33507500Y-17347200D01*
X33467500Y-19427200D02*
X33467500Y-20677200D01*
X33467500Y-16097200D02*
X33467500Y-17347200D01*
X33427500Y-19427200D02*
X33427500Y-20697200D01*
X33427500Y-16077200D02*
X33427500Y-17347200D01*
X33387500Y-19427200D02*
X33387500Y-20716200D01*
X32786500Y-15859200D02*
X32786500Y-17347200D01*
X32746500Y-19427200D02*
X32746500Y-20923200D01*
X32746500Y-15851200D02*
X32746500Y-17347200D01*
X32706500Y-19427200D02*
X32706500Y-20930200D01*
X32706500Y-15844200D02*
X32706500Y-17347200D01*
X32666500Y-19427200D02*
X32666500Y-20937200D01*
X32666500Y-15837200D02*
X32666500Y-17347200D01*
X32626500Y-19427200D02*
X32626500Y-20943200D01*
X32626500Y-15831200D02*
X32626500Y-17347200D01*
X32586500Y-19427200D02*
X32586500Y-20948200D01*
X32586500Y-15826200D02*
X32586500Y-17347200D01*
X32546500Y-19427200D02*
X32546500Y-20952200D01*
X32546500Y-15822200D02*
X32546500Y-17347200D01*
X32506500Y-19427200D02*
X32506500Y-20956200D01*
X32506500Y-15818200D02*
X32506500Y-17347200D01*
X32466500Y-19427200D02*
X32466500Y-20960200D01*
X32466500Y-15814200D02*
X32466500Y-17347200D01*
X32426500Y-19427200D02*
X32426500Y-20963200D01*
X32426500Y-15811200D02*
X32426500Y-17347200D01*
X32386500Y-19427200D02*
X32386500Y-20965200D01*
X32386500Y-15809200D02*
X32386500Y-17347200D01*
X26493269Y-36760504D02*
X25161322Y-35991504D01*
X23359989Y-34951504D02*
X22028042Y-34182504D01*
X26471537Y-36794145D02*
X25141322Y-36026145D01*
X23339989Y-34986145D02*
X22009774Y-34218145D01*
X26448939Y-36827286D02*
X25121322Y-36060786D01*
X23319989Y-35020786D02*
X21992372Y-34254286D01*
X26425475Y-36859927D02*
X25101322Y-36095427D01*
X23299989Y-35055427D02*
X21975836Y-34290927D01*
X26402011Y-36892568D02*
X25081322Y-36130068D01*
X23279989Y-35090068D02*
X21959300Y-34327568D01*
X26378547Y-36925209D02*
X25061322Y-36164709D01*
X23259989Y-35124709D02*
X21942764Y-34364209D01*
X26354216Y-36957350D02*
X25041322Y-36199350D01*
X23239989Y-35159350D02*
X21927095Y-34401350D01*
X26329020Y-36988991D02*
X25021322Y-36233991D01*
X23219989Y-35193991D02*
X21912291Y-34438991D01*
X26302958Y-37020132D02*
X25001322Y-36268632D01*
X23199989Y-35228632D02*
X21898353Y-34477132D01*
X26276896Y-37051273D02*
X24981322Y-36303273D01*
X23179989Y-35263273D02*
X21884415Y-34515273D01*
X26249968Y-37081914D02*
X24961322Y-36337914D01*
X22859489Y-35818395D02*
X21743182Y-35173895D01*
X25740674Y-37528036D02*
X24640822Y-36893036D01*
X22839489Y-35853036D02*
X21739637Y-35218036D01*
X25703354Y-37552677D02*
X24620822Y-36927677D01*
X22819489Y-35887677D02*
X21736957Y-35262677D01*
X25664301Y-37576318D02*
X24600822Y-36962318D01*
X22799489Y-35922318D02*
X21736010Y-35308318D01*
X25626115Y-37600459D02*
X24580822Y-36996959D01*
X22779489Y-35956959D02*
X21734196Y-35353459D01*
X25586196Y-37623600D02*
X24560822Y-37031600D01*
X22759489Y-35991600D02*
X21734115Y-35399600D01*
X25545411Y-37646241D02*
X24540822Y-37066241D01*
X22739489Y-36026241D02*
X21734900Y-35446241D01*
X25503761Y-37668382D02*
X24520822Y-37100882D01*
X22719489Y-36060882D02*
X21736550Y-35493382D01*
X25461244Y-37690023D02*
X24500822Y-37135523D01*
X26535001Y-36692222D02*
X25201322Y-35922222D01*
X26514135Y-36726363D02*
X25181322Y-35956863D01*
X23379989Y-34916863D02*
X22047176Y-34147363D01*
X22699489Y-36095523D02*
X21739067Y-35541023D01*
X25417861Y-37711164D02*
X24480822Y-37170164D01*
X22679489Y-36130164D02*
X21742450Y-35589164D01*
X25374479Y-37732305D02*
X24460822Y-37204805D01*
X22659489Y-36164805D02*
X21745832Y-35637305D01*
X25328498Y-37751946D02*
X24440822Y-37239446D01*
X22639489Y-36199446D02*
X21751813Y-35686946D01*
X25282517Y-37771587D02*
X24420822Y-37274087D01*
X22619489Y-36234087D02*
X21757794Y-35736587D01*
X23419989Y-34847581D02*
X22086310Y-34077581D01*
X23159989Y-35297914D02*
X21871343Y-34553914D01*
X26223039Y-37112555D02*
X24941322Y-36372555D01*
X23139989Y-35332555D02*
X21858271Y-34592555D01*
X26195245Y-37142696D02*
X24921322Y-36407196D01*
X23119989Y-35367196D02*
X21846066Y-34631696D01*
X26166585Y-37172337D02*
X24901322Y-36441837D01*
X23099989Y-35401837D02*
X21834726Y-34671337D01*
X26137925Y-37201978D02*
X24881322Y-36476478D01*
X25235670Y-37790728D02*
X24400822Y-37308728D01*
X22599489Y-36268728D02*
X21764641Y-35786728D01*
X25187092Y-37808869D02*
X24380822Y-37343369D01*
X22579489Y-36303369D02*
X21773219Y-35837869D01*
X25137647Y-37826510D02*
X24360822Y-37378010D01*
X22559489Y-36338010D02*
X21782664Y-35889510D01*
X25086470Y-37843151D02*
X24340822Y-37412651D01*
X22539489Y-36372651D02*
X21793841Y-35942151D01*
X25034427Y-37859292D02*
X24320822Y-37447292D01*
X22519489Y-36407292D02*
X21805884Y-35995292D01*
X24981518Y-37874933D02*
X24300822Y-37481933D01*
X22499489Y-36441933D02*
X21818793Y-36048933D01*
X24926011Y-37889074D02*
X24280822Y-37516574D01*
X22479489Y-36476574D02*
X21834300Y-36104074D01*
X24869638Y-37902715D02*
X24260822Y-37551215D01*
X22459489Y-36511215D02*
X21850673Y-36159715D01*
X24811533Y-37915356D02*
X24240822Y-37585856D01*
X22439489Y-36545856D02*
X21868778Y-36216356D01*
X24751695Y-37926997D02*
X24220822Y-37620497D01*
X22419489Y-36580497D02*
X21888615Y-36273997D01*
X24690126Y-37937638D02*
X21910185Y-36332638D01*
X24625959Y-37946779D02*
X21934352Y-36392779D01*
X24559194Y-37954420D02*
X21961117Y-36454420D01*
X24489830Y-37960561D02*
X21990481Y-36517561D01*
X24417869Y-37965202D02*
X22022442Y-36582202D01*
X24342443Y-37967843D02*
X22057868Y-36648843D01*
X24263553Y-37968484D02*
X22096758Y-36717484D01*
X24180333Y-37966625D02*
X22139978Y-36788625D01*
X24091051Y-37961267D02*
X22189260Y-36863267D01*
X23995707Y-37952408D02*
X22244604Y-36941408D01*
X23892569Y-37939049D02*
X22307742Y-37024049D01*
X23777306Y-37918690D02*
X22383005Y-37113690D01*
X23646455Y-37889331D02*
X22473856Y-37212331D01*
X23488757Y-37844472D02*
X22591554Y-37326472D01*
X23266107Y-37762113D02*
X22774204Y-37478113D01*
X27300916Y-33409618D02*
X27050916Y-33842631D01*
X27392422Y-33751125D02*
X26959409Y-33501125D01*
X23399989Y-34882222D02*
X22066310Y-34112222D01*
X26555001Y-36657581D02*
X25221322Y-35887581D01*
X23079989Y-35436478D02*
X21823386Y-34710978D01*
X26107898Y-37231985D02*
X24860822Y-36511985D01*
X23059489Y-35471985D02*
X21812412Y-34751985D01*
X26077506Y-37260626D02*
X24840822Y-36546626D01*
X23039489Y-35506626D02*
X21802805Y-34792626D01*
X26046248Y-37288767D02*
X24820822Y-36581267D01*
X23019489Y-35541267D02*
X21794063Y-34833767D01*
X26014989Y-37316908D02*
X24800822Y-36615908D01*
X22999489Y-35575908D02*
X21785321Y-34874908D01*
X25982865Y-37344549D02*
X24780822Y-36650549D01*
X22979489Y-35610549D02*
X21777446Y-34916549D01*
X25950741Y-37372190D02*
X24760822Y-36685190D01*
X22959489Y-35645190D02*
X21769570Y-34958190D01*
X25916884Y-37398831D02*
X24740822Y-36719831D01*
X22939489Y-35679831D02*
X21763427Y-35000831D01*
X25883028Y-37425472D02*
X24720822Y-36754472D01*
X22919489Y-35714472D02*
X21757283Y-35043472D01*
X25848306Y-37451613D02*
X24700822Y-36789113D01*
X22899489Y-35749113D02*
X21752005Y-35086613D01*
X25813583Y-37477754D02*
X24680822Y-36823754D01*
X22879489Y-35783754D02*
X21746728Y-35129754D01*
X25777129Y-37502895D02*
X24660822Y-36858395D01*
X27220654Y-35367581D02*
G75*
G03X27220654Y-35367581I-2899999J0D01*
G01*
X59785474Y-42434974D02*
X59460487Y-42377670D01*
X58649815Y-48875617D02*
X59785474Y-42434974D01*
X58324828Y-48818313D02*
X58649815Y-48875617D01*
X57087100Y-41959178D02*
X57412087Y-42016482D01*
X55951441Y-48399821D02*
X57087100Y-41959178D01*
X56276428Y-48457125D02*
X55951441Y-48399821D01*
X53845323Y-41225099D02*
X53520336Y-41167795D01*
X53520336Y-41167795D02*
X54655995Y-34727152D01*
X54655995Y-34727152D02*
X54980982Y-34784456D01*
X55893723Y-41586287D02*
X56218710Y-41643591D01*
X56218710Y-41643591D02*
X57354369Y-35202948D01*
X57354369Y-35202948D02*
X57029382Y-35145644D01*
X47249889Y-18991230D02*
X47192585Y-19316217D01*
X47192585Y-19316217D02*
X40751942Y-18180558D01*
X40751942Y-18180558D02*
X40809246Y-17855571D01*
X47611077Y-16942830D02*
X47668381Y-16617843D01*
X47668381Y-16617843D02*
X41227738Y-15482184D01*
X41227738Y-15482184D02*
X41170434Y-15807171D01*
X55675808Y-45010465D02*
X55350821Y-44953161D01*
X54540149Y-51451108D02*
X55675808Y-45010465D01*
X54215162Y-51393804D02*
X54540149Y-51451108D01*
X52977434Y-44534669D02*
X53302421Y-44591973D01*
X51841775Y-50975312D02*
X52977434Y-44534669D01*
X52166762Y-51032616D02*
X51841775Y-50975312D01*
X49029022Y-75328000D02*
X49354009Y-75385304D01*
X49354009Y-75385304D02*
X48218350Y-81825947D01*
X48218350Y-81825947D02*
X47893363Y-81768643D01*
X46980622Y-74966812D02*
X46655635Y-74909508D01*
X46655635Y-74909508D02*
X45519976Y-81350151D01*
X45519976Y-81350151D02*
X45844963Y-81407455D01*
X56829539Y-82745230D02*
X56772235Y-83070217D01*
X56772235Y-83070217D02*
X50331592Y-81934558D01*
X50331592Y-81934558D02*
X50388896Y-81609571D01*
X57190727Y-80696830D02*
X57248031Y-80371843D01*
X57248031Y-80371843D02*
X50807388Y-79236184D01*
X50807388Y-79236184D02*
X50750084Y-79561171D01*
X56015976Y-71351192D02*
X56345976Y-71351192D01*
X56015976Y-64811192D02*
X56015976Y-71351192D01*
X56345976Y-64811192D02*
X56015976Y-64811192D01*
X58755976Y-71351192D02*
X58425976Y-71351192D01*
X58755976Y-64811192D02*
X58755976Y-71351192D01*
X58425976Y-64811192D02*
X58755976Y-64811192D01*
X49839622Y-65043175D02*
X49952489Y-65353274D01*
X49952489Y-65353274D02*
X43806899Y-67590086D01*
X43806899Y-67590086D02*
X43694032Y-67279987D01*
X49128220Y-63088615D02*
X49015353Y-62778516D01*
X49015353Y-62778516D02*
X42869764Y-65015328D01*
X42869764Y-65015328D02*
X42982630Y-65325426D01*
X20921894Y-64570234D02*
X21174688Y-64358114D01*
X21174688Y-64358114D02*
X25378519Y-69368045D01*
X25378519Y-69368045D02*
X25125724Y-69580165D01*
X19328521Y-65907232D02*
X19075726Y-66119352D01*
X19075726Y-66119352D02*
X23279557Y-71129283D01*
X23279557Y-71129283D02*
X23532352Y-70917163D01*
X30102327Y-61433281D02*
X29890207Y-61180486D01*
X25092396Y-65637112D02*
X30102327Y-61433281D01*
X24880276Y-65384317D02*
X25092396Y-65637112D01*
X28341089Y-59334319D02*
X28553209Y-59587114D01*
X23331158Y-63538150D02*
X28341089Y-59334319D01*
X23543278Y-63790944D02*
X23331158Y-63538150D01*
X26300417Y-27007024D02*
X26047622Y-26794904D01*
X22096586Y-32016955D02*
X26300417Y-27007024D01*
X21843792Y-31804835D02*
X22096586Y-32016955D01*
X24201455Y-25245786D02*
X24454250Y-25457906D01*
X19997624Y-30255717D02*
X24201455Y-25245786D01*
X20250419Y-30467837D02*
X19997624Y-30255717D01*
X18599583Y-26992976D02*
X18852378Y-27205096D01*
X22803414Y-21983045D02*
X18599583Y-26992976D01*
X23056208Y-22195165D02*
X22803414Y-21983045D01*
X20698545Y-28754214D02*
X20445750Y-28542094D01*
X24902376Y-23744283D02*
X20698545Y-28754214D01*
X24649581Y-23532163D02*
X24902376Y-23744283D01*
X44840000Y-34460000D02*
X44840000Y-34130000D01*
X44840000Y-34130000D02*
X51380000Y-34130000D01*
X51380000Y-34130000D02*
X51380000Y-34460000D01*
X44840000Y-36540000D02*
X44840000Y-36870000D01*
X44840000Y-36870000D02*
X51380000Y-36870000D01*
X51380000Y-36870000D02*
X51380000Y-36540000D01*
X41570000Y-28520000D02*
X41240000Y-28520000D01*
X41570000Y-35060000D02*
X41570000Y-28520000D01*
X41240000Y-35060000D02*
X41570000Y-35060000D01*
X38830000Y-28520000D02*
X39160000Y-28520000D01*
X38830000Y-35060000D02*
X38830000Y-28520000D01*
X39160000Y-35060000D02*
X38830000Y-35060000D01*
X33960000Y-21870000D02*
G75*
G02X31960000Y-21870000I-1000000J0D01*
G01*
X31960000Y-21870000D02*
X30310000Y-21870000D01*
X30310000Y-21870000D02*
X30310000Y-57550000D01*
X30310000Y-57550000D02*
X35610000Y-57550000D01*
X35610000Y-57550000D02*
X35610000Y-21870000D01*
X35610000Y-21870000D02*
X33960000Y-21870000D01*
X27820000Y-21810000D02*
X27820000Y-57610000D01*
X27820000Y-57610000D02*
X38100000Y-57610000D01*
X38100000Y-57610000D02*
X38100000Y-21810000D01*
X38100000Y-21810000D02*
X27820000Y-21810000D01*
X44211425Y-30412850D02*
X53871465Y-33928818D01*
X47768435Y-20640047D02*
X44211425Y-30412850D01*
X57428475Y-24156014D02*
X47768435Y-20640047D01*
X53871465Y-33928818D02*
X57428475Y-24156014D01*
X46571781Y-31208099D02*
X48122274Y-31772432D01*
X50087748Y-21548059D02*
X46571781Y-31208099D01*
X55068119Y-23360766D02*
X50087748Y-21548059D01*
X51552152Y-33020806D02*
X55068119Y-23360766D01*
X50001659Y-32456473D02*
X51552152Y-33020806D01*
X48122273Y-31772431D02*
G75*
G02X50001659Y-32456473I939693J-342021D01*
G01*
X49930000Y-52460000D02*
G75*
G02X49930000Y-50460000I0J1000000D01*
G01*
X49930000Y-50460000D02*
X49930000Y-48810000D01*
X49930000Y-48810000D02*
X39650000Y-48810000D01*
X39650000Y-48810000D02*
X39650000Y-54110000D01*
X39650000Y-54110000D02*
X49930000Y-54110000D01*
X49930000Y-54110000D02*
X49930000Y-52460000D01*
X49990000Y-46320000D02*
X39590000Y-46320000D01*
X39590000Y-46320000D02*
X39590000Y-56600000D01*
X39590000Y-56600000D02*
X49990000Y-56600000D01*
X49990000Y-56600000D02*
X49990000Y-46320000D01*
X53012209Y-58900097D02*
X56202987Y-59462717D01*
X49577449Y-78379595D02*
X53359506Y-56930482D01*
X53359506Y-56930482D02*
X53940542Y-57032934D01*
X49577449Y-78379595D02*
X50453927Y-78534141D01*
X52768226Y-78942215D02*
X56550283Y-57493102D01*
X56550283Y-57493102D02*
X55910158Y-57380231D01*
X52768226Y-78942215D02*
X51832658Y-78777249D01*
X31743292Y-81026580D02*
X23898997Y-74444435D01*
X34726469Y-77471368D02*
X26882174Y-70889223D01*
X31743292Y-81026580D02*
X34726469Y-77471368D01*
X23898997Y-74444435D02*
X26882174Y-70889223D01*
X32713901Y-79869853D02*
X24869606Y-73287708D01*
X29238327Y-78924665D02*
X30208936Y-77767938D01*
X26403196Y-76545708D02*
X27373806Y-75388981D01*
X26675000Y-41440000D02*
X26675000Y-47840000D01*
X21625000Y-41440000D02*
X21625000Y-47840000D01*
X21625000Y-41440000D02*
G75*
G02X26675000Y-41440000I2525000J0D01*
G01*
X21625000Y-47840000D02*
G75*
G03X26675000Y-47840000I2525000J0D01*
G01*
D10*
X39830476Y-18502380D02*
X39830476Y-19216666D01*
X39782857Y-19359523D01*
X39687619Y-19454761D01*
X39544761Y-19502380D01*
X39449523Y-19502380D01*
X40830476Y-19502380D02*
X40259047Y-19502380D01*
X40544761Y-19502380D02*
X40544761Y-18502380D01*
X40449523Y-18645238D01*
X40354285Y-18740476D01*
X40259047Y-18788095D01*
X41687619Y-18835714D02*
X41687619Y-19502380D01*
X41449523Y-18454761D02*
X41211428Y-19169047D01*
X41830476Y-19169047D01*
X52523761Y-20765734D02*
X52462727Y-20794195D01*
X52312199Y-20790082D01*
X52222704Y-20757508D01*
X52104749Y-20663901D01*
X52047828Y-20541833D01*
X52035654Y-20436052D01*
X52056054Y-20240776D01*
X52104914Y-20106534D01*
X52214808Y-19943832D01*
X52292128Y-19870624D01*
X52414196Y-19813703D01*
X52564725Y-19817816D01*
X52654219Y-19850389D01*
X52772174Y-19943996D01*
X52800635Y-20005030D01*
X53386133Y-21180962D02*
X52849166Y-20985522D01*
X53117650Y-21083242D02*
X53459670Y-20143549D01*
X53321315Y-20245218D01*
X53199247Y-20302139D01*
X53093466Y-20314313D01*
X54578352Y-20550716D02*
X54130879Y-20387849D01*
X53923265Y-20819035D01*
X53984299Y-20790575D01*
X54090080Y-20778401D01*
X54313816Y-20859834D01*
X54387024Y-20937155D01*
X54415485Y-20998189D01*
X54427659Y-21103970D01*
X54346225Y-21327706D01*
X54268905Y-21400914D01*
X54207871Y-21429375D01*
X54102090Y-21441549D01*
X53878353Y-21360115D01*
X53805145Y-21282795D01*
X53776685Y-21221761D01*
X64678043Y-39034075D02*
X64639416Y-39089239D01*
X64506999Y-39160942D01*
X64413207Y-39177480D01*
X64264252Y-39155391D01*
X64153922Y-39078138D01*
X64090489Y-38992616D01*
X64010517Y-38813302D01*
X63985711Y-38672615D01*
X63999530Y-38476764D01*
X64029888Y-38374704D01*
X64107141Y-38264375D01*
X64239559Y-38192672D01*
X64333350Y-38176134D01*
X64482306Y-38198223D01*
X64537471Y-38236850D01*
X65632493Y-38962487D02*
X65069746Y-39061714D01*
X65351120Y-39012101D02*
X65177471Y-38027293D01*
X65108487Y-38184518D01*
X65031234Y-38294847D01*
X64945711Y-38358280D01*
X44898175Y-77005751D02*
X44936802Y-77060916D01*
X44958891Y-77209872D01*
X44942353Y-77303663D01*
X44870650Y-77436081D01*
X44760321Y-77513334D01*
X44658261Y-77543692D01*
X44462409Y-77557512D01*
X44321723Y-77532705D01*
X44142409Y-77452733D01*
X44056887Y-77389300D01*
X43979634Y-77278971D01*
X43957545Y-77130015D01*
X43974083Y-77036224D01*
X44045785Y-76903806D01*
X44100950Y-76865179D01*
X44167102Y-76490014D02*
X44128475Y-76434850D01*
X44098117Y-76332789D01*
X44139462Y-76098311D01*
X44202896Y-76012789D01*
X44258060Y-75974162D01*
X44360120Y-75943805D01*
X44453912Y-75960343D01*
X44586329Y-76032045D01*
X45049849Y-76694020D01*
X45157346Y-76084377D01*
X61069741Y-70677482D02*
X61014577Y-70638855D01*
X60942874Y-70506438D01*
X60926336Y-70412646D01*
X60948425Y-70263691D01*
X61025678Y-70153361D01*
X61111200Y-70089928D01*
X61290514Y-70009956D01*
X61431201Y-69985150D01*
X61627052Y-69998969D01*
X61729112Y-70029327D01*
X61839441Y-70106580D01*
X61911144Y-70238998D01*
X61927682Y-70332789D01*
X61905593Y-70481745D01*
X61866966Y-70536910D01*
X62018640Y-70848641D02*
X62126137Y-71458284D01*
X61693089Y-71196166D01*
X61717896Y-71336853D01*
X61687538Y-71438913D01*
X61648912Y-71494078D01*
X61563390Y-71557512D01*
X61328912Y-71598856D01*
X61226851Y-71568499D01*
X61171687Y-71529872D01*
X61108253Y-71444350D01*
X61058639Y-71162976D01*
X61088997Y-71060916D01*
X61127624Y-71005751D01*
X58423175Y-59280751D02*
X58461802Y-59335916D01*
X58483891Y-59484872D01*
X58467353Y-59578663D01*
X58395650Y-59711081D01*
X58285321Y-59788334D01*
X58183261Y-59818692D01*
X57987409Y-59832512D01*
X57846723Y-59807705D01*
X57667409Y-59727733D01*
X57581887Y-59664300D01*
X57504634Y-59553971D01*
X57482545Y-59405015D01*
X57499083Y-59311224D01*
X57570785Y-59178806D01*
X57625950Y-59140179D01*
X57689269Y-58232625D02*
X57606579Y-58701581D01*
X58067266Y-58831166D01*
X58028640Y-58776001D01*
X57998282Y-58673941D01*
X58039627Y-58439463D01*
X58103060Y-58353941D01*
X58158225Y-58315314D01*
X58260285Y-58284956D01*
X58494763Y-58326301D01*
X58580285Y-58389735D01*
X58618912Y-58444899D01*
X58649270Y-58546960D01*
X58607925Y-58781438D01*
X58544491Y-58866960D01*
X58489327Y-58905586D01*
X59233733Y-79861742D02*
X59186114Y-79909361D01*
X59043257Y-79956980D01*
X58948019Y-79956980D01*
X58805161Y-79909361D01*
X58709923Y-79814123D01*
X58662304Y-79718885D01*
X58614685Y-79528409D01*
X58614685Y-79385552D01*
X58662304Y-79195076D01*
X58709923Y-79099838D01*
X58805161Y-79004600D01*
X58948019Y-78956980D01*
X59043257Y-78956980D01*
X59186114Y-79004600D01*
X59233733Y-79052219D01*
X60090876Y-78956980D02*
X59900400Y-78956980D01*
X59805161Y-79004600D01*
X59757542Y-79052219D01*
X59662304Y-79195076D01*
X59614685Y-79385552D01*
X59614685Y-79766504D01*
X59662304Y-79861742D01*
X59709923Y-79909361D01*
X59805161Y-79956980D01*
X59995638Y-79956980D01*
X60090876Y-79909361D01*
X60138495Y-79861742D01*
X60186114Y-79766504D01*
X60186114Y-79528409D01*
X60138495Y-79433171D01*
X60090876Y-79385552D01*
X59995638Y-79337933D01*
X59805161Y-79337933D01*
X59709923Y-79385552D01*
X59662304Y-79433171D01*
X59614685Y-79528409D01*
X48491793Y-73895728D02*
X48453166Y-73950892D01*
X48320749Y-74022595D01*
X48226957Y-74039133D01*
X48078002Y-74017044D01*
X47967672Y-73939791D01*
X47904239Y-73854269D01*
X47824267Y-73674955D01*
X47799461Y-73534268D01*
X47813280Y-73338417D01*
X47843638Y-73236357D01*
X47920891Y-73126028D01*
X48053309Y-73054325D01*
X48147100Y-73037787D01*
X48296056Y-73059876D01*
X48351221Y-73098503D01*
X48662952Y-72946829D02*
X49319491Y-72831063D01*
X49071078Y-73890292D01*
X37809071Y-74775179D02*
X37741984Y-74781048D01*
X37601940Y-74725699D01*
X37528984Y-74664482D01*
X37450158Y-74536176D01*
X37438419Y-74402002D01*
X37463159Y-74298436D01*
X37549116Y-74121914D01*
X37640943Y-74012479D01*
X37799857Y-73897175D01*
X37897553Y-73854827D01*
X38031727Y-73843089D01*
X38171771Y-73898437D01*
X38244728Y-73959655D01*
X38323554Y-74087960D01*
X38329423Y-74155047D01*
X38112637Y-75154224D02*
X38258550Y-75276660D01*
X38362115Y-75301400D01*
X38429203Y-75295530D01*
X38593986Y-75247313D01*
X38752900Y-75132009D01*
X38997772Y-74840183D01*
X39022511Y-74736617D01*
X39016642Y-74669530D01*
X38974294Y-74571834D01*
X38828381Y-74449398D01*
X38724815Y-74424658D01*
X38657728Y-74430528D01*
X38560032Y-74472875D01*
X38406987Y-74655267D01*
X38382248Y-74758832D01*
X38388117Y-74825920D01*
X38430465Y-74923616D01*
X38576378Y-75046052D01*
X38679943Y-75070791D01*
X38747031Y-75064922D01*
X38844727Y-75022574D01*
X28267993Y-71403459D02*
X28200906Y-71409329D01*
X28060862Y-71353980D01*
X27987906Y-71292762D01*
X27909080Y-71164457D01*
X27897341Y-71030283D01*
X27922080Y-70926717D01*
X28008038Y-70750195D01*
X28099865Y-70640760D01*
X28258779Y-70525456D01*
X28356475Y-70483108D01*
X28490649Y-70471369D01*
X28630693Y-70526718D01*
X28703650Y-70587936D01*
X28782476Y-70716241D01*
X28788345Y-70783328D01*
X28936342Y-72088594D02*
X28498602Y-71721287D01*
X28717472Y-71904941D02*
X29360259Y-71138896D01*
X29195476Y-71187113D01*
X29061301Y-71198852D01*
X28957736Y-71174113D01*
X30053347Y-71720466D02*
X30126304Y-71781684D01*
X30168652Y-71879380D01*
X30174521Y-71946467D01*
X30149781Y-72050033D01*
X30063824Y-72226555D01*
X29910779Y-72408947D01*
X29751865Y-72524251D01*
X29654169Y-72566599D01*
X29587082Y-72572468D01*
X29483516Y-72547728D01*
X29410560Y-72486511D01*
X29368212Y-72388814D01*
X29362343Y-72321727D01*
X29387082Y-72218162D01*
X29473040Y-72041640D01*
X29626084Y-71859248D01*
X29784998Y-71743944D01*
X29882694Y-71701596D01*
X29949782Y-71695727D01*
X30053347Y-71720466D01*
X20132142Y-43092857D02*
X20179761Y-43140476D01*
X20227380Y-43283333D01*
X20227380Y-43378571D01*
X20179761Y-43521428D01*
X20084523Y-43616666D01*
X19989285Y-43664285D01*
X19798809Y-43711904D01*
X19655952Y-43711904D01*
X19465476Y-43664285D01*
X19370238Y-43616666D01*
X19275000Y-43521428D01*
X19227380Y-43378571D01*
X19227380Y-43283333D01*
X19275000Y-43140476D01*
X19322619Y-43092857D01*
X20227380Y-42140476D02*
X20227380Y-42711904D01*
X20227380Y-42426190D02*
X19227380Y-42426190D01*
X19370238Y-42521428D01*
X19465476Y-42616666D01*
X19513095Y-42711904D01*
X20227380Y-41188095D02*
X20227380Y-41759523D01*
X20227380Y-41473809D02*
X19227380Y-41473809D01*
X19370238Y-41569047D01*
X19465476Y-41664285D01*
X19513095Y-41759523D01*
X16763192Y-47712109D02*
X16696104Y-47706240D01*
X16567799Y-47627414D01*
X16506581Y-47554457D01*
X16451233Y-47414414D01*
X16462972Y-47280239D01*
X16505319Y-47182543D01*
X16620624Y-47023629D01*
X16730059Y-46931802D01*
X16906581Y-46845845D01*
X17010146Y-46821105D01*
X17144321Y-46832844D01*
X17272626Y-46911670D01*
X17333844Y-46984626D01*
X17389192Y-47124670D01*
X17383323Y-47191757D01*
X17302414Y-48502893D02*
X16935106Y-48065154D01*
X17118760Y-48284024D02*
X17884804Y-47641236D01*
X17714152Y-47660106D01*
X17579977Y-47648367D01*
X17482281Y-47606020D01*
X18240373Y-48213150D02*
X18307460Y-48219019D01*
X18405156Y-48261367D01*
X18558201Y-48443759D01*
X18582941Y-48547324D01*
X18577071Y-48614411D01*
X18534724Y-48712108D01*
X18461767Y-48773325D01*
X18321723Y-48828674D01*
X17516676Y-48758242D01*
X17914592Y-49232460D01*
X35932142Y-20357142D02*
X35884523Y-20404761D01*
X35741666Y-20452380D01*
X35646428Y-20452380D01*
X35503571Y-20404761D01*
X35408333Y-20309523D01*
X35360714Y-20214285D01*
X35313095Y-20023809D01*
X35313095Y-19880952D01*
X35360714Y-19690476D01*
X35408333Y-19595238D01*
X35503571Y-19500000D01*
X35646428Y-19452380D01*
X35741666Y-19452380D01*
X35884523Y-19500000D01*
X35932142Y-19547619D01*
X36884523Y-20452380D02*
X36313095Y-20452380D01*
X36598809Y-20452380D02*
X36598809Y-19452380D01*
X36503571Y-19595238D01*
X36408333Y-19690476D01*
X36313095Y-19738095D01*
X37217857Y-19452380D02*
X37836904Y-19452380D01*
X37503571Y-19833333D01*
X37646428Y-19833333D01*
X37741666Y-19880952D01*
X37789285Y-19928571D01*
X37836904Y-20023809D01*
X37836904Y-20261904D01*
X37789285Y-20357142D01*
X37741666Y-20404761D01*
X37646428Y-20452380D01*
X37360714Y-20452380D01*
X37265476Y-20404761D01*
X37217857Y-20357142D01*
X25307143Y-32082142D02*
X25259524Y-32129761D01*
X25116667Y-32177380D01*
X25021429Y-32177380D01*
X24878572Y-32129761D01*
X24783334Y-32034523D01*
X24735715Y-31939285D01*
X24688096Y-31748809D01*
X24688096Y-31605952D01*
X24735715Y-31415476D01*
X24783334Y-31320238D01*
X24878572Y-31225000D01*
X25021429Y-31177380D01*
X25116667Y-31177380D01*
X25259524Y-31225000D01*
X25307143Y-31272619D01*
X26259524Y-32177380D02*
X25688096Y-32177380D01*
X25973810Y-32177380D02*
X25973810Y-31177380D01*
X25878572Y-31320238D01*
X25783334Y-31415476D01*
X25688096Y-31463095D01*
X27116667Y-31510714D02*
X27116667Y-32177380D01*
X26878572Y-31129761D02*
X26640477Y-31844047D01*
X27259524Y-31844047D01*
X32042440Y-77111168D02*
X32589615Y-77570302D01*
X32668441Y-77698607D01*
X32680180Y-77832782D01*
X32624831Y-77972825D01*
X32563613Y-78045782D01*
X32768661Y-76912430D02*
X32670965Y-76954778D01*
X32603878Y-76960647D01*
X32500312Y-76935908D01*
X32463834Y-76905299D01*
X32421486Y-76807603D01*
X32415617Y-76740515D01*
X32440357Y-76636950D01*
X32562792Y-76491037D01*
X32660488Y-76448689D01*
X32727576Y-76442820D01*
X32831141Y-76467559D01*
X32867620Y-76498168D01*
X32909967Y-76595864D01*
X32915837Y-76662952D01*
X32891097Y-76766517D01*
X32768661Y-76912430D01*
X32743922Y-77015996D01*
X32749791Y-77083083D01*
X32792139Y-77180779D01*
X32938052Y-77303215D01*
X33041618Y-77327955D01*
X33108705Y-77322085D01*
X33206401Y-77279738D01*
X33328837Y-77133824D01*
X33353576Y-77030259D01*
X33347707Y-76963172D01*
X33305359Y-76865475D01*
X33159446Y-76743040D01*
X33055880Y-76718300D01*
X32988793Y-76724169D01*
X32891097Y-76766517D01*
X58293609Y-45672773D02*
X57766771Y-45918353D01*
X58194382Y-46235521D02*
X57209574Y-46061872D01*
X57275726Y-45686708D01*
X57339159Y-45601185D01*
X57394324Y-45562559D01*
X57496384Y-45532201D01*
X57637071Y-45557008D01*
X57722593Y-45620441D01*
X57761220Y-45675606D01*
X57791577Y-45777666D01*
X57725426Y-46152831D01*
X58458989Y-44734861D02*
X58359761Y-45297608D01*
X58409375Y-45016235D02*
X57424567Y-44842587D01*
X57548716Y-44961185D01*
X57625969Y-45071514D01*
X57656327Y-45173574D01*
X55870315Y-38408209D02*
X55343477Y-38653789D01*
X55771088Y-38970957D02*
X54786280Y-38797308D01*
X54852432Y-38422144D01*
X54915865Y-38336621D01*
X54971030Y-38297995D01*
X55073090Y-38267637D01*
X55213777Y-38292444D01*
X55299299Y-38355877D01*
X55337926Y-38411042D01*
X55368283Y-38513102D01*
X55302132Y-38888267D01*
X55045451Y-37875934D02*
X55006824Y-37820770D01*
X54976466Y-37718709D01*
X55017811Y-37484231D01*
X55081245Y-37398709D01*
X55136409Y-37360082D01*
X55238469Y-37329725D01*
X55332261Y-37346263D01*
X55464678Y-37417965D01*
X55928198Y-38079940D01*
X56035695Y-37470297D01*
X44007310Y-17866566D02*
X43761730Y-17339728D01*
X43444562Y-17767339D02*
X43618211Y-16782531D01*
X43993375Y-16848683D01*
X44078898Y-16912116D01*
X44117524Y-16967281D01*
X44147882Y-17069341D01*
X44123075Y-17210028D01*
X44059642Y-17295550D01*
X44004477Y-17334177D01*
X43902417Y-17364534D01*
X43527252Y-17298383D01*
X44509227Y-16939641D02*
X45118870Y-17047138D01*
X44724449Y-17364420D01*
X44865136Y-17389227D01*
X44950658Y-17452660D01*
X44989285Y-17507825D01*
X45019643Y-17609885D01*
X44978298Y-17844363D01*
X44914864Y-17929885D01*
X44859700Y-17968512D01*
X44757639Y-17998870D01*
X44476266Y-17949256D01*
X44390744Y-17885822D01*
X44352117Y-17830658D01*
X54175358Y-48235577D02*
X53648520Y-48481157D01*
X54076131Y-48798325D02*
X53091323Y-48624676D01*
X53157475Y-48249512D01*
X53220908Y-48163989D01*
X53276073Y-48125363D01*
X53378133Y-48095005D01*
X53518820Y-48119812D01*
X53604342Y-48183245D01*
X53642969Y-48238410D01*
X53673326Y-48340470D01*
X53607175Y-48715635D01*
X53667661Y-47275691D02*
X54324200Y-47391456D01*
X53251152Y-47444017D02*
X53913241Y-47802530D01*
X54020737Y-47192887D01*
X47841966Y-78547290D02*
X47315128Y-78792870D01*
X47742739Y-79110038D02*
X46757931Y-78936389D01*
X46824083Y-78561225D01*
X46887516Y-78475702D01*
X46942681Y-78437076D01*
X47044741Y-78406718D01*
X47185428Y-78431525D01*
X47270950Y-78494958D01*
X47309577Y-78550123D01*
X47339934Y-78652183D01*
X47273783Y-79027348D01*
X47014269Y-77482626D02*
X46931579Y-77951582D01*
X47392266Y-78081167D01*
X47353640Y-78026002D01*
X47323282Y-77923942D01*
X47364627Y-77689464D01*
X47428060Y-77603942D01*
X47483225Y-77565315D01*
X47585285Y-77534957D01*
X47819763Y-77576302D01*
X47905285Y-77639736D01*
X47943912Y-77694900D01*
X47974270Y-77796961D01*
X47932925Y-78031439D01*
X47869491Y-78116961D01*
X47814327Y-78155587D01*
X53557711Y-81546166D02*
X53312131Y-81019328D01*
X52994963Y-81446939D02*
X53168612Y-80462131D01*
X53543776Y-80528283D01*
X53629299Y-80591716D01*
X53667925Y-80646881D01*
X53698283Y-80748941D01*
X53673476Y-80889628D01*
X53610043Y-80975150D01*
X53554878Y-81013777D01*
X53452818Y-81044134D01*
X53077653Y-80977983D01*
X54575480Y-80710200D02*
X54387897Y-80677124D01*
X54285837Y-80707482D01*
X54230673Y-80746108D01*
X54112075Y-80870257D01*
X54032103Y-81049571D01*
X53965951Y-81424736D01*
X53996309Y-81526796D01*
X54034936Y-81581960D01*
X54120458Y-81645394D01*
X54308040Y-81678470D01*
X54410101Y-81648112D01*
X54465265Y-81609485D01*
X54528699Y-81523963D01*
X54570044Y-81289485D01*
X54539686Y-81187425D01*
X54501059Y-81132260D01*
X54415537Y-81068827D01*
X54227955Y-81035751D01*
X54125894Y-81066109D01*
X54070730Y-81104735D01*
X54007296Y-81190258D01*
X57827780Y-68247858D02*
X57351590Y-68581192D01*
X57827780Y-68819287D02*
X56827780Y-68819287D01*
X56827780Y-68438334D01*
X56875400Y-68343096D01*
X56923019Y-68295477D01*
X57018257Y-68247858D01*
X57161114Y-68247858D01*
X57256352Y-68295477D01*
X57303971Y-68343096D01*
X57351590Y-68438334D01*
X57351590Y-68819287D01*
X57256352Y-67676430D02*
X57208733Y-67771668D01*
X57161114Y-67819287D01*
X57065876Y-67866906D01*
X57018257Y-67866906D01*
X56923019Y-67819287D01*
X56875400Y-67771668D01*
X56827780Y-67676430D01*
X56827780Y-67485953D01*
X56875400Y-67390715D01*
X56923019Y-67343096D01*
X57018257Y-67295477D01*
X57065876Y-67295477D01*
X57161114Y-67343096D01*
X57208733Y-67390715D01*
X57256352Y-67485953D01*
X57256352Y-67676430D01*
X57303971Y-67771668D01*
X57351590Y-67819287D01*
X57446828Y-67866906D01*
X57637304Y-67866906D01*
X57732542Y-67819287D01*
X57780161Y-67771668D01*
X57827780Y-67676430D01*
X57827780Y-67485953D01*
X57780161Y-67390715D01*
X57732542Y-67343096D01*
X57637304Y-67295477D01*
X57446828Y-67295477D01*
X57351590Y-67343096D01*
X57303971Y-67390715D01*
X57256352Y-67485953D01*
X46423507Y-65661702D02*
X45947410Y-65328236D01*
X45886540Y-65857142D02*
X45544520Y-64917449D01*
X45902498Y-64787156D01*
X46008279Y-64799330D01*
X46069313Y-64827790D01*
X46146634Y-64900998D01*
X46195494Y-65035240D01*
X46183320Y-65141021D01*
X46154860Y-65202055D01*
X46081652Y-65279376D01*
X45723674Y-65409669D01*
X46870980Y-65498835D02*
X47049969Y-65433688D01*
X47123177Y-65356368D01*
X47151638Y-65295334D01*
X47192272Y-65128519D01*
X47171873Y-64933243D01*
X47041579Y-64575265D01*
X46964259Y-64502057D01*
X46903225Y-64473596D01*
X46797444Y-64461423D01*
X46618455Y-64526569D01*
X46545247Y-64603890D01*
X46516786Y-64664924D01*
X46504612Y-64770705D01*
X46586046Y-64994441D01*
X46663366Y-65067649D01*
X46724400Y-65096110D01*
X46830181Y-65108284D01*
X47009170Y-65043137D01*
X47082378Y-64965816D01*
X47110839Y-64904782D01*
X47123013Y-64799001D01*
X21457123Y-67550928D02*
X21607644Y-66989491D01*
X21089816Y-67113189D02*
X21855860Y-66470401D01*
X22100732Y-66762227D01*
X22125471Y-66865793D01*
X22119602Y-66932880D01*
X22077254Y-67030576D01*
X21967819Y-67122403D01*
X21864254Y-67147143D01*
X21797166Y-67141273D01*
X21699470Y-67098926D01*
X21454599Y-66807099D01*
X22069302Y-68280494D02*
X21701994Y-67842755D01*
X21885648Y-68061625D02*
X22651692Y-67418837D01*
X22481040Y-67437707D01*
X22346865Y-67425968D01*
X22249169Y-67383621D01*
X23233262Y-68111925D02*
X23294480Y-68184881D01*
X23319220Y-68288447D01*
X23313350Y-68355534D01*
X23271003Y-68453230D01*
X23155698Y-68612144D01*
X22973307Y-68765189D01*
X22796785Y-68851146D01*
X22693219Y-68875886D01*
X22626132Y-68870017D01*
X22528436Y-68827669D01*
X22467218Y-68754712D01*
X22442478Y-68651147D01*
X22448348Y-68584060D01*
X22490695Y-68486363D01*
X22606000Y-68327449D01*
X22788391Y-68174405D01*
X22964913Y-68088447D01*
X23068479Y-68063708D01*
X23135566Y-68069577D01*
X23233262Y-68111925D01*
X26414564Y-63424995D02*
X25853127Y-63274474D01*
X25976825Y-63792302D02*
X25334037Y-63026258D01*
X25625863Y-62781386D01*
X25729429Y-62756647D01*
X25796516Y-62762516D01*
X25894212Y-62804864D01*
X25986039Y-62914299D01*
X26010779Y-63017864D01*
X26004909Y-63084952D01*
X25962562Y-63182648D01*
X25670735Y-63427519D01*
X27144130Y-62812816D02*
X26706391Y-63180124D01*
X26925261Y-62996470D02*
X26282473Y-62230426D01*
X26301343Y-62401078D01*
X26289604Y-62535253D01*
X26247257Y-62632949D01*
X27873697Y-62200638D02*
X27435957Y-62567945D01*
X27654827Y-62384291D02*
X27012039Y-61618247D01*
X27030909Y-61788900D01*
X27019170Y-61923074D01*
X26976823Y-62020770D01*
X23108323Y-29383243D02*
X22529277Y-29332501D01*
X22741016Y-29820982D02*
X21974971Y-29178195D01*
X22219843Y-28886368D01*
X22317539Y-28844020D01*
X22384626Y-28838151D01*
X22488192Y-28862891D01*
X22597627Y-28954717D01*
X22639974Y-29052414D01*
X22645844Y-29119501D01*
X22621104Y-29223066D01*
X22376233Y-29514893D01*
X23720501Y-28653676D02*
X23353194Y-29091416D01*
X23536848Y-28872546D02*
X22770803Y-28229759D01*
X22819020Y-28394542D01*
X22830759Y-28528717D01*
X22806020Y-28632282D01*
X23168720Y-27755541D02*
X23566636Y-27281323D01*
X23644200Y-27781542D01*
X23736026Y-27672107D01*
X23833723Y-27629760D01*
X23900810Y-27623890D01*
X24004375Y-27648630D01*
X24186767Y-27801675D01*
X24229115Y-27899371D01*
X24234984Y-27966458D01*
X24210244Y-28070023D01*
X24026591Y-28288893D01*
X23928895Y-28331241D01*
X23861807Y-28337110D01*
X21683323Y-26133242D02*
X21104277Y-26082500D01*
X21316016Y-26570981D02*
X20549971Y-25928194D01*
X20794843Y-25636367D01*
X20892539Y-25594019D01*
X20959626Y-25588150D01*
X21063192Y-25612890D01*
X21172627Y-25704716D01*
X21214974Y-25802413D01*
X21220844Y-25869500D01*
X21196104Y-25973065D01*
X20951233Y-26264892D01*
X22295501Y-25403675D02*
X21928194Y-25841415D01*
X22111848Y-25622545D02*
X21345803Y-24979758D01*
X21394020Y-25144541D01*
X21405759Y-25278716D01*
X21381020Y-25382281D01*
X22335766Y-24318541D02*
X22846462Y-24747066D01*
X21890895Y-24256061D02*
X22285025Y-24897586D01*
X22682941Y-24423368D01*
X47457142Y-35927380D02*
X47123809Y-35451190D01*
X46885714Y-35927380D02*
X46885714Y-34927380D01*
X47266666Y-34927380D01*
X47361904Y-34975000D01*
X47409523Y-35022619D01*
X47457142Y-35117857D01*
X47457142Y-35260714D01*
X47409523Y-35355952D01*
X47361904Y-35403571D01*
X47266666Y-35451190D01*
X46885714Y-35451190D01*
X48409523Y-35927380D02*
X47838095Y-35927380D01*
X48123809Y-35927380D02*
X48123809Y-34927380D01*
X48028571Y-35070238D01*
X47933333Y-35165476D01*
X47838095Y-35213095D01*
X49314285Y-34927380D02*
X48838095Y-34927380D01*
X48790476Y-35403571D01*
X48838095Y-35355952D01*
X48933333Y-35308333D01*
X49171428Y-35308333D01*
X49266666Y-35355952D01*
X49314285Y-35403571D01*
X49361904Y-35498809D01*
X49361904Y-35736904D01*
X49314285Y-35832142D01*
X49266666Y-35879761D01*
X49171428Y-35927380D01*
X48933333Y-35927380D01*
X48838095Y-35879761D01*
X48790476Y-35832142D01*
X40702380Y-32417857D02*
X40226190Y-32751190D01*
X40702380Y-32989285D02*
X39702380Y-32989285D01*
X39702380Y-32608333D01*
X39750000Y-32513095D01*
X39797619Y-32465476D01*
X39892857Y-32417857D01*
X40035714Y-32417857D01*
X40130952Y-32465476D01*
X40178571Y-32513095D01*
X40226190Y-32608333D01*
X40226190Y-32989285D01*
X40702380Y-31465476D02*
X40702380Y-32036904D01*
X40702380Y-31751190D02*
X39702380Y-31751190D01*
X39845238Y-31846428D01*
X39940476Y-31941666D01*
X39988095Y-32036904D01*
X39702380Y-31132142D02*
X39702380Y-30465476D01*
X40702380Y-30894047D01*
X32438095Y-26902380D02*
X32438095Y-27711904D01*
X32485714Y-27807142D01*
X32533333Y-27854761D01*
X32628571Y-27902380D01*
X32819047Y-27902380D01*
X32914285Y-27854761D01*
X32961904Y-27807142D01*
X33009523Y-27711904D01*
X33009523Y-26902380D01*
X34009523Y-27902380D02*
X33438095Y-27902380D01*
X33723809Y-27902380D02*
X33723809Y-26902380D01*
X33628571Y-27045238D01*
X33533333Y-27140476D01*
X33438095Y-27188095D01*
X50246340Y-26474819D02*
X49969467Y-27235523D01*
X49981640Y-27341304D01*
X50010101Y-27402338D01*
X50083309Y-27479658D01*
X50262298Y-27544805D01*
X50368079Y-27532631D01*
X50429113Y-27504171D01*
X50506434Y-27430963D01*
X50783307Y-26670259D01*
X51153459Y-26906334D02*
X51214493Y-26877873D01*
X51320274Y-26865699D01*
X51544011Y-26947133D01*
X51617219Y-27024453D01*
X51645679Y-27085487D01*
X51657853Y-27191268D01*
X51625280Y-27280763D01*
X51531672Y-27398718D01*
X50799265Y-27740245D01*
X51380980Y-27951972D01*
X44227380Y-52236904D02*
X45036904Y-52236904D01*
X45132142Y-52189285D01*
X45179761Y-52141666D01*
X45227380Y-52046428D01*
X45227380Y-51855952D01*
X45179761Y-51760714D01*
X45132142Y-51713095D01*
X45036904Y-51665476D01*
X44227380Y-51665476D01*
X44227380Y-51284523D02*
X44227380Y-50665476D01*
X44608333Y-50998809D01*
X44608333Y-50855952D01*
X44655952Y-50760714D01*
X44703571Y-50713095D01*
X44798809Y-50665476D01*
X45036904Y-50665476D01*
X45132142Y-50713095D01*
X45179761Y-50760714D01*
X45227380Y-50855952D01*
X45227380Y-51141666D01*
X45179761Y-51236904D01*
X45132142Y-51284523D01*
X50978797Y-63009836D02*
X51776022Y-63150409D01*
X51878082Y-63120051D01*
X51933247Y-63081424D01*
X51996680Y-62995902D01*
X52029756Y-62808319D01*
X51999398Y-62706259D01*
X51960772Y-62651095D01*
X51875249Y-62587661D01*
X51078024Y-62447089D01*
X51563404Y-61613955D02*
X52219942Y-61729721D01*
X51146894Y-61782281D02*
X51808983Y-62140794D01*
X51916480Y-61531151D01*
X26946706Y-77592308D02*
X26426354Y-78212439D01*
X26401615Y-78316005D01*
X26407484Y-78383092D01*
X26449832Y-78480788D01*
X26595745Y-78603224D01*
X26699311Y-78627964D01*
X26766398Y-78622094D01*
X26864094Y-78579746D01*
X27384446Y-77959615D01*
X28114012Y-78571794D02*
X27749229Y-78265705D01*
X27406661Y-78599879D01*
X27473749Y-78594009D01*
X27577314Y-78618749D01*
X27759706Y-78771794D01*
X27802053Y-78869490D01*
X27807923Y-78936577D01*
X27783183Y-79040143D01*
X27630139Y-79222534D01*
X27532442Y-79264882D01*
X27465355Y-79270751D01*
X27361790Y-79246012D01*
X27179398Y-79092967D01*
X27137050Y-78995271D01*
X27131181Y-78928183D01*
X24201190Y-45101190D02*
X24677380Y-45101190D01*
X23677380Y-45434523D02*
X24201190Y-45101190D01*
X23677380Y-44767857D01*
X24677380Y-43910714D02*
X24677380Y-44482142D01*
X24677380Y-44196428D02*
X23677380Y-44196428D01*
X23820238Y-44291666D01*
X23915476Y-44386904D01*
X23963095Y-44482142D01*
M02*
