G04 #@! TF.GenerationSoftware,KiCad,Pcbnew,(5.1.2-1)-1*
G04 #@! TF.CreationDate,2021-11-09T11:57:47-05:00*
G04 #@! TF.ProjectId,lil_duder,6c696c5f-6475-4646-9572-2e6b69636164,rev?*
G04 #@! TF.SameCoordinates,Original*
G04 #@! TF.FileFunction,Copper,L1,Top*
G04 #@! TF.FilePolarity,Positive*
%FSLAX46Y46*%
G04 Gerber Fmt 4.6, Leading zero omitted, Abs format (unit mm)*
G04 Created by KiCad (PCBNEW (5.1.2-1)-1) date 2021-11-09 11:57:47*
%MOMM*%
%LPD*%
G04 APERTURE LIST*
%ADD10C,2.499360*%
%ADD11C,1.600000*%
%ADD12C,2.400000*%
%ADD13R,2.400000X2.400000*%
%ADD14C,0.100000*%
%ADD15R,2.499360X2.499360*%
%ADD16C,1.600000*%
%ADD17O,1.600000X1.600000*%
%ADD18R,1.600000X1.600000*%
%ADD19C,1.450000*%
%ADD20R,1.905000X2.000000*%
%ADD21O,1.905000X2.000000*%
%ADD22C,1.500000*%
G04 APERTURE END LIST*
D10*
X40640000Y-22860000D03*
X26425000Y-61375000D03*
D11*
X55680368Y-21561669D03*
X50981905Y-19851568D03*
D12*
X65089314Y-22596027D03*
D13*
X65089314Y-25517027D03*
D11*
X53584393Y-61484257D03*
X54452634Y-56560218D03*
X71350000Y-55500000D03*
X70481759Y-50575961D03*
X68034387Y-38849602D03*
X67166146Y-43773641D03*
D12*
X67732332Y-58864015D03*
D14*
G36*
X69122479Y-57890624D02*
G01*
X68705723Y-60254162D01*
X66342185Y-59837406D01*
X66758941Y-57473868D01*
X69122479Y-57890624D01*
X69122479Y-57890624D01*
G37*
D12*
X64855708Y-58356789D03*
X55592588Y-52693761D03*
D14*
G36*
X54619197Y-54083908D02*
G01*
X54202441Y-51720370D01*
X56565979Y-51303614D01*
X56982735Y-53667152D01*
X54619197Y-54083908D01*
X54619197Y-54083908D01*
G37*
D12*
X58469211Y-52186534D03*
X41003924Y-68654712D03*
X43748766Y-67655671D03*
D14*
G36*
X44465973Y-66117616D02*
G01*
X45286821Y-68372878D01*
X43031559Y-69193726D01*
X42210711Y-66938464D01*
X44465973Y-66117616D01*
X44465973Y-66117616D01*
G37*
D12*
X34015515Y-68670235D03*
D14*
G36*
X33867607Y-70360833D02*
G01*
X32324917Y-68522327D01*
X34163423Y-66979637D01*
X35706113Y-68818143D01*
X33867607Y-70360833D01*
X33867607Y-70360833D01*
G37*
D12*
X36253131Y-66792653D03*
D11*
X19750000Y-39900000D03*
X19750000Y-44900000D03*
X15900000Y-46100000D03*
X19113938Y-49930222D03*
D13*
X30822000Y-18387200D03*
D12*
X33743000Y-18387200D03*
X23582405Y-36646267D03*
X25042905Y-34116607D03*
D14*
G36*
X24603675Y-32477377D02*
G01*
X26682135Y-33677377D01*
X25482135Y-35755837D01*
X23403675Y-34555837D01*
X24603675Y-32477377D01*
X24603675Y-32477377D01*
G37*
D10*
X65016149Y-29535581D03*
X57782932Y-18708738D03*
X21150000Y-53400000D03*
X25200000Y-53500000D03*
X70372961Y-47182285D03*
X57561539Y-43247829D03*
X25200000Y-57550000D03*
X47750000Y-71040000D03*
D15*
X47750000Y-74850000D03*
D10*
X34949998Y-62700001D03*
D15*
X42450002Y-62749999D03*
D10*
X38640002Y-62749999D03*
X27050000Y-19700000D03*
X19400000Y-36650000D03*
D11*
X61746844Y-28430786D03*
D16*
X61746844Y-28430786D02*
X61746844Y-28430786D01*
D11*
X59140651Y-35591244D03*
X58002309Y-28046932D03*
X60608502Y-20886474D03*
D16*
X60608502Y-20886474D02*
X60608502Y-20886474D01*
D11*
X47962279Y-18060800D03*
X40458044Y-16737601D03*
D16*
X40458044Y-16737601D02*
X40458044Y-16737601D01*
D11*
X57252384Y-30253514D03*
D16*
X57252384Y-30253514D02*
X57252384Y-30253514D01*
D11*
X54646191Y-37413972D03*
X57598192Y-56861010D03*
X56274993Y-64365245D03*
D16*
X56274993Y-64365245D02*
X56274993Y-64365245D01*
D11*
X67041529Y-64060200D03*
X59537294Y-62737001D03*
D16*
X59537294Y-62737001D02*
X59537294Y-62737001D01*
D17*
X66885576Y-54136592D03*
D11*
X66885576Y-46516592D03*
X59490955Y-46126604D03*
X52330497Y-48732797D03*
D16*
X52330497Y-48732797D02*
X52330497Y-48732797D01*
D11*
X26100000Y-71750002D03*
X33604235Y-73073201D03*
D16*
X33604235Y-73073201D02*
X33604235Y-73073201D01*
D11*
X30573201Y-61745762D03*
D16*
X30573201Y-61745762D02*
X30573201Y-61745762D01*
D11*
X29250002Y-69249997D03*
X25598042Y-25712741D03*
D16*
X25598042Y-25712741D02*
X25598042Y-25712741D01*
D11*
X20700000Y-31550000D03*
X19301958Y-28287259D03*
D16*
X19301958Y-28287259D02*
X19301958Y-28287259D01*
D11*
X24200000Y-22450000D03*
X44300000Y-35500000D03*
D17*
X51920000Y-35500000D03*
X40200000Y-27980000D03*
D11*
X40200000Y-35600000D03*
D18*
X29150000Y-23200000D03*
D17*
X36770000Y-56220000D03*
X29150000Y-25740000D03*
X36770000Y-53680000D03*
X29150000Y-28280000D03*
X36770000Y-51140000D03*
X29150000Y-30820000D03*
X36770000Y-48600000D03*
X29150000Y-33360000D03*
X36770000Y-46060000D03*
X29150000Y-35900000D03*
X36770000Y-43520000D03*
X29150000Y-38440000D03*
X36770000Y-40980000D03*
X29150000Y-40980000D03*
X36770000Y-38440000D03*
X29150000Y-43520000D03*
X36770000Y-35900000D03*
X29150000Y-46060000D03*
X36770000Y-33360000D03*
X29150000Y-48600000D03*
X36770000Y-30820000D03*
X29150000Y-51140000D03*
X36770000Y-28280000D03*
X29150000Y-53680000D03*
X36770000Y-25740000D03*
X29150000Y-56220000D03*
X36770000Y-23200000D03*
D11*
X45936624Y-29561565D03*
D16*
X45936624Y-29561565D02*
X45936624Y-29561565D01*
D11*
X55703275Y-25007300D03*
D16*
X55703275Y-25007300D02*
X55703275Y-25007300D01*
D11*
X46805355Y-27174745D03*
D16*
X46805355Y-27174745D02*
X46805355Y-27174745D01*
D11*
X54834544Y-27394119D03*
D16*
X54834544Y-27394119D02*
X54834544Y-27394119D01*
D11*
X47674087Y-24787926D03*
D16*
X47674087Y-24787926D02*
X47674087Y-24787926D01*
D11*
X53965813Y-29780939D03*
D16*
X53965813Y-29780939D02*
X53965813Y-29780939D01*
D11*
X48542818Y-22401107D03*
D16*
X48542818Y-22401107D02*
X48542818Y-22401107D01*
D11*
X53097082Y-32167758D03*
D14*
G36*
X54122452Y-31689620D02*
G01*
X53575220Y-33193128D01*
X52071712Y-32645896D01*
X52618944Y-31142388D01*
X54122452Y-31689620D01*
X54122452Y-31689620D01*
G37*
D18*
X48600000Y-47650000D03*
D17*
X40980000Y-55270000D03*
X46060000Y-47650000D03*
X43520000Y-55270000D03*
X43520000Y-47650000D03*
X46060000Y-55270000D03*
X40980000Y-47650000D03*
X48600000Y-55270000D03*
D19*
X64298187Y-40170892D03*
D14*
G36*
X63458306Y-40758983D02*
G01*
X63710096Y-39331011D01*
X65138068Y-39582801D01*
X64886278Y-41010773D01*
X63458306Y-40758983D01*
X63458306Y-40758983D01*
G37*
D19*
X63857121Y-42672304D03*
X63416054Y-45173715D03*
X62974988Y-47675127D03*
X62533922Y-50176539D03*
X62092855Y-52677950D03*
X61651789Y-55179362D03*
X61210722Y-57680774D03*
X60769656Y-60182186D03*
D20*
X43099999Y-73200002D03*
D21*
X40559999Y-73200002D03*
X38019999Y-73200002D03*
D22*
X24150000Y-42200000D03*
X24150000Y-47080000D03*
M02*
