G04 #@! TF.GenerationSoftware,KiCad,Pcbnew,(5.1.2-1)-1*
G04 #@! TF.CreationDate,2021-11-09T11:57:47-05:00*
G04 #@! TF.ProjectId,lil_duder,6c696c5f-6475-4646-9572-2e6b69636164,rev?*
G04 #@! TF.SameCoordinates,Original*
G04 #@! TF.FileFunction,Soldermask,Top*
G04 #@! TF.FilePolarity,Negative*
%FSLAX46Y46*%
G04 Gerber Fmt 4.6, Leading zero omitted, Abs format (unit mm)*
G04 Created by KiCad (PCBNEW (5.1.2-1)-1) date 2021-11-09 11:57:47*
%MOMM*%
%LPD*%
G04 APERTURE LIST*
%ADD10C,0.100000*%
G04 APERTURE END LIST*
D10*
G36*
X49050680Y-76150680D02*
G01*
X46449320Y-76150680D01*
X46449320Y-73549320D01*
X49050680Y-73549320D01*
X49050680Y-76150680D01*
X49050680Y-76150680D01*
G37*
G36*
X73525331Y-72268211D02*
G01*
X73853092Y-72403974D01*
X74148070Y-72601072D01*
X74398928Y-72851930D01*
X74596026Y-73146908D01*
X74731789Y-73474669D01*
X74801000Y-73822616D01*
X74801000Y-74177384D01*
X74731789Y-74525331D01*
X74596026Y-74853092D01*
X74398928Y-75148070D01*
X74148070Y-75398928D01*
X73853092Y-75596026D01*
X73525331Y-75731789D01*
X73177384Y-75801000D01*
X72822616Y-75801000D01*
X72474669Y-75731789D01*
X72146908Y-75596026D01*
X71851930Y-75398928D01*
X71601072Y-75148070D01*
X71403974Y-74853092D01*
X71268211Y-74525331D01*
X71199000Y-74177384D01*
X71199000Y-73822616D01*
X71268211Y-73474669D01*
X71403974Y-73146908D01*
X71601072Y-72851930D01*
X71851930Y-72601072D01*
X72146908Y-72403974D01*
X72474669Y-72268211D01*
X72822616Y-72199000D01*
X73177384Y-72199000D01*
X73525331Y-72268211D01*
X73525331Y-72268211D01*
G37*
G36*
X17525331Y-72268211D02*
G01*
X17853092Y-72403974D01*
X18148070Y-72601072D01*
X18398928Y-72851930D01*
X18596026Y-73146908D01*
X18731789Y-73474669D01*
X18801000Y-73822616D01*
X18801000Y-74177384D01*
X18731789Y-74525331D01*
X18596026Y-74853092D01*
X18398928Y-75148070D01*
X18148070Y-75398928D01*
X17853092Y-75596026D01*
X17525331Y-75731789D01*
X17177384Y-75801000D01*
X16822616Y-75801000D01*
X16474669Y-75731789D01*
X16146908Y-75596026D01*
X15851930Y-75398928D01*
X15601072Y-75148070D01*
X15403974Y-74853092D01*
X15268211Y-74525331D01*
X15199000Y-74177384D01*
X15199000Y-73822616D01*
X15268211Y-73474669D01*
X15403974Y-73146908D01*
X15601072Y-72851930D01*
X15851930Y-72601072D01*
X16146908Y-72403974D01*
X16474669Y-72268211D01*
X16822616Y-72199000D01*
X17177384Y-72199000D01*
X17525331Y-72268211D01*
X17525331Y-72268211D01*
G37*
G36*
X38216719Y-72163522D02*
G01*
X38405880Y-72220903D01*
X38580211Y-72314085D01*
X38733014Y-72439487D01*
X38858416Y-72592290D01*
X38863110Y-72601072D01*
X38951597Y-72766619D01*
X38951598Y-72766622D01*
X39008979Y-72955783D01*
X39023499Y-73103209D01*
X39023499Y-73296796D01*
X39008979Y-73444222D01*
X38951598Y-73633383D01*
X38858416Y-73807714D01*
X38733014Y-73960517D01*
X38580211Y-74085919D01*
X38498332Y-74129684D01*
X38405882Y-74179100D01*
X38405879Y-74179101D01*
X38216718Y-74236482D01*
X38019999Y-74255857D01*
X37823279Y-74236482D01*
X37634118Y-74179101D01*
X37459787Y-74085919D01*
X37306984Y-73960517D01*
X37181582Y-73807714D01*
X37112174Y-73677860D01*
X37088401Y-73633385D01*
X37088400Y-73633382D01*
X37031019Y-73444221D01*
X37016499Y-73296795D01*
X37016499Y-73103208D01*
X37031019Y-72955782D01*
X37088400Y-72766621D01*
X37181582Y-72592290D01*
X37306984Y-72439487D01*
X37459787Y-72314085D01*
X37634119Y-72220903D01*
X37823280Y-72163522D01*
X38019999Y-72144147D01*
X38216719Y-72163522D01*
X38216719Y-72163522D01*
G37*
G36*
X40756719Y-72163522D02*
G01*
X40945880Y-72220903D01*
X41120211Y-72314085D01*
X41273014Y-72439487D01*
X41398416Y-72592290D01*
X41403110Y-72601072D01*
X41491597Y-72766619D01*
X41491598Y-72766622D01*
X41548979Y-72955783D01*
X41563499Y-73103209D01*
X41563499Y-73296796D01*
X41548979Y-73444222D01*
X41491598Y-73633383D01*
X41398416Y-73807714D01*
X41273014Y-73960517D01*
X41120211Y-74085919D01*
X41038332Y-74129684D01*
X40945882Y-74179100D01*
X40945879Y-74179101D01*
X40756718Y-74236482D01*
X40559999Y-74255857D01*
X40363279Y-74236482D01*
X40174118Y-74179101D01*
X39999787Y-74085919D01*
X39846984Y-73960517D01*
X39721582Y-73807714D01*
X39652174Y-73677860D01*
X39628401Y-73633385D01*
X39628400Y-73633382D01*
X39571019Y-73444221D01*
X39556499Y-73296795D01*
X39556499Y-73103208D01*
X39571019Y-72955782D01*
X39628400Y-72766621D01*
X39721582Y-72592290D01*
X39846984Y-72439487D01*
X39999787Y-72314085D01*
X40174119Y-72220903D01*
X40363280Y-72163522D01*
X40559999Y-72144147D01*
X40756719Y-72163522D01*
X40756719Y-72163522D01*
G37*
G36*
X44103499Y-74251002D02*
G01*
X42096499Y-74251002D01*
X42096499Y-72149002D01*
X44103499Y-72149002D01*
X44103499Y-74251002D01*
X44103499Y-74251002D01*
G37*
G36*
X33771058Y-72234514D02*
G01*
X33931477Y-72283177D01*
X34039057Y-72340680D01*
X34079313Y-72362197D01*
X34208894Y-72468542D01*
X34315239Y-72598123D01*
X34315240Y-72598125D01*
X34394259Y-72745959D01*
X34442922Y-72906378D01*
X34459352Y-73073201D01*
X34442922Y-73240024D01*
X34394259Y-73400443D01*
X34354585Y-73474668D01*
X34315239Y-73548279D01*
X34208894Y-73677860D01*
X34079313Y-73784205D01*
X34079311Y-73784206D01*
X33931477Y-73863225D01*
X33771058Y-73911888D01*
X33646039Y-73924201D01*
X33562431Y-73924201D01*
X33437412Y-73911888D01*
X33276993Y-73863225D01*
X33129159Y-73784206D01*
X33129157Y-73784205D01*
X32999576Y-73677860D01*
X32893231Y-73548279D01*
X32853885Y-73474668D01*
X32814211Y-73400443D01*
X32765548Y-73240024D01*
X32749118Y-73073201D01*
X32765548Y-72906378D01*
X32814211Y-72745959D01*
X32893230Y-72598125D01*
X32893231Y-72598123D01*
X32999576Y-72468542D01*
X33129157Y-72362197D01*
X33169413Y-72340680D01*
X33276993Y-72283177D01*
X33437412Y-72234514D01*
X33562431Y-72222201D01*
X33646039Y-72222201D01*
X33771058Y-72234514D01*
X33771058Y-72234514D01*
G37*
G36*
X26348228Y-70931705D02*
G01*
X26503100Y-70995855D01*
X26642481Y-71088987D01*
X26761015Y-71207521D01*
X26854147Y-71346902D01*
X26918297Y-71501774D01*
X26951000Y-71666186D01*
X26951000Y-71833818D01*
X26918297Y-71998230D01*
X26854147Y-72153102D01*
X26761015Y-72292483D01*
X26642481Y-72411017D01*
X26503100Y-72504149D01*
X26348228Y-72568299D01*
X26183816Y-72601002D01*
X26016184Y-72601002D01*
X25851772Y-72568299D01*
X25696900Y-72504149D01*
X25557519Y-72411017D01*
X25438985Y-72292483D01*
X25345853Y-72153102D01*
X25281703Y-71998230D01*
X25249000Y-71833818D01*
X25249000Y-71666186D01*
X25281703Y-71501774D01*
X25345853Y-71346902D01*
X25438985Y-71207521D01*
X25557519Y-71088987D01*
X25696900Y-70995855D01*
X25851772Y-70931705D01*
X26016184Y-70899002D01*
X26183816Y-70899002D01*
X26348228Y-70931705D01*
X26348228Y-70931705D01*
G37*
G36*
X48129393Y-69789304D02*
G01*
X48366101Y-69887352D01*
X48366103Y-69887353D01*
X48579135Y-70029696D01*
X48760304Y-70210865D01*
X48902647Y-70423897D01*
X48902648Y-70423899D01*
X49000696Y-70660607D01*
X49050680Y-70911893D01*
X49050680Y-71168107D01*
X49000696Y-71419393D01*
X48902648Y-71656101D01*
X48902647Y-71656103D01*
X48760304Y-71869135D01*
X48579135Y-72050304D01*
X48366103Y-72192647D01*
X48366102Y-72192648D01*
X48366101Y-72192648D01*
X48129393Y-72290696D01*
X47878107Y-72340680D01*
X47621893Y-72340680D01*
X47370607Y-72290696D01*
X47133899Y-72192648D01*
X47133898Y-72192648D01*
X47133897Y-72192647D01*
X46920865Y-72050304D01*
X46739696Y-71869135D01*
X46597353Y-71656103D01*
X46597352Y-71656101D01*
X46499304Y-71419393D01*
X46449320Y-71168107D01*
X46449320Y-70911893D01*
X46499304Y-70660607D01*
X46597352Y-70423899D01*
X46597353Y-70423897D01*
X46739696Y-70210865D01*
X46920865Y-70029696D01*
X47133897Y-69887353D01*
X47133899Y-69887352D01*
X47370607Y-69789304D01*
X47621893Y-69739320D01*
X47878107Y-69739320D01*
X48129393Y-69789304D01*
X48129393Y-69789304D01*
G37*
G36*
X35777964Y-68824429D02*
G01*
X33861321Y-70432684D01*
X32253066Y-68516041D01*
X34169709Y-66907786D01*
X35777964Y-68824429D01*
X35777964Y-68824429D01*
G37*
G36*
X29498230Y-68431700D02*
G01*
X29653102Y-68495850D01*
X29792483Y-68588982D01*
X29911017Y-68707516D01*
X30004149Y-68846897D01*
X30068299Y-69001769D01*
X30101002Y-69166181D01*
X30101002Y-69333813D01*
X30068299Y-69498225D01*
X30004149Y-69653097D01*
X29911017Y-69792478D01*
X29792483Y-69911012D01*
X29653102Y-70004144D01*
X29498230Y-70068294D01*
X29333818Y-70100997D01*
X29166186Y-70100997D01*
X29001774Y-70068294D01*
X28846902Y-70004144D01*
X28707521Y-69911012D01*
X28588987Y-69792478D01*
X28495855Y-69653097D01*
X28431705Y-69498225D01*
X28399002Y-69333813D01*
X28399002Y-69166181D01*
X28431705Y-69001769D01*
X28495855Y-68846897D01*
X28588987Y-68707516D01*
X28707521Y-68588982D01*
X28846902Y-68495850D01*
X29001774Y-68431700D01*
X29166186Y-68398997D01*
X29333818Y-68398997D01*
X29498230Y-68431700D01*
X29498230Y-68431700D01*
G37*
G36*
X41368827Y-67451787D02*
G01*
X41596495Y-67546090D01*
X41801390Y-67682997D01*
X41975639Y-67857246D01*
X42112546Y-68062141D01*
X42112547Y-68062143D01*
X42206849Y-68289809D01*
X42254924Y-68531498D01*
X42254924Y-68777926D01*
X42206849Y-69019615D01*
X42146140Y-69166181D01*
X42112546Y-69247283D01*
X41975639Y-69452178D01*
X41801390Y-69626427D01*
X41596495Y-69763334D01*
X41596494Y-69763335D01*
X41596493Y-69763335D01*
X41368827Y-69857637D01*
X41127138Y-69905712D01*
X40880710Y-69905712D01*
X40639021Y-69857637D01*
X40411355Y-69763335D01*
X40411354Y-69763335D01*
X40411353Y-69763334D01*
X40206458Y-69626427D01*
X40032209Y-69452178D01*
X39895302Y-69247283D01*
X39861709Y-69166181D01*
X39800999Y-69019615D01*
X39752924Y-68777926D01*
X39752924Y-68531498D01*
X39800999Y-68289809D01*
X39895301Y-68062143D01*
X39895302Y-68062141D01*
X40032209Y-67857246D01*
X40206458Y-67682997D01*
X40411353Y-67546090D01*
X40639021Y-67451787D01*
X40880710Y-67403712D01*
X41127138Y-67403712D01*
X41368827Y-67451787D01*
X41368827Y-67451787D01*
G37*
G36*
X45352189Y-68403359D02*
G01*
X43001078Y-69259094D01*
X42145343Y-66907983D01*
X44496454Y-66052248D01*
X45352189Y-68403359D01*
X45352189Y-68403359D01*
G37*
G36*
X36618034Y-65589728D02*
G01*
X36845702Y-65684031D01*
X37050597Y-65820938D01*
X37224846Y-65995187D01*
X37361753Y-66200082D01*
X37456056Y-66427750D01*
X37504131Y-66669440D01*
X37504131Y-66915866D01*
X37456056Y-67157556D01*
X37361753Y-67385224D01*
X37224846Y-67590119D01*
X37050597Y-67764368D01*
X36845702Y-67901275D01*
X36845701Y-67901276D01*
X36845700Y-67901276D01*
X36618034Y-67995578D01*
X36376345Y-68043653D01*
X36129917Y-68043653D01*
X35888228Y-67995578D01*
X35660562Y-67901276D01*
X35660561Y-67901276D01*
X35660560Y-67901275D01*
X35455665Y-67764368D01*
X35281416Y-67590119D01*
X35144509Y-67385224D01*
X35050206Y-67157556D01*
X35002131Y-66915866D01*
X35002131Y-66669440D01*
X35050206Y-66427750D01*
X35144509Y-66200082D01*
X35281416Y-65995187D01*
X35455665Y-65820938D01*
X35660560Y-65684031D01*
X35888228Y-65589728D01*
X36129917Y-65541653D01*
X36376345Y-65541653D01*
X36618034Y-65589728D01*
X36618034Y-65589728D01*
G37*
G36*
X56441816Y-63526558D02*
G01*
X56602235Y-63575221D01*
X56734899Y-63646131D01*
X56750071Y-63654241D01*
X56879652Y-63760586D01*
X56985997Y-63890167D01*
X56985998Y-63890169D01*
X57065017Y-64038003D01*
X57113680Y-64198422D01*
X57130110Y-64365245D01*
X57113680Y-64532068D01*
X57065017Y-64692487D01*
X56999881Y-64814347D01*
X56985997Y-64840323D01*
X56879652Y-64969904D01*
X56750071Y-65076249D01*
X56750069Y-65076250D01*
X56602235Y-65155269D01*
X56441816Y-65203932D01*
X56316797Y-65216245D01*
X56233189Y-65216245D01*
X56108170Y-65203932D01*
X55947751Y-65155269D01*
X55799917Y-65076250D01*
X55799915Y-65076249D01*
X55670334Y-64969904D01*
X55563989Y-64840323D01*
X55550105Y-64814347D01*
X55484969Y-64692487D01*
X55436306Y-64532068D01*
X55419876Y-64365245D01*
X55436306Y-64198422D01*
X55484969Y-64038003D01*
X55563988Y-63890169D01*
X55563989Y-63890167D01*
X55670334Y-63760586D01*
X55799915Y-63654241D01*
X55815087Y-63646131D01*
X55947751Y-63575221D01*
X56108170Y-63526558D01*
X56233189Y-63514245D01*
X56316797Y-63514245D01*
X56441816Y-63526558D01*
X56441816Y-63526558D01*
G37*
G36*
X67289757Y-63241903D02*
G01*
X67444629Y-63306053D01*
X67584010Y-63399185D01*
X67702544Y-63517719D01*
X67795676Y-63657100D01*
X67859826Y-63811972D01*
X67892529Y-63976384D01*
X67892529Y-64144016D01*
X67859826Y-64308428D01*
X67795676Y-64463300D01*
X67702544Y-64602681D01*
X67584010Y-64721215D01*
X67444629Y-64814347D01*
X67289757Y-64878497D01*
X67125345Y-64911200D01*
X66957713Y-64911200D01*
X66793301Y-64878497D01*
X66638429Y-64814347D01*
X66499048Y-64721215D01*
X66380514Y-64602681D01*
X66287382Y-64463300D01*
X66223232Y-64308428D01*
X66190529Y-64144016D01*
X66190529Y-63976384D01*
X66223232Y-63811972D01*
X66287382Y-63657100D01*
X66380514Y-63517719D01*
X66499048Y-63399185D01*
X66638429Y-63306053D01*
X66793301Y-63241903D01*
X66957713Y-63209200D01*
X67125345Y-63209200D01*
X67289757Y-63241903D01*
X67289757Y-63241903D01*
G37*
G36*
X43750682Y-64050679D02*
G01*
X41149322Y-64050679D01*
X41149322Y-61449319D01*
X43750682Y-61449319D01*
X43750682Y-64050679D01*
X43750682Y-64050679D01*
G37*
G36*
X39019395Y-61499303D02*
G01*
X39256103Y-61597351D01*
X39256105Y-61597352D01*
X39469137Y-61739695D01*
X39650306Y-61920864D01*
X39792649Y-62133896D01*
X39792650Y-62133898D01*
X39890698Y-62370606D01*
X39940682Y-62621892D01*
X39940682Y-62878106D01*
X39890698Y-63129392D01*
X39844094Y-63241903D01*
X39792649Y-63366102D01*
X39650306Y-63579134D01*
X39469137Y-63760303D01*
X39256105Y-63902646D01*
X39256104Y-63902647D01*
X39256103Y-63902647D01*
X39019395Y-64000695D01*
X38768109Y-64050679D01*
X38511895Y-64050679D01*
X38260609Y-64000695D01*
X38023901Y-63902647D01*
X38023900Y-63902647D01*
X38023899Y-63902646D01*
X37810867Y-63760303D01*
X37629698Y-63579134D01*
X37487355Y-63366102D01*
X37435910Y-63241903D01*
X37389306Y-63129392D01*
X37339322Y-62878106D01*
X37339322Y-62621892D01*
X37389306Y-62370606D01*
X37487354Y-62133898D01*
X37487355Y-62133896D01*
X37629698Y-61920864D01*
X37810867Y-61739695D01*
X38023899Y-61597352D01*
X38023901Y-61597351D01*
X38260609Y-61499303D01*
X38511895Y-61449319D01*
X38768109Y-61449319D01*
X39019395Y-61499303D01*
X39019395Y-61499303D01*
G37*
G36*
X35329391Y-61449305D02*
G01*
X35566099Y-61547353D01*
X35566101Y-61547354D01*
X35779133Y-61689697D01*
X35960302Y-61870866D01*
X36064451Y-62026737D01*
X36102646Y-62083900D01*
X36200694Y-62320608D01*
X36250678Y-62571894D01*
X36250678Y-62828108D01*
X36200694Y-63079394D01*
X36106809Y-63306052D01*
X36102645Y-63316104D01*
X35960302Y-63529136D01*
X35779133Y-63710305D01*
X35566101Y-63852648D01*
X35566100Y-63852649D01*
X35566099Y-63852649D01*
X35329391Y-63950697D01*
X35078105Y-64000681D01*
X34821891Y-64000681D01*
X34570605Y-63950697D01*
X34333897Y-63852649D01*
X34333896Y-63852649D01*
X34333895Y-63852648D01*
X34120863Y-63710305D01*
X33939694Y-63529136D01*
X33797351Y-63316104D01*
X33793187Y-63306052D01*
X33699302Y-63079394D01*
X33649318Y-62828108D01*
X33649318Y-62571894D01*
X33699302Y-62320608D01*
X33797350Y-62083900D01*
X33835545Y-62026737D01*
X33939694Y-61870866D01*
X34120863Y-61689697D01*
X34333895Y-61547354D01*
X34333897Y-61547353D01*
X34570605Y-61449305D01*
X34821891Y-61399321D01*
X35078105Y-61399321D01*
X35329391Y-61449305D01*
X35329391Y-61449305D01*
G37*
G36*
X59704117Y-61898314D02*
G01*
X59864536Y-61946977D01*
X59997200Y-62017887D01*
X60012372Y-62025997D01*
X60141953Y-62132342D01*
X60248298Y-62261923D01*
X60248299Y-62261925D01*
X60327318Y-62409759D01*
X60375981Y-62570178D01*
X60392411Y-62737001D01*
X60375981Y-62903824D01*
X60327318Y-63064243D01*
X60256408Y-63196907D01*
X60248298Y-63212079D01*
X60141953Y-63341660D01*
X60012372Y-63448005D01*
X60012370Y-63448006D01*
X59864536Y-63527025D01*
X59864533Y-63527026D01*
X59857577Y-63529136D01*
X59704117Y-63575688D01*
X59579098Y-63588001D01*
X59495490Y-63588001D01*
X59370471Y-63575688D01*
X59217011Y-63529136D01*
X59210055Y-63527026D01*
X59210052Y-63527025D01*
X59062218Y-63448006D01*
X59062216Y-63448005D01*
X58932635Y-63341660D01*
X58826290Y-63212079D01*
X58818180Y-63196907D01*
X58747270Y-63064243D01*
X58698607Y-62903824D01*
X58682177Y-62737001D01*
X58698607Y-62570178D01*
X58747270Y-62409759D01*
X58826289Y-62261925D01*
X58826290Y-62261923D01*
X58932635Y-62132342D01*
X59062216Y-62025997D01*
X59077388Y-62017887D01*
X59210052Y-61946977D01*
X59370471Y-61898314D01*
X59495490Y-61886001D01*
X59579098Y-61886001D01*
X59704117Y-61898314D01*
X59704117Y-61898314D01*
G37*
G36*
X26804393Y-60124304D02*
G01*
X27041101Y-60222352D01*
X27041103Y-60222353D01*
X27254135Y-60364696D01*
X27435304Y-60545865D01*
X27558412Y-60730110D01*
X27577648Y-60758899D01*
X27675696Y-60995607D01*
X27725680Y-61246893D01*
X27725680Y-61503107D01*
X27675696Y-61754393D01*
X27606741Y-61920864D01*
X27577647Y-61991103D01*
X27435304Y-62204135D01*
X27254135Y-62385304D01*
X27041103Y-62527647D01*
X27041102Y-62527648D01*
X27041101Y-62527648D01*
X26804393Y-62625696D01*
X26553107Y-62675680D01*
X26296893Y-62675680D01*
X26045607Y-62625696D01*
X25808899Y-62527648D01*
X25808898Y-62527648D01*
X25808897Y-62527647D01*
X25595865Y-62385304D01*
X25414696Y-62204135D01*
X25272353Y-61991103D01*
X25243259Y-61920864D01*
X25174304Y-61754393D01*
X25124320Y-61503107D01*
X25124320Y-61246893D01*
X25174304Y-60995607D01*
X25272352Y-60758899D01*
X25291588Y-60730110D01*
X25414696Y-60545865D01*
X25595865Y-60364696D01*
X25808897Y-60222353D01*
X25808899Y-60222352D01*
X26045607Y-60124304D01*
X26296893Y-60074320D01*
X26553107Y-60074320D01*
X26804393Y-60124304D01*
X26804393Y-60124304D01*
G37*
G36*
X30740024Y-60907075D02*
G01*
X30900443Y-60955738D01*
X31033107Y-61026648D01*
X31048279Y-61034758D01*
X31177860Y-61141103D01*
X31284205Y-61270684D01*
X31284206Y-61270686D01*
X31363225Y-61418520D01*
X31411888Y-61578939D01*
X31428318Y-61745762D01*
X31411888Y-61912585D01*
X31363225Y-62073004D01*
X31330676Y-62133898D01*
X31284205Y-62220840D01*
X31177860Y-62350421D01*
X31048279Y-62456766D01*
X31048277Y-62456767D01*
X30900443Y-62535786D01*
X30740024Y-62584449D01*
X30615005Y-62596762D01*
X30531397Y-62596762D01*
X30406378Y-62584449D01*
X30245959Y-62535786D01*
X30098125Y-62456767D01*
X30098123Y-62456766D01*
X29968542Y-62350421D01*
X29862197Y-62220840D01*
X29815726Y-62133898D01*
X29783177Y-62073004D01*
X29734514Y-61912585D01*
X29718084Y-61745762D01*
X29734514Y-61578939D01*
X29783177Y-61418520D01*
X29862196Y-61270686D01*
X29862197Y-61270684D01*
X29968542Y-61141103D01*
X30098123Y-61034758D01*
X30113295Y-61026648D01*
X30245959Y-60955738D01*
X30406378Y-60907075D01*
X30531397Y-60894762D01*
X30615005Y-60894762D01*
X30740024Y-60907075D01*
X30740024Y-60907075D01*
G37*
G36*
X53832621Y-60665960D02*
G01*
X53987493Y-60730110D01*
X54126874Y-60823242D01*
X54245408Y-60941776D01*
X54338540Y-61081157D01*
X54402690Y-61236029D01*
X54435393Y-61400441D01*
X54435393Y-61568073D01*
X54402690Y-61732485D01*
X54338540Y-61887357D01*
X54245408Y-62026738D01*
X54126874Y-62145272D01*
X53987493Y-62238404D01*
X53832621Y-62302554D01*
X53668209Y-62335257D01*
X53500577Y-62335257D01*
X53336165Y-62302554D01*
X53181293Y-62238404D01*
X53041912Y-62145272D01*
X52923378Y-62026738D01*
X52830246Y-61887357D01*
X52766096Y-61732485D01*
X52733393Y-61568073D01*
X52733393Y-61400441D01*
X52766096Y-61236029D01*
X52830246Y-61081157D01*
X52923378Y-60941776D01*
X53041912Y-60823242D01*
X53181293Y-60730110D01*
X53336165Y-60665960D01*
X53500577Y-60633257D01*
X53668209Y-60633257D01*
X53832621Y-60665960D01*
X53832621Y-60665960D01*
G37*
G36*
X60996004Y-59436006D02*
G01*
X60996006Y-59436007D01*
X60996007Y-59436007D01*
X61137230Y-59494503D01*
X61137233Y-59494505D01*
X61264325Y-59579425D01*
X61372417Y-59687517D01*
X61457337Y-59814609D01*
X61457339Y-59814612D01*
X61483916Y-59878776D01*
X61515836Y-59955838D01*
X61545656Y-60105755D01*
X61545656Y-60258617D01*
X61524556Y-60364696D01*
X61515835Y-60408537D01*
X61457339Y-60549760D01*
X61457337Y-60549763D01*
X61372417Y-60676855D01*
X61264325Y-60784947D01*
X61207012Y-60823242D01*
X61137230Y-60869869D01*
X60996007Y-60928365D01*
X60996006Y-60928365D01*
X60996004Y-60928366D01*
X60846087Y-60958186D01*
X60693225Y-60958186D01*
X60543308Y-60928366D01*
X60543306Y-60928365D01*
X60543305Y-60928365D01*
X60402082Y-60869869D01*
X60332300Y-60823242D01*
X60274987Y-60784947D01*
X60166895Y-60676855D01*
X60081975Y-60549763D01*
X60081973Y-60549760D01*
X60023477Y-60408537D01*
X60014757Y-60364696D01*
X59993656Y-60258617D01*
X59993656Y-60105755D01*
X60023476Y-59955838D01*
X60055396Y-59878776D01*
X60081973Y-59814612D01*
X60081975Y-59814609D01*
X60166895Y-59687517D01*
X60274987Y-59579425D01*
X60402079Y-59494505D01*
X60402082Y-59494503D01*
X60543305Y-59436007D01*
X60543306Y-59436007D01*
X60543308Y-59436006D01*
X60693225Y-59406186D01*
X60846087Y-59406186D01*
X60996004Y-59436006D01*
X60996004Y-59436006D01*
G37*
G36*
X69181560Y-57849254D02*
G01*
X68747093Y-60313243D01*
X66283104Y-59878776D01*
X66717571Y-57414787D01*
X69181560Y-57849254D01*
X69181560Y-57849254D01*
G37*
G36*
X65220611Y-57153864D02*
G01*
X65383255Y-57221233D01*
X65448279Y-57248167D01*
X65653174Y-57385074D01*
X65827423Y-57559323D01*
X65959644Y-57757205D01*
X65964331Y-57764220D01*
X66058633Y-57991886D01*
X66093287Y-58166101D01*
X66106708Y-58233576D01*
X66106708Y-58480002D01*
X66058633Y-58721692D01*
X65964330Y-58949360D01*
X65827423Y-59154255D01*
X65653174Y-59328504D01*
X65448279Y-59465411D01*
X65448278Y-59465412D01*
X65448277Y-59465412D01*
X65220611Y-59559714D01*
X64978922Y-59607789D01*
X64732494Y-59607789D01*
X64490805Y-59559714D01*
X64263139Y-59465412D01*
X64263138Y-59465412D01*
X64263137Y-59465411D01*
X64058242Y-59328504D01*
X63883993Y-59154255D01*
X63747086Y-58949360D01*
X63652783Y-58721692D01*
X63604708Y-58480002D01*
X63604708Y-58233576D01*
X63618130Y-58166101D01*
X63652783Y-57991886D01*
X63747085Y-57764220D01*
X63751772Y-57757205D01*
X63883993Y-57559323D01*
X64058242Y-57385074D01*
X64263137Y-57248167D01*
X64328162Y-57221233D01*
X64490805Y-57153864D01*
X64732494Y-57105789D01*
X64978922Y-57105789D01*
X65220611Y-57153864D01*
X65220611Y-57153864D01*
G37*
G36*
X25579393Y-56299304D02*
G01*
X25816101Y-56397352D01*
X25816103Y-56397353D01*
X26029135Y-56539696D01*
X26210304Y-56720865D01*
X26352647Y-56933897D01*
X26352648Y-56933899D01*
X26450696Y-57170607D01*
X26500680Y-57421893D01*
X26500680Y-57678107D01*
X26450696Y-57929393D01*
X26352648Y-58166101D01*
X26352647Y-58166103D01*
X26210304Y-58379135D01*
X26029135Y-58560304D01*
X25816103Y-58702647D01*
X25816102Y-58702648D01*
X25816101Y-58702648D01*
X25579393Y-58800696D01*
X25328107Y-58850680D01*
X25071893Y-58850680D01*
X24820607Y-58800696D01*
X24583899Y-58702648D01*
X24583898Y-58702648D01*
X24583897Y-58702647D01*
X24370865Y-58560304D01*
X24189696Y-58379135D01*
X24047353Y-58166103D01*
X24047352Y-58166101D01*
X23949304Y-57929393D01*
X23899320Y-57678107D01*
X23899320Y-57421893D01*
X23949304Y-57170607D01*
X24047352Y-56933899D01*
X24047353Y-56933897D01*
X24189696Y-56720865D01*
X24370865Y-56539696D01*
X24583897Y-56397353D01*
X24583899Y-56397352D01*
X24820607Y-56299304D01*
X25071893Y-56249320D01*
X25328107Y-56249320D01*
X25579393Y-56299304D01*
X25579393Y-56299304D01*
G37*
G36*
X61437070Y-56934594D02*
G01*
X61437072Y-56934595D01*
X61437073Y-56934595D01*
X61578296Y-56993091D01*
X61578299Y-56993093D01*
X61705391Y-57078013D01*
X61813483Y-57186105D01*
X61854951Y-57248167D01*
X61898405Y-57313200D01*
X61943427Y-57421894D01*
X61956902Y-57454426D01*
X61986722Y-57604343D01*
X61986722Y-57757205D01*
X61968413Y-57849254D01*
X61956901Y-57907125D01*
X61898405Y-58048348D01*
X61898403Y-58048351D01*
X61813483Y-58175443D01*
X61705391Y-58283535D01*
X61578299Y-58368455D01*
X61578296Y-58368457D01*
X61437073Y-58426953D01*
X61437072Y-58426953D01*
X61437070Y-58426954D01*
X61287153Y-58456774D01*
X61134291Y-58456774D01*
X60984374Y-58426954D01*
X60984372Y-58426953D01*
X60984371Y-58426953D01*
X60843148Y-58368457D01*
X60843145Y-58368455D01*
X60716053Y-58283535D01*
X60607961Y-58175443D01*
X60523041Y-58048351D01*
X60523039Y-58048348D01*
X60464543Y-57907125D01*
X60453032Y-57849254D01*
X60434722Y-57757205D01*
X60434722Y-57604343D01*
X60464542Y-57454426D01*
X60478017Y-57421894D01*
X60523039Y-57313200D01*
X60566493Y-57248167D01*
X60607961Y-57186105D01*
X60716053Y-57078013D01*
X60843145Y-56993093D01*
X60843148Y-56993091D01*
X60984371Y-56934595D01*
X60984372Y-56934595D01*
X60984374Y-56934594D01*
X61134291Y-56904774D01*
X61287153Y-56904774D01*
X61437070Y-56934594D01*
X61437070Y-56934594D01*
G37*
G36*
X57846420Y-56042713D02*
G01*
X58001292Y-56106863D01*
X58140673Y-56199995D01*
X58259207Y-56318529D01*
X58352339Y-56457910D01*
X58416489Y-56612782D01*
X58449192Y-56777194D01*
X58449192Y-56944826D01*
X58416489Y-57109238D01*
X58352339Y-57264110D01*
X58259207Y-57403491D01*
X58140673Y-57522025D01*
X58001292Y-57615157D01*
X57846420Y-57679307D01*
X57682008Y-57712010D01*
X57514376Y-57712010D01*
X57349964Y-57679307D01*
X57195092Y-57615157D01*
X57055711Y-57522025D01*
X56937177Y-57403491D01*
X56844045Y-57264110D01*
X56779895Y-57109238D01*
X56747192Y-56944826D01*
X56747192Y-56777194D01*
X56779895Y-56612782D01*
X56844045Y-56457910D01*
X56937177Y-56318529D01*
X57055711Y-56199995D01*
X57195092Y-56106863D01*
X57349964Y-56042713D01*
X57514376Y-56010010D01*
X57682008Y-56010010D01*
X57846420Y-56042713D01*
X57846420Y-56042713D01*
G37*
G36*
X54700862Y-55741921D02*
G01*
X54855734Y-55806071D01*
X54995115Y-55899203D01*
X55113649Y-56017737D01*
X55206781Y-56157118D01*
X55270931Y-56311990D01*
X55303634Y-56476402D01*
X55303634Y-56644034D01*
X55270931Y-56808446D01*
X55206781Y-56963318D01*
X55113649Y-57102699D01*
X54995115Y-57221233D01*
X54855734Y-57314365D01*
X54700862Y-57378515D01*
X54536450Y-57411218D01*
X54368818Y-57411218D01*
X54204406Y-57378515D01*
X54049534Y-57314365D01*
X53910153Y-57221233D01*
X53791619Y-57102699D01*
X53698487Y-56963318D01*
X53634337Y-56808446D01*
X53601634Y-56644034D01*
X53601634Y-56476402D01*
X53634337Y-56311990D01*
X53698487Y-56157118D01*
X53791619Y-56017737D01*
X53910153Y-55899203D01*
X54049534Y-55806071D01*
X54204406Y-55741921D01*
X54368818Y-55709218D01*
X54536450Y-55709218D01*
X54700862Y-55741921D01*
X54700862Y-55741921D01*
G37*
G36*
X36936823Y-55381313D02*
G01*
X37097242Y-55429976D01*
X37229906Y-55500886D01*
X37245078Y-55508996D01*
X37374659Y-55615341D01*
X37481004Y-55744922D01*
X37481005Y-55744924D01*
X37560024Y-55892758D01*
X37608687Y-56053177D01*
X37625117Y-56220000D01*
X37608687Y-56386823D01*
X37560024Y-56547242D01*
X37489114Y-56679906D01*
X37481004Y-56695078D01*
X37374659Y-56824659D01*
X37245078Y-56931004D01*
X37238360Y-56934595D01*
X37097242Y-57010024D01*
X36936823Y-57058687D01*
X36811804Y-57071000D01*
X36728196Y-57071000D01*
X36603177Y-57058687D01*
X36442758Y-57010024D01*
X36301640Y-56934595D01*
X36294922Y-56931004D01*
X36165341Y-56824659D01*
X36058996Y-56695078D01*
X36050886Y-56679906D01*
X35979976Y-56547242D01*
X35931313Y-56386823D01*
X35914883Y-56220000D01*
X35931313Y-56053177D01*
X35979976Y-55892758D01*
X36058995Y-55744924D01*
X36058996Y-55744922D01*
X36165341Y-55615341D01*
X36294922Y-55508996D01*
X36310094Y-55500886D01*
X36442758Y-55429976D01*
X36603177Y-55381313D01*
X36728196Y-55369000D01*
X36811804Y-55369000D01*
X36936823Y-55381313D01*
X36936823Y-55381313D01*
G37*
G36*
X29316823Y-55381313D02*
G01*
X29477242Y-55429976D01*
X29609906Y-55500886D01*
X29625078Y-55508996D01*
X29754659Y-55615341D01*
X29861004Y-55744922D01*
X29861005Y-55744924D01*
X29940024Y-55892758D01*
X29988687Y-56053177D01*
X30005117Y-56220000D01*
X29988687Y-56386823D01*
X29940024Y-56547242D01*
X29869114Y-56679906D01*
X29861004Y-56695078D01*
X29754659Y-56824659D01*
X29625078Y-56931004D01*
X29618360Y-56934595D01*
X29477242Y-57010024D01*
X29316823Y-57058687D01*
X29191804Y-57071000D01*
X29108196Y-57071000D01*
X28983177Y-57058687D01*
X28822758Y-57010024D01*
X28681640Y-56934595D01*
X28674922Y-56931004D01*
X28545341Y-56824659D01*
X28438996Y-56695078D01*
X28430886Y-56679906D01*
X28359976Y-56547242D01*
X28311313Y-56386823D01*
X28294883Y-56220000D01*
X28311313Y-56053177D01*
X28359976Y-55892758D01*
X28438995Y-55744924D01*
X28438996Y-55744922D01*
X28545341Y-55615341D01*
X28674922Y-55508996D01*
X28690094Y-55500886D01*
X28822758Y-55429976D01*
X28983177Y-55381313D01*
X29108196Y-55369000D01*
X29191804Y-55369000D01*
X29316823Y-55381313D01*
X29316823Y-55381313D01*
G37*
G36*
X71598228Y-54681703D02*
G01*
X71753100Y-54745853D01*
X71892481Y-54838985D01*
X72011015Y-54957519D01*
X72104147Y-55096900D01*
X72168297Y-55251772D01*
X72201000Y-55416184D01*
X72201000Y-55583816D01*
X72168297Y-55748228D01*
X72104147Y-55903100D01*
X72011015Y-56042481D01*
X71892481Y-56161015D01*
X71753100Y-56254147D01*
X71598228Y-56318297D01*
X71433816Y-56351000D01*
X71266184Y-56351000D01*
X71101772Y-56318297D01*
X70946900Y-56254147D01*
X70807519Y-56161015D01*
X70688985Y-56042481D01*
X70595853Y-55903100D01*
X70531703Y-55748228D01*
X70499000Y-55583816D01*
X70499000Y-55416184D01*
X70531703Y-55251772D01*
X70595853Y-55096900D01*
X70688985Y-54957519D01*
X70807519Y-54838985D01*
X70946900Y-54745853D01*
X71101772Y-54681703D01*
X71266184Y-54649000D01*
X71433816Y-54649000D01*
X71598228Y-54681703D01*
X71598228Y-54681703D01*
G37*
G36*
X48766823Y-54431313D02*
G01*
X48927242Y-54479976D01*
X48999663Y-54518686D01*
X49075078Y-54558996D01*
X49204659Y-54665341D01*
X49311004Y-54794922D01*
X49311005Y-54794924D01*
X49390024Y-54942758D01*
X49438687Y-55103177D01*
X49455117Y-55270000D01*
X49438687Y-55436823D01*
X49390024Y-55597242D01*
X49319114Y-55729906D01*
X49311004Y-55745078D01*
X49204659Y-55874659D01*
X49075078Y-55981004D01*
X49075076Y-55981005D01*
X48927242Y-56060024D01*
X48766823Y-56108687D01*
X48641804Y-56121000D01*
X48558196Y-56121000D01*
X48433177Y-56108687D01*
X48272758Y-56060024D01*
X48124924Y-55981005D01*
X48124922Y-55981004D01*
X47995341Y-55874659D01*
X47888996Y-55745078D01*
X47880886Y-55729906D01*
X47809976Y-55597242D01*
X47761313Y-55436823D01*
X47744883Y-55270000D01*
X47761313Y-55103177D01*
X47809976Y-54942758D01*
X47888995Y-54794924D01*
X47888996Y-54794922D01*
X47995341Y-54665341D01*
X48124922Y-54558996D01*
X48200337Y-54518686D01*
X48272758Y-54479976D01*
X48433177Y-54431313D01*
X48558196Y-54419000D01*
X48641804Y-54419000D01*
X48766823Y-54431313D01*
X48766823Y-54431313D01*
G37*
G36*
X46226823Y-54431313D02*
G01*
X46387242Y-54479976D01*
X46459663Y-54518686D01*
X46535078Y-54558996D01*
X46664659Y-54665341D01*
X46771004Y-54794922D01*
X46771005Y-54794924D01*
X46850024Y-54942758D01*
X46898687Y-55103177D01*
X46915117Y-55270000D01*
X46898687Y-55436823D01*
X46850024Y-55597242D01*
X46779114Y-55729906D01*
X46771004Y-55745078D01*
X46664659Y-55874659D01*
X46535078Y-55981004D01*
X46535076Y-55981005D01*
X46387242Y-56060024D01*
X46226823Y-56108687D01*
X46101804Y-56121000D01*
X46018196Y-56121000D01*
X45893177Y-56108687D01*
X45732758Y-56060024D01*
X45584924Y-55981005D01*
X45584922Y-55981004D01*
X45455341Y-55874659D01*
X45348996Y-55745078D01*
X45340886Y-55729906D01*
X45269976Y-55597242D01*
X45221313Y-55436823D01*
X45204883Y-55270000D01*
X45221313Y-55103177D01*
X45269976Y-54942758D01*
X45348995Y-54794924D01*
X45348996Y-54794922D01*
X45455341Y-54665341D01*
X45584922Y-54558996D01*
X45660337Y-54518686D01*
X45732758Y-54479976D01*
X45893177Y-54431313D01*
X46018196Y-54419000D01*
X46101804Y-54419000D01*
X46226823Y-54431313D01*
X46226823Y-54431313D01*
G37*
G36*
X43686823Y-54431313D02*
G01*
X43847242Y-54479976D01*
X43919663Y-54518686D01*
X43995078Y-54558996D01*
X44124659Y-54665341D01*
X44231004Y-54794922D01*
X44231005Y-54794924D01*
X44310024Y-54942758D01*
X44358687Y-55103177D01*
X44375117Y-55270000D01*
X44358687Y-55436823D01*
X44310024Y-55597242D01*
X44239114Y-55729906D01*
X44231004Y-55745078D01*
X44124659Y-55874659D01*
X43995078Y-55981004D01*
X43995076Y-55981005D01*
X43847242Y-56060024D01*
X43686823Y-56108687D01*
X43561804Y-56121000D01*
X43478196Y-56121000D01*
X43353177Y-56108687D01*
X43192758Y-56060024D01*
X43044924Y-55981005D01*
X43044922Y-55981004D01*
X42915341Y-55874659D01*
X42808996Y-55745078D01*
X42800886Y-55729906D01*
X42729976Y-55597242D01*
X42681313Y-55436823D01*
X42664883Y-55270000D01*
X42681313Y-55103177D01*
X42729976Y-54942758D01*
X42808995Y-54794924D01*
X42808996Y-54794922D01*
X42915341Y-54665341D01*
X43044922Y-54558996D01*
X43120337Y-54518686D01*
X43192758Y-54479976D01*
X43353177Y-54431313D01*
X43478196Y-54419000D01*
X43561804Y-54419000D01*
X43686823Y-54431313D01*
X43686823Y-54431313D01*
G37*
G36*
X41146823Y-54431313D02*
G01*
X41307242Y-54479976D01*
X41379663Y-54518686D01*
X41455078Y-54558996D01*
X41584659Y-54665341D01*
X41691004Y-54794922D01*
X41691005Y-54794924D01*
X41770024Y-54942758D01*
X41818687Y-55103177D01*
X41835117Y-55270000D01*
X41818687Y-55436823D01*
X41770024Y-55597242D01*
X41699114Y-55729906D01*
X41691004Y-55745078D01*
X41584659Y-55874659D01*
X41455078Y-55981004D01*
X41455076Y-55981005D01*
X41307242Y-56060024D01*
X41146823Y-56108687D01*
X41021804Y-56121000D01*
X40938196Y-56121000D01*
X40813177Y-56108687D01*
X40652758Y-56060024D01*
X40504924Y-55981005D01*
X40504922Y-55981004D01*
X40375341Y-55874659D01*
X40268996Y-55745078D01*
X40260886Y-55729906D01*
X40189976Y-55597242D01*
X40141313Y-55436823D01*
X40124883Y-55270000D01*
X40141313Y-55103177D01*
X40189976Y-54942758D01*
X40268995Y-54794924D01*
X40268996Y-54794922D01*
X40375341Y-54665341D01*
X40504922Y-54558996D01*
X40580337Y-54518686D01*
X40652758Y-54479976D01*
X40813177Y-54431313D01*
X40938196Y-54419000D01*
X41021804Y-54419000D01*
X41146823Y-54431313D01*
X41146823Y-54431313D01*
G37*
G36*
X61878137Y-54433182D02*
G01*
X61878139Y-54433183D01*
X61878140Y-54433183D01*
X62019363Y-54491679D01*
X62019366Y-54491681D01*
X62146458Y-54576601D01*
X62254550Y-54684693D01*
X62328204Y-54794924D01*
X62339472Y-54811788D01*
X62354304Y-54847597D01*
X62397969Y-54953014D01*
X62427789Y-55102931D01*
X62427789Y-55255793D01*
X62402822Y-55381314D01*
X62397968Y-55405713D01*
X62339472Y-55546936D01*
X62339470Y-55546939D01*
X62254550Y-55674031D01*
X62146458Y-55782123D01*
X62110617Y-55806071D01*
X62019363Y-55867045D01*
X61878140Y-55925541D01*
X61878139Y-55925541D01*
X61878137Y-55925542D01*
X61728220Y-55955362D01*
X61575358Y-55955362D01*
X61425441Y-55925542D01*
X61425439Y-55925541D01*
X61425438Y-55925541D01*
X61284215Y-55867045D01*
X61192961Y-55806071D01*
X61157120Y-55782123D01*
X61049028Y-55674031D01*
X60964108Y-55546939D01*
X60964106Y-55546936D01*
X60905610Y-55405713D01*
X60900757Y-55381314D01*
X60875789Y-55255793D01*
X60875789Y-55102931D01*
X60905609Y-54953014D01*
X60949274Y-54847597D01*
X60964106Y-54811788D01*
X60975374Y-54794924D01*
X61049028Y-54684693D01*
X61157120Y-54576601D01*
X61284212Y-54491681D01*
X61284215Y-54491679D01*
X61425438Y-54433183D01*
X61425439Y-54433183D01*
X61425441Y-54433182D01*
X61575358Y-54403362D01*
X61728220Y-54403362D01*
X61878137Y-54433182D01*
X61878137Y-54433182D01*
G37*
G36*
X67052399Y-53297905D02*
G01*
X67212818Y-53346568D01*
X67293061Y-53389459D01*
X67360654Y-53425588D01*
X67490235Y-53531933D01*
X67596580Y-53661514D01*
X67596581Y-53661516D01*
X67675600Y-53809350D01*
X67724263Y-53969769D01*
X67740693Y-54136592D01*
X67724263Y-54303415D01*
X67675600Y-54463834D01*
X67660715Y-54491681D01*
X67596580Y-54611670D01*
X67490235Y-54741251D01*
X67360654Y-54847596D01*
X67360652Y-54847597D01*
X67212818Y-54926616D01*
X67052399Y-54975279D01*
X66927380Y-54987592D01*
X66843772Y-54987592D01*
X66718753Y-54975279D01*
X66558334Y-54926616D01*
X66410500Y-54847597D01*
X66410498Y-54847596D01*
X66280917Y-54741251D01*
X66174572Y-54611670D01*
X66110437Y-54491681D01*
X66095552Y-54463834D01*
X66046889Y-54303415D01*
X66030459Y-54136592D01*
X66046889Y-53969769D01*
X66095552Y-53809350D01*
X66174571Y-53661516D01*
X66174572Y-53661514D01*
X66280917Y-53531933D01*
X66410498Y-53425588D01*
X66478091Y-53389459D01*
X66558334Y-53346568D01*
X66718753Y-53297905D01*
X66843772Y-53285592D01*
X66927380Y-53285592D01*
X67052399Y-53297905D01*
X67052399Y-53297905D01*
G37*
G36*
X25579393Y-52249304D02*
G01*
X25726833Y-52310376D01*
X25816103Y-52347353D01*
X26029135Y-52489696D01*
X26210304Y-52670865D01*
X26315966Y-52829000D01*
X26352648Y-52883899D01*
X26450696Y-53120607D01*
X26500680Y-53371893D01*
X26500680Y-53628107D01*
X26450696Y-53879393D01*
X26352648Y-54116101D01*
X26352647Y-54116103D01*
X26210304Y-54329135D01*
X26029135Y-54510304D01*
X25816103Y-54652647D01*
X25816102Y-54652648D01*
X25816101Y-54652648D01*
X25579393Y-54750696D01*
X25328107Y-54800680D01*
X25071893Y-54800680D01*
X24820607Y-54750696D01*
X24583899Y-54652648D01*
X24583898Y-54652648D01*
X24583897Y-54652647D01*
X24370865Y-54510304D01*
X24189696Y-54329135D01*
X24047353Y-54116103D01*
X24047352Y-54116101D01*
X23949304Y-53879393D01*
X23899320Y-53628107D01*
X23899320Y-53371893D01*
X23949304Y-53120607D01*
X24047352Y-52883899D01*
X24084034Y-52829000D01*
X24189696Y-52670865D01*
X24370865Y-52489696D01*
X24583897Y-52347353D01*
X24673167Y-52310376D01*
X24820607Y-52249304D01*
X25071893Y-52199320D01*
X25328107Y-52199320D01*
X25579393Y-52249304D01*
X25579393Y-52249304D01*
G37*
G36*
X21529393Y-52149304D02*
G01*
X21766101Y-52247352D01*
X21766103Y-52247353D01*
X21979135Y-52389696D01*
X22160304Y-52570865D01*
X22299445Y-52779105D01*
X22302648Y-52783899D01*
X22400696Y-53020607D01*
X22450680Y-53271893D01*
X22450680Y-53528107D01*
X22400696Y-53779393D01*
X22302648Y-54016101D01*
X22302647Y-54016103D01*
X22160304Y-54229135D01*
X21979135Y-54410304D01*
X21766103Y-54552647D01*
X21766102Y-54552648D01*
X21766101Y-54552648D01*
X21529393Y-54650696D01*
X21278107Y-54700680D01*
X21021893Y-54700680D01*
X20770607Y-54650696D01*
X20533899Y-54552648D01*
X20533898Y-54552648D01*
X20533897Y-54552647D01*
X20320865Y-54410304D01*
X20139696Y-54229135D01*
X19997353Y-54016103D01*
X19997352Y-54016101D01*
X19899304Y-53779393D01*
X19849320Y-53528107D01*
X19849320Y-53271893D01*
X19899304Y-53020607D01*
X19997352Y-52783899D01*
X20000555Y-52779105D01*
X20139696Y-52570865D01*
X20320865Y-52389696D01*
X20533897Y-52247353D01*
X20533899Y-52247352D01*
X20770607Y-52149304D01*
X21021893Y-52099320D01*
X21278107Y-52099320D01*
X21529393Y-52149304D01*
X21529393Y-52149304D01*
G37*
G36*
X36936823Y-52841313D02*
G01*
X37097242Y-52889976D01*
X37229906Y-52960886D01*
X37245078Y-52968996D01*
X37374659Y-53075341D01*
X37481004Y-53204922D01*
X37481005Y-53204924D01*
X37560024Y-53352758D01*
X37608687Y-53513177D01*
X37625117Y-53680000D01*
X37608687Y-53846823D01*
X37560024Y-54007242D01*
X37490885Y-54136592D01*
X37481004Y-54155078D01*
X37374659Y-54284659D01*
X37245078Y-54391004D01*
X37245076Y-54391005D01*
X37097242Y-54470024D01*
X36936823Y-54518687D01*
X36811804Y-54531000D01*
X36728196Y-54531000D01*
X36603177Y-54518687D01*
X36442758Y-54470024D01*
X36294924Y-54391005D01*
X36294922Y-54391004D01*
X36165341Y-54284659D01*
X36058996Y-54155078D01*
X36049115Y-54136592D01*
X35979976Y-54007242D01*
X35931313Y-53846823D01*
X35914883Y-53680000D01*
X35931313Y-53513177D01*
X35979976Y-53352758D01*
X36058995Y-53204924D01*
X36058996Y-53204922D01*
X36165341Y-53075341D01*
X36294922Y-52968996D01*
X36310094Y-52960886D01*
X36442758Y-52889976D01*
X36603177Y-52841313D01*
X36728196Y-52829000D01*
X36811804Y-52829000D01*
X36936823Y-52841313D01*
X36936823Y-52841313D01*
G37*
G36*
X29316823Y-52841313D02*
G01*
X29477242Y-52889976D01*
X29609906Y-52960886D01*
X29625078Y-52968996D01*
X29754659Y-53075341D01*
X29861004Y-53204922D01*
X29861005Y-53204924D01*
X29940024Y-53352758D01*
X29988687Y-53513177D01*
X30005117Y-53680000D01*
X29988687Y-53846823D01*
X29940024Y-54007242D01*
X29870885Y-54136592D01*
X29861004Y-54155078D01*
X29754659Y-54284659D01*
X29625078Y-54391004D01*
X29625076Y-54391005D01*
X29477242Y-54470024D01*
X29316823Y-54518687D01*
X29191804Y-54531000D01*
X29108196Y-54531000D01*
X28983177Y-54518687D01*
X28822758Y-54470024D01*
X28674924Y-54391005D01*
X28674922Y-54391004D01*
X28545341Y-54284659D01*
X28438996Y-54155078D01*
X28429115Y-54136592D01*
X28359976Y-54007242D01*
X28311313Y-53846823D01*
X28294883Y-53680000D01*
X28311313Y-53513177D01*
X28359976Y-53352758D01*
X28438995Y-53204924D01*
X28438996Y-53204922D01*
X28545341Y-53075341D01*
X28674922Y-52968996D01*
X28690094Y-52960886D01*
X28822758Y-52889976D01*
X28983177Y-52841313D01*
X29108196Y-52829000D01*
X29191804Y-52829000D01*
X29316823Y-52841313D01*
X29316823Y-52841313D01*
G37*
G36*
X57041816Y-53708522D02*
G01*
X54577827Y-54142989D01*
X54143360Y-51679000D01*
X56607349Y-51244533D01*
X57041816Y-53708522D01*
X57041816Y-53708522D01*
G37*
G36*
X62319203Y-51931770D02*
G01*
X62319205Y-51931771D01*
X62319206Y-51931771D01*
X62460429Y-51990267D01*
X62460432Y-51990269D01*
X62587524Y-52075189D01*
X62695616Y-52183281D01*
X62780118Y-52309747D01*
X62780538Y-52310376D01*
X62795854Y-52347353D01*
X62839035Y-52451602D01*
X62868855Y-52601519D01*
X62868855Y-52754381D01*
X62841884Y-52889976D01*
X62839034Y-52904301D01*
X62780538Y-53045524D01*
X62780536Y-53045527D01*
X62695616Y-53172619D01*
X62587524Y-53280711D01*
X62488963Y-53346567D01*
X62460429Y-53365633D01*
X62319206Y-53424129D01*
X62319205Y-53424129D01*
X62319203Y-53424130D01*
X62169286Y-53453950D01*
X62016424Y-53453950D01*
X61866507Y-53424130D01*
X61866505Y-53424129D01*
X61866504Y-53424129D01*
X61725281Y-53365633D01*
X61696747Y-53346567D01*
X61598186Y-53280711D01*
X61490094Y-53172619D01*
X61405174Y-53045527D01*
X61405172Y-53045524D01*
X61346676Y-52904301D01*
X61343827Y-52889976D01*
X61316855Y-52754381D01*
X61316855Y-52601519D01*
X61346675Y-52451602D01*
X61389856Y-52347353D01*
X61405172Y-52310376D01*
X61405592Y-52309747D01*
X61490094Y-52183281D01*
X61598186Y-52075189D01*
X61725278Y-51990269D01*
X61725281Y-51990267D01*
X61866504Y-51931771D01*
X61866505Y-51931771D01*
X61866507Y-51931770D01*
X62016424Y-51901950D01*
X62169286Y-51901950D01*
X62319203Y-51931770D01*
X62319203Y-51931770D01*
G37*
G36*
X58781659Y-50973175D02*
G01*
X58834114Y-50983609D01*
X59061782Y-51077912D01*
X59266677Y-51214819D01*
X59440926Y-51389068D01*
X59444394Y-51394258D01*
X59577834Y-51593965D01*
X59672136Y-51821631D01*
X59720211Y-52063320D01*
X59720211Y-52309748D01*
X59720086Y-52310376D01*
X59672136Y-52551437D01*
X59577833Y-52779105D01*
X59440926Y-52984000D01*
X59266677Y-53158249D01*
X59061782Y-53295156D01*
X59061781Y-53295157D01*
X59061780Y-53295157D01*
X58834114Y-53389459D01*
X58592425Y-53437534D01*
X58345997Y-53437534D01*
X58104308Y-53389459D01*
X57876642Y-53295157D01*
X57876641Y-53295157D01*
X57876640Y-53295156D01*
X57671745Y-53158249D01*
X57497496Y-52984000D01*
X57360589Y-52779105D01*
X57266286Y-52551437D01*
X57218336Y-52310376D01*
X57218211Y-52309748D01*
X57218211Y-52063320D01*
X57266286Y-51821631D01*
X57360588Y-51593965D01*
X57494028Y-51394258D01*
X57497496Y-51389068D01*
X57671745Y-51214819D01*
X57876640Y-51077912D01*
X58104308Y-50983609D01*
X58156763Y-50973175D01*
X58345997Y-50935534D01*
X58592425Y-50935534D01*
X58781659Y-50973175D01*
X58781659Y-50973175D01*
G37*
G36*
X36936823Y-50301313D02*
G01*
X37097242Y-50349976D01*
X37196231Y-50402887D01*
X37245078Y-50428996D01*
X37374659Y-50535341D01*
X37481004Y-50664922D01*
X37481005Y-50664924D01*
X37560024Y-50812758D01*
X37608687Y-50973177D01*
X37625117Y-51140000D01*
X37608687Y-51306823D01*
X37560024Y-51467242D01*
X37492290Y-51593963D01*
X37481004Y-51615078D01*
X37374659Y-51744659D01*
X37245078Y-51851004D01*
X37245076Y-51851005D01*
X37097242Y-51930024D01*
X36936823Y-51978687D01*
X36811804Y-51991000D01*
X36728196Y-51991000D01*
X36603177Y-51978687D01*
X36442758Y-51930024D01*
X36294924Y-51851005D01*
X36294922Y-51851004D01*
X36165341Y-51744659D01*
X36058996Y-51615078D01*
X36047710Y-51593963D01*
X35979976Y-51467242D01*
X35931313Y-51306823D01*
X35914883Y-51140000D01*
X35931313Y-50973177D01*
X35979976Y-50812758D01*
X36058995Y-50664924D01*
X36058996Y-50664922D01*
X36165341Y-50535341D01*
X36294922Y-50428996D01*
X36343769Y-50402887D01*
X36442758Y-50349976D01*
X36603177Y-50301313D01*
X36728196Y-50289000D01*
X36811804Y-50289000D01*
X36936823Y-50301313D01*
X36936823Y-50301313D01*
G37*
G36*
X29316823Y-50301313D02*
G01*
X29477242Y-50349976D01*
X29576231Y-50402887D01*
X29625078Y-50428996D01*
X29754659Y-50535341D01*
X29861004Y-50664922D01*
X29861005Y-50664924D01*
X29940024Y-50812758D01*
X29988687Y-50973177D01*
X30005117Y-51140000D01*
X29988687Y-51306823D01*
X29940024Y-51467242D01*
X29872290Y-51593963D01*
X29861004Y-51615078D01*
X29754659Y-51744659D01*
X29625078Y-51851004D01*
X29625076Y-51851005D01*
X29477242Y-51930024D01*
X29316823Y-51978687D01*
X29191804Y-51991000D01*
X29108196Y-51991000D01*
X28983177Y-51978687D01*
X28822758Y-51930024D01*
X28674924Y-51851005D01*
X28674922Y-51851004D01*
X28545341Y-51744659D01*
X28438996Y-51615078D01*
X28427710Y-51593963D01*
X28359976Y-51467242D01*
X28311313Y-51306823D01*
X28294883Y-51140000D01*
X28311313Y-50973177D01*
X28359976Y-50812758D01*
X28438995Y-50664924D01*
X28438996Y-50664922D01*
X28545341Y-50535341D01*
X28674922Y-50428996D01*
X28723769Y-50402887D01*
X28822758Y-50349976D01*
X28983177Y-50301313D01*
X29108196Y-50289000D01*
X29191804Y-50289000D01*
X29316823Y-50301313D01*
X29316823Y-50301313D01*
G37*
G36*
X70729987Y-49757664D02*
G01*
X70884859Y-49821814D01*
X71024240Y-49914946D01*
X71142774Y-50033480D01*
X71235906Y-50172861D01*
X71300056Y-50327733D01*
X71332759Y-50492145D01*
X71332759Y-50659777D01*
X71300056Y-50824189D01*
X71235906Y-50979061D01*
X71142774Y-51118442D01*
X71024240Y-51236976D01*
X70884859Y-51330108D01*
X70729987Y-51394258D01*
X70565575Y-51426961D01*
X70397943Y-51426961D01*
X70233531Y-51394258D01*
X70078659Y-51330108D01*
X69939278Y-51236976D01*
X69820744Y-51118442D01*
X69727612Y-50979061D01*
X69663462Y-50824189D01*
X69630759Y-50659777D01*
X69630759Y-50492145D01*
X69663462Y-50327733D01*
X69727612Y-50172861D01*
X69820744Y-50033480D01*
X69939278Y-49914946D01*
X70078659Y-49821814D01*
X70233531Y-49757664D01*
X70397943Y-49724961D01*
X70565575Y-49724961D01*
X70729987Y-49757664D01*
X70729987Y-49757664D01*
G37*
G36*
X62760270Y-49430359D02*
G01*
X62760272Y-49430360D01*
X62760273Y-49430360D01*
X62901496Y-49488856D01*
X62901499Y-49488858D01*
X63028591Y-49573778D01*
X63136683Y-49681870D01*
X63165475Y-49724961D01*
X63221605Y-49808965D01*
X63265503Y-49914946D01*
X63280102Y-49950191D01*
X63309922Y-50100108D01*
X63309922Y-50252970D01*
X63290627Y-50349976D01*
X63280101Y-50402890D01*
X63221605Y-50544113D01*
X63221603Y-50544116D01*
X63136683Y-50671208D01*
X63028591Y-50779300D01*
X62961408Y-50824190D01*
X62901496Y-50864222D01*
X62760273Y-50922718D01*
X62760272Y-50922718D01*
X62760270Y-50922719D01*
X62610353Y-50952539D01*
X62457491Y-50952539D01*
X62307574Y-50922719D01*
X62307572Y-50922718D01*
X62307571Y-50922718D01*
X62166348Y-50864222D01*
X62106436Y-50824190D01*
X62039253Y-50779300D01*
X61931161Y-50671208D01*
X61846241Y-50544116D01*
X61846239Y-50544113D01*
X61787743Y-50402890D01*
X61777218Y-50349976D01*
X61757922Y-50252970D01*
X61757922Y-50100108D01*
X61787742Y-49950191D01*
X61802341Y-49914946D01*
X61846239Y-49808965D01*
X61902369Y-49724961D01*
X61931161Y-49681870D01*
X62039253Y-49573778D01*
X62166345Y-49488858D01*
X62166348Y-49488856D01*
X62307571Y-49430360D01*
X62307572Y-49430360D01*
X62307574Y-49430359D01*
X62457491Y-49400539D01*
X62610353Y-49400539D01*
X62760270Y-49430359D01*
X62760270Y-49430359D01*
G37*
G36*
X19362166Y-49111925D02*
G01*
X19517038Y-49176075D01*
X19656419Y-49269207D01*
X19774953Y-49387741D01*
X19868085Y-49527122D01*
X19932235Y-49681994D01*
X19964938Y-49846406D01*
X19964938Y-50014038D01*
X19932235Y-50178450D01*
X19868085Y-50333322D01*
X19774953Y-50472703D01*
X19656419Y-50591237D01*
X19517038Y-50684369D01*
X19362166Y-50748519D01*
X19197754Y-50781222D01*
X19030122Y-50781222D01*
X18865710Y-50748519D01*
X18710838Y-50684369D01*
X18571457Y-50591237D01*
X18452923Y-50472703D01*
X18359791Y-50333322D01*
X18295641Y-50178450D01*
X18262938Y-50014038D01*
X18262938Y-49846406D01*
X18295641Y-49681994D01*
X18359791Y-49527122D01*
X18452923Y-49387741D01*
X18571457Y-49269207D01*
X18710838Y-49176075D01*
X18865710Y-49111925D01*
X19030122Y-49079222D01*
X19197754Y-49079222D01*
X19362166Y-49111925D01*
X19362166Y-49111925D01*
G37*
G36*
X52497320Y-47894110D02*
G01*
X52657739Y-47942773D01*
X52786168Y-48011420D01*
X52805575Y-48021793D01*
X52935156Y-48128138D01*
X53041501Y-48257719D01*
X53041502Y-48257721D01*
X53120521Y-48405555D01*
X53169184Y-48565974D01*
X53185614Y-48732797D01*
X53169184Y-48899620D01*
X53120521Y-49060039D01*
X53112482Y-49075078D01*
X53041501Y-49207875D01*
X52935156Y-49337456D01*
X52805575Y-49443801D01*
X52805573Y-49443802D01*
X52657739Y-49522821D01*
X52497320Y-49571484D01*
X52372301Y-49583797D01*
X52288693Y-49583797D01*
X52163674Y-49571484D01*
X52003255Y-49522821D01*
X51855421Y-49443802D01*
X51855419Y-49443801D01*
X51725838Y-49337456D01*
X51619493Y-49207875D01*
X51548512Y-49075078D01*
X51540473Y-49060039D01*
X51491810Y-48899620D01*
X51475380Y-48732797D01*
X51491810Y-48565974D01*
X51540473Y-48405555D01*
X51619492Y-48257721D01*
X51619493Y-48257719D01*
X51725838Y-48128138D01*
X51855419Y-48021793D01*
X51874826Y-48011420D01*
X52003255Y-47942773D01*
X52163674Y-47894110D01*
X52288693Y-47881797D01*
X52372301Y-47881797D01*
X52497320Y-47894110D01*
X52497320Y-47894110D01*
G37*
G36*
X29316823Y-47761313D02*
G01*
X29477242Y-47809976D01*
X29552529Y-47850218D01*
X29625078Y-47888996D01*
X29754659Y-47995341D01*
X29861004Y-48124922D01*
X29861005Y-48124924D01*
X29940024Y-48272758D01*
X29988687Y-48433177D01*
X30005117Y-48600000D01*
X29988687Y-48766823D01*
X29940024Y-48927242D01*
X29869114Y-49059906D01*
X29861004Y-49075078D01*
X29754659Y-49204659D01*
X29625078Y-49311004D01*
X29625076Y-49311005D01*
X29477242Y-49390024D01*
X29316823Y-49438687D01*
X29191804Y-49451000D01*
X29108196Y-49451000D01*
X28983177Y-49438687D01*
X28822758Y-49390024D01*
X28674924Y-49311005D01*
X28674922Y-49311004D01*
X28545341Y-49204659D01*
X28438996Y-49075078D01*
X28430886Y-49059906D01*
X28359976Y-48927242D01*
X28311313Y-48766823D01*
X28294883Y-48600000D01*
X28311313Y-48433177D01*
X28359976Y-48272758D01*
X28438995Y-48124924D01*
X28438996Y-48124922D01*
X28545341Y-47995341D01*
X28674922Y-47888996D01*
X28747471Y-47850218D01*
X28822758Y-47809976D01*
X28983177Y-47761313D01*
X29108196Y-47749000D01*
X29191804Y-47749000D01*
X29316823Y-47761313D01*
X29316823Y-47761313D01*
G37*
G36*
X36936823Y-47761313D02*
G01*
X37097242Y-47809976D01*
X37172529Y-47850218D01*
X37245078Y-47888996D01*
X37374659Y-47995341D01*
X37481004Y-48124922D01*
X37481005Y-48124924D01*
X37560024Y-48272758D01*
X37608687Y-48433177D01*
X37625117Y-48600000D01*
X37608687Y-48766823D01*
X37560024Y-48927242D01*
X37489114Y-49059906D01*
X37481004Y-49075078D01*
X37374659Y-49204659D01*
X37245078Y-49311004D01*
X37245076Y-49311005D01*
X37097242Y-49390024D01*
X36936823Y-49438687D01*
X36811804Y-49451000D01*
X36728196Y-49451000D01*
X36603177Y-49438687D01*
X36442758Y-49390024D01*
X36294924Y-49311005D01*
X36294922Y-49311004D01*
X36165341Y-49204659D01*
X36058996Y-49075078D01*
X36050886Y-49059906D01*
X35979976Y-48927242D01*
X35931313Y-48766823D01*
X35914883Y-48600000D01*
X35931313Y-48433177D01*
X35979976Y-48272758D01*
X36058995Y-48124924D01*
X36058996Y-48124922D01*
X36165341Y-47995341D01*
X36294922Y-47888996D01*
X36367471Y-47850218D01*
X36442758Y-47809976D01*
X36603177Y-47761313D01*
X36728196Y-47749000D01*
X36811804Y-47749000D01*
X36936823Y-47761313D01*
X36936823Y-47761313D01*
G37*
G36*
X49451000Y-48501000D02*
G01*
X47749000Y-48501000D01*
X47749000Y-46799000D01*
X49451000Y-46799000D01*
X49451000Y-48501000D01*
X49451000Y-48501000D01*
G37*
G36*
X46226823Y-46811313D02*
G01*
X46387242Y-46859976D01*
X46516278Y-46928947D01*
X46535078Y-46938996D01*
X46664659Y-47045341D01*
X46771004Y-47174922D01*
X46771005Y-47174924D01*
X46850024Y-47322758D01*
X46898687Y-47483177D01*
X46915117Y-47650000D01*
X46898687Y-47816823D01*
X46850024Y-47977242D01*
X46779114Y-48109906D01*
X46771004Y-48125078D01*
X46664659Y-48254659D01*
X46535078Y-48361004D01*
X46535076Y-48361005D01*
X46387242Y-48440024D01*
X46226823Y-48488687D01*
X46101804Y-48501000D01*
X46018196Y-48501000D01*
X45893177Y-48488687D01*
X45732758Y-48440024D01*
X45584924Y-48361005D01*
X45584922Y-48361004D01*
X45455341Y-48254659D01*
X45348996Y-48125078D01*
X45340886Y-48109906D01*
X45269976Y-47977242D01*
X45221313Y-47816823D01*
X45204883Y-47650000D01*
X45221313Y-47483177D01*
X45269976Y-47322758D01*
X45348995Y-47174924D01*
X45348996Y-47174922D01*
X45455341Y-47045341D01*
X45584922Y-46938996D01*
X45603722Y-46928947D01*
X45732758Y-46859976D01*
X45893177Y-46811313D01*
X46018196Y-46799000D01*
X46101804Y-46799000D01*
X46226823Y-46811313D01*
X46226823Y-46811313D01*
G37*
G36*
X43686823Y-46811313D02*
G01*
X43847242Y-46859976D01*
X43976278Y-46928947D01*
X43995078Y-46938996D01*
X44124659Y-47045341D01*
X44231004Y-47174922D01*
X44231005Y-47174924D01*
X44310024Y-47322758D01*
X44358687Y-47483177D01*
X44375117Y-47650000D01*
X44358687Y-47816823D01*
X44310024Y-47977242D01*
X44239114Y-48109906D01*
X44231004Y-48125078D01*
X44124659Y-48254659D01*
X43995078Y-48361004D01*
X43995076Y-48361005D01*
X43847242Y-48440024D01*
X43686823Y-48488687D01*
X43561804Y-48501000D01*
X43478196Y-48501000D01*
X43353177Y-48488687D01*
X43192758Y-48440024D01*
X43044924Y-48361005D01*
X43044922Y-48361004D01*
X42915341Y-48254659D01*
X42808996Y-48125078D01*
X42800886Y-48109906D01*
X42729976Y-47977242D01*
X42681313Y-47816823D01*
X42664883Y-47650000D01*
X42681313Y-47483177D01*
X42729976Y-47322758D01*
X42808995Y-47174924D01*
X42808996Y-47174922D01*
X42915341Y-47045341D01*
X43044922Y-46938996D01*
X43063722Y-46928947D01*
X43192758Y-46859976D01*
X43353177Y-46811313D01*
X43478196Y-46799000D01*
X43561804Y-46799000D01*
X43686823Y-46811313D01*
X43686823Y-46811313D01*
G37*
G36*
X41146823Y-46811313D02*
G01*
X41307242Y-46859976D01*
X41436278Y-46928947D01*
X41455078Y-46938996D01*
X41584659Y-47045341D01*
X41691004Y-47174922D01*
X41691005Y-47174924D01*
X41770024Y-47322758D01*
X41818687Y-47483177D01*
X41835117Y-47650000D01*
X41818687Y-47816823D01*
X41770024Y-47977242D01*
X41699114Y-48109906D01*
X41691004Y-48125078D01*
X41584659Y-48254659D01*
X41455078Y-48361004D01*
X41455076Y-48361005D01*
X41307242Y-48440024D01*
X41146823Y-48488687D01*
X41021804Y-48501000D01*
X40938196Y-48501000D01*
X40813177Y-48488687D01*
X40652758Y-48440024D01*
X40504924Y-48361005D01*
X40504922Y-48361004D01*
X40375341Y-48254659D01*
X40268996Y-48125078D01*
X40260886Y-48109906D01*
X40189976Y-47977242D01*
X40141313Y-47816823D01*
X40124883Y-47650000D01*
X40141313Y-47483177D01*
X40189976Y-47322758D01*
X40268995Y-47174924D01*
X40268996Y-47174922D01*
X40375341Y-47045341D01*
X40504922Y-46938996D01*
X40523722Y-46928947D01*
X40652758Y-46859976D01*
X40813177Y-46811313D01*
X40938196Y-46799000D01*
X41021804Y-46799000D01*
X41146823Y-46811313D01*
X41146823Y-46811313D01*
G37*
G36*
X70752354Y-45931589D02*
G01*
X70956586Y-46016185D01*
X70989064Y-46029638D01*
X71202096Y-46171981D01*
X71383265Y-46353150D01*
X71504825Y-46535078D01*
X71525609Y-46566184D01*
X71623657Y-46802892D01*
X71673641Y-47054178D01*
X71673641Y-47310392D01*
X71623657Y-47561678D01*
X71545006Y-47751558D01*
X71525608Y-47798388D01*
X71383265Y-48011420D01*
X71202096Y-48192589D01*
X70989064Y-48334932D01*
X70989063Y-48334933D01*
X70989062Y-48334933D01*
X70752354Y-48432981D01*
X70501068Y-48482965D01*
X70244854Y-48482965D01*
X69993568Y-48432981D01*
X69756860Y-48334933D01*
X69756859Y-48334933D01*
X69756858Y-48334932D01*
X69543826Y-48192589D01*
X69362657Y-48011420D01*
X69220314Y-47798388D01*
X69200916Y-47751558D01*
X69122265Y-47561678D01*
X69072281Y-47310392D01*
X69072281Y-47054178D01*
X69122265Y-46802892D01*
X69220313Y-46566184D01*
X69241097Y-46535078D01*
X69362657Y-46353150D01*
X69543826Y-46171981D01*
X69756858Y-46029638D01*
X69789336Y-46016185D01*
X69993568Y-45931589D01*
X70244854Y-45881605D01*
X70501068Y-45881605D01*
X70752354Y-45931589D01*
X70752354Y-45931589D01*
G37*
G36*
X63201336Y-46928947D02*
G01*
X63201338Y-46928948D01*
X63201339Y-46928948D01*
X63342562Y-46987444D01*
X63342565Y-46987446D01*
X63469657Y-47072366D01*
X63577749Y-47180458D01*
X63638073Y-47270739D01*
X63662671Y-47307553D01*
X63721167Y-47448776D01*
X63721168Y-47448779D01*
X63750988Y-47598696D01*
X63750988Y-47751558D01*
X63722633Y-47894111D01*
X63721167Y-47901478D01*
X63662671Y-48042701D01*
X63662669Y-48042704D01*
X63577749Y-48169796D01*
X63469657Y-48277888D01*
X63384284Y-48334932D01*
X63342562Y-48362810D01*
X63201339Y-48421306D01*
X63201338Y-48421306D01*
X63201336Y-48421307D01*
X63051419Y-48451127D01*
X62898557Y-48451127D01*
X62748640Y-48421307D01*
X62748638Y-48421306D01*
X62748637Y-48421306D01*
X62607414Y-48362810D01*
X62565692Y-48334932D01*
X62480319Y-48277888D01*
X62372227Y-48169796D01*
X62287307Y-48042704D01*
X62287305Y-48042701D01*
X62228809Y-47901478D01*
X62227344Y-47894111D01*
X62198988Y-47751558D01*
X62198988Y-47598696D01*
X62228808Y-47448779D01*
X62228809Y-47448776D01*
X62287305Y-47307553D01*
X62311903Y-47270739D01*
X62372227Y-47180458D01*
X62480319Y-47072366D01*
X62607411Y-46987446D01*
X62607414Y-46987444D01*
X62748637Y-46928948D01*
X62748638Y-46928948D01*
X62748640Y-46928947D01*
X62898557Y-46899127D01*
X63051419Y-46899127D01*
X63201336Y-46928947D01*
X63201336Y-46928947D01*
G37*
G36*
X24383642Y-46309781D02*
G01*
X24529414Y-46370162D01*
X24529416Y-46370163D01*
X24660608Y-46457822D01*
X24772178Y-46569392D01*
X24838790Y-46669085D01*
X24859838Y-46700586D01*
X24920219Y-46846358D01*
X24951000Y-47001107D01*
X24951000Y-47158893D01*
X24920219Y-47313642D01*
X24911418Y-47334889D01*
X24859837Y-47459416D01*
X24772178Y-47590608D01*
X24660608Y-47702178D01*
X24529416Y-47789837D01*
X24529415Y-47789838D01*
X24529414Y-47789838D01*
X24383642Y-47850219D01*
X24228893Y-47881000D01*
X24071107Y-47881000D01*
X23916358Y-47850219D01*
X23770586Y-47789838D01*
X23770585Y-47789838D01*
X23770584Y-47789837D01*
X23639392Y-47702178D01*
X23527822Y-47590608D01*
X23440163Y-47459416D01*
X23388582Y-47334889D01*
X23379781Y-47313642D01*
X23349000Y-47158893D01*
X23349000Y-47001107D01*
X23379781Y-46846358D01*
X23440162Y-46700586D01*
X23461210Y-46669085D01*
X23527822Y-46569392D01*
X23639392Y-46457822D01*
X23770584Y-46370163D01*
X23770586Y-46370162D01*
X23916358Y-46309781D01*
X24071107Y-46279000D01*
X24228893Y-46279000D01*
X24383642Y-46309781D01*
X24383642Y-46309781D01*
G37*
G36*
X67133804Y-45698295D02*
G01*
X67288676Y-45762445D01*
X67428057Y-45855577D01*
X67546591Y-45974111D01*
X67639723Y-46113492D01*
X67703873Y-46268364D01*
X67736576Y-46432776D01*
X67736576Y-46600408D01*
X67703873Y-46764820D01*
X67639723Y-46919692D01*
X67546591Y-47059073D01*
X67428057Y-47177607D01*
X67288676Y-47270739D01*
X67133804Y-47334889D01*
X66969392Y-47367592D01*
X66801760Y-47367592D01*
X66637348Y-47334889D01*
X66482476Y-47270739D01*
X66343095Y-47177607D01*
X66224561Y-47059073D01*
X66131429Y-46919692D01*
X66067279Y-46764820D01*
X66034576Y-46600408D01*
X66034576Y-46432776D01*
X66067279Y-46268364D01*
X66131429Y-46113492D01*
X66224561Y-45974111D01*
X66343095Y-45855577D01*
X66482476Y-45762445D01*
X66637348Y-45698295D01*
X66801760Y-45665592D01*
X66969392Y-45665592D01*
X67133804Y-45698295D01*
X67133804Y-45698295D01*
G37*
G36*
X59739183Y-45308307D02*
G01*
X59894055Y-45372457D01*
X60033436Y-45465589D01*
X60151970Y-45584123D01*
X60245102Y-45723504D01*
X60309252Y-45878376D01*
X60341955Y-46042788D01*
X60341955Y-46210420D01*
X60309252Y-46374832D01*
X60245102Y-46529704D01*
X60151970Y-46669085D01*
X60033436Y-46787619D01*
X59894055Y-46880751D01*
X59739183Y-46944901D01*
X59574771Y-46977604D01*
X59407139Y-46977604D01*
X59242727Y-46944901D01*
X59087855Y-46880751D01*
X58948474Y-46787619D01*
X58829940Y-46669085D01*
X58736808Y-46529704D01*
X58672658Y-46374832D01*
X58639955Y-46210420D01*
X58639955Y-46042788D01*
X58672658Y-45878376D01*
X58736808Y-45723504D01*
X58829940Y-45584123D01*
X58948474Y-45465589D01*
X59087855Y-45372457D01*
X59242727Y-45308307D01*
X59407139Y-45275604D01*
X59574771Y-45275604D01*
X59739183Y-45308307D01*
X59739183Y-45308307D01*
G37*
G36*
X16148228Y-45281703D02*
G01*
X16303100Y-45345853D01*
X16442481Y-45438985D01*
X16561015Y-45557519D01*
X16654147Y-45696900D01*
X16718297Y-45851772D01*
X16751000Y-46016184D01*
X16751000Y-46183816D01*
X16718297Y-46348228D01*
X16654147Y-46503100D01*
X16561015Y-46642481D01*
X16442481Y-46761015D01*
X16303100Y-46854147D01*
X16148228Y-46918297D01*
X15983816Y-46951000D01*
X15816184Y-46951000D01*
X15651772Y-46918297D01*
X15496900Y-46854147D01*
X15357519Y-46761015D01*
X15238985Y-46642481D01*
X15145853Y-46503100D01*
X15081703Y-46348228D01*
X15049000Y-46183816D01*
X15049000Y-46016184D01*
X15081703Y-45851772D01*
X15145853Y-45696900D01*
X15238985Y-45557519D01*
X15357519Y-45438985D01*
X15496900Y-45345853D01*
X15651772Y-45281703D01*
X15816184Y-45249000D01*
X15983816Y-45249000D01*
X16148228Y-45281703D01*
X16148228Y-45281703D01*
G37*
G36*
X36936823Y-45221313D02*
G01*
X37097242Y-45269976D01*
X37229906Y-45340886D01*
X37245078Y-45348996D01*
X37374659Y-45455341D01*
X37481004Y-45584922D01*
X37481005Y-45584924D01*
X37560024Y-45732758D01*
X37608687Y-45893177D01*
X37625117Y-46060000D01*
X37608687Y-46226823D01*
X37560024Y-46387242D01*
X37489114Y-46519906D01*
X37481004Y-46535078D01*
X37374659Y-46664659D01*
X37245078Y-46771004D01*
X37245076Y-46771005D01*
X37097242Y-46850024D01*
X37097239Y-46850025D01*
X37083647Y-46854148D01*
X36936823Y-46898687D01*
X36811804Y-46911000D01*
X36728196Y-46911000D01*
X36603177Y-46898687D01*
X36456353Y-46854148D01*
X36442761Y-46850025D01*
X36442758Y-46850024D01*
X36294924Y-46771005D01*
X36294922Y-46771004D01*
X36165341Y-46664659D01*
X36058996Y-46535078D01*
X36050886Y-46519906D01*
X35979976Y-46387242D01*
X35931313Y-46226823D01*
X35914883Y-46060000D01*
X35931313Y-45893177D01*
X35979976Y-45732758D01*
X36058995Y-45584924D01*
X36058996Y-45584922D01*
X36165341Y-45455341D01*
X36294922Y-45348996D01*
X36310094Y-45340886D01*
X36442758Y-45269976D01*
X36603177Y-45221313D01*
X36728196Y-45209000D01*
X36811804Y-45209000D01*
X36936823Y-45221313D01*
X36936823Y-45221313D01*
G37*
G36*
X29316823Y-45221313D02*
G01*
X29477242Y-45269976D01*
X29609906Y-45340886D01*
X29625078Y-45348996D01*
X29754659Y-45455341D01*
X29861004Y-45584922D01*
X29861005Y-45584924D01*
X29940024Y-45732758D01*
X29988687Y-45893177D01*
X30005117Y-46060000D01*
X29988687Y-46226823D01*
X29940024Y-46387242D01*
X29869114Y-46519906D01*
X29861004Y-46535078D01*
X29754659Y-46664659D01*
X29625078Y-46771004D01*
X29625076Y-46771005D01*
X29477242Y-46850024D01*
X29477239Y-46850025D01*
X29463647Y-46854148D01*
X29316823Y-46898687D01*
X29191804Y-46911000D01*
X29108196Y-46911000D01*
X28983177Y-46898687D01*
X28836353Y-46854148D01*
X28822761Y-46850025D01*
X28822758Y-46850024D01*
X28674924Y-46771005D01*
X28674922Y-46771004D01*
X28545341Y-46664659D01*
X28438996Y-46535078D01*
X28430886Y-46519906D01*
X28359976Y-46387242D01*
X28311313Y-46226823D01*
X28294883Y-46060000D01*
X28311313Y-45893177D01*
X28359976Y-45732758D01*
X28438995Y-45584924D01*
X28438996Y-45584922D01*
X28545341Y-45455341D01*
X28674922Y-45348996D01*
X28690094Y-45340886D01*
X28822758Y-45269976D01*
X28983177Y-45221313D01*
X29108196Y-45209000D01*
X29191804Y-45209000D01*
X29316823Y-45221313D01*
X29316823Y-45221313D01*
G37*
G36*
X63642402Y-44427535D02*
G01*
X63642404Y-44427536D01*
X63642405Y-44427536D01*
X63783628Y-44486032D01*
X63783631Y-44486034D01*
X63910723Y-44570954D01*
X64018815Y-44679046D01*
X64103735Y-44806138D01*
X64103737Y-44806141D01*
X64107897Y-44816185D01*
X64162234Y-44947367D01*
X64192054Y-45097284D01*
X64192054Y-45250146D01*
X64172392Y-45348996D01*
X64162233Y-45400066D01*
X64103737Y-45541289D01*
X64103735Y-45541292D01*
X64018815Y-45668384D01*
X63910723Y-45776476D01*
X63798036Y-45851771D01*
X63783628Y-45861398D01*
X63642405Y-45919894D01*
X63642404Y-45919894D01*
X63642402Y-45919895D01*
X63492485Y-45949715D01*
X63339623Y-45949715D01*
X63189706Y-45919895D01*
X63189704Y-45919894D01*
X63189703Y-45919894D01*
X63048480Y-45861398D01*
X63034072Y-45851771D01*
X62921385Y-45776476D01*
X62813293Y-45668384D01*
X62728373Y-45541292D01*
X62728371Y-45541289D01*
X62669875Y-45400066D01*
X62659717Y-45348996D01*
X62640054Y-45250146D01*
X62640054Y-45097284D01*
X62669874Y-44947367D01*
X62724211Y-44816185D01*
X62728371Y-44806141D01*
X62728373Y-44806138D01*
X62813293Y-44679046D01*
X62921385Y-44570954D01*
X63048477Y-44486034D01*
X63048480Y-44486032D01*
X63189703Y-44427536D01*
X63189704Y-44427536D01*
X63189706Y-44427535D01*
X63339623Y-44397715D01*
X63492485Y-44397715D01*
X63642402Y-44427535D01*
X63642402Y-44427535D01*
G37*
G36*
X19998228Y-44081703D02*
G01*
X20153100Y-44145853D01*
X20292481Y-44238985D01*
X20411015Y-44357519D01*
X20504147Y-44496900D01*
X20568297Y-44651772D01*
X20601000Y-44816184D01*
X20601000Y-44983816D01*
X20568297Y-45148228D01*
X20504147Y-45303100D01*
X20411015Y-45442481D01*
X20292481Y-45561015D01*
X20153100Y-45654147D01*
X19998228Y-45718297D01*
X19833816Y-45751000D01*
X19666184Y-45751000D01*
X19501772Y-45718297D01*
X19346900Y-45654147D01*
X19207519Y-45561015D01*
X19088985Y-45442481D01*
X18995853Y-45303100D01*
X18931703Y-45148228D01*
X18899000Y-44983816D01*
X18899000Y-44816184D01*
X18931703Y-44651772D01*
X18995853Y-44496900D01*
X19088985Y-44357519D01*
X19207519Y-44238985D01*
X19346900Y-44145853D01*
X19501772Y-44081703D01*
X19666184Y-44049000D01*
X19833816Y-44049000D01*
X19998228Y-44081703D01*
X19998228Y-44081703D01*
G37*
G36*
X67414374Y-42955344D02*
G01*
X67569246Y-43019494D01*
X67708627Y-43112626D01*
X67827161Y-43231160D01*
X67920293Y-43370541D01*
X67984443Y-43525413D01*
X68017146Y-43689825D01*
X68017146Y-43857457D01*
X67984443Y-44021869D01*
X67920293Y-44176741D01*
X67827161Y-44316122D01*
X67708627Y-44434656D01*
X67569246Y-44527788D01*
X67414374Y-44591938D01*
X67249962Y-44624641D01*
X67082330Y-44624641D01*
X66917918Y-44591938D01*
X66763046Y-44527788D01*
X66623665Y-44434656D01*
X66505131Y-44316122D01*
X66411999Y-44176741D01*
X66347849Y-44021869D01*
X66315146Y-43857457D01*
X66315146Y-43689825D01*
X66347849Y-43525413D01*
X66411999Y-43370541D01*
X66505131Y-43231160D01*
X66623665Y-43112626D01*
X66763046Y-43019494D01*
X66917918Y-42955344D01*
X67082330Y-42922641D01*
X67249962Y-42922641D01*
X67414374Y-42955344D01*
X67414374Y-42955344D01*
G37*
G36*
X57940932Y-41997133D02*
G01*
X58115749Y-42069545D01*
X58177642Y-42095182D01*
X58390674Y-42237525D01*
X58571843Y-42418694D01*
X58690231Y-42595875D01*
X58714187Y-42631728D01*
X58812235Y-42868436D01*
X58862219Y-43119722D01*
X58862219Y-43375936D01*
X58812235Y-43627222D01*
X58716868Y-43857457D01*
X58714186Y-43863932D01*
X58571843Y-44076964D01*
X58390674Y-44258133D01*
X58177642Y-44400476D01*
X58177641Y-44400477D01*
X58177640Y-44400477D01*
X57940932Y-44498525D01*
X57689646Y-44548509D01*
X57433432Y-44548509D01*
X57182146Y-44498525D01*
X56945438Y-44400477D01*
X56945437Y-44400477D01*
X56945436Y-44400476D01*
X56732404Y-44258133D01*
X56551235Y-44076964D01*
X56408892Y-43863932D01*
X56406210Y-43857457D01*
X56310843Y-43627222D01*
X56260859Y-43375936D01*
X56260859Y-43119722D01*
X56310843Y-42868436D01*
X56408891Y-42631728D01*
X56432847Y-42595875D01*
X56551235Y-42418694D01*
X56732404Y-42237525D01*
X56945436Y-42095182D01*
X57007329Y-42069545D01*
X57182146Y-41997133D01*
X57433432Y-41947149D01*
X57689646Y-41947149D01*
X57940932Y-41997133D01*
X57940932Y-41997133D01*
G37*
G36*
X36936823Y-42681313D02*
G01*
X37097242Y-42729976D01*
X37229906Y-42800886D01*
X37245078Y-42808996D01*
X37374659Y-42915341D01*
X37481004Y-43044922D01*
X37481005Y-43044924D01*
X37560024Y-43192758D01*
X37608687Y-43353177D01*
X37625117Y-43520000D01*
X37608687Y-43686823D01*
X37560024Y-43847242D01*
X37489114Y-43979906D01*
X37481004Y-43995078D01*
X37374659Y-44124659D01*
X37245078Y-44231004D01*
X37245076Y-44231005D01*
X37097242Y-44310024D01*
X36936823Y-44358687D01*
X36811804Y-44371000D01*
X36728196Y-44371000D01*
X36603177Y-44358687D01*
X36442758Y-44310024D01*
X36294924Y-44231005D01*
X36294922Y-44231004D01*
X36165341Y-44124659D01*
X36058996Y-43995078D01*
X36050886Y-43979906D01*
X35979976Y-43847242D01*
X35931313Y-43686823D01*
X35914883Y-43520000D01*
X35931313Y-43353177D01*
X35979976Y-43192758D01*
X36058995Y-43044924D01*
X36058996Y-43044922D01*
X36165341Y-42915341D01*
X36294922Y-42808996D01*
X36310094Y-42800886D01*
X36442758Y-42729976D01*
X36603177Y-42681313D01*
X36728196Y-42669000D01*
X36811804Y-42669000D01*
X36936823Y-42681313D01*
X36936823Y-42681313D01*
G37*
G36*
X29316823Y-42681313D02*
G01*
X29477242Y-42729976D01*
X29609906Y-42800886D01*
X29625078Y-42808996D01*
X29754659Y-42915341D01*
X29861004Y-43044922D01*
X29861005Y-43044924D01*
X29940024Y-43192758D01*
X29988687Y-43353177D01*
X30005117Y-43520000D01*
X29988687Y-43686823D01*
X29940024Y-43847242D01*
X29869114Y-43979906D01*
X29861004Y-43995078D01*
X29754659Y-44124659D01*
X29625078Y-44231004D01*
X29625076Y-44231005D01*
X29477242Y-44310024D01*
X29316823Y-44358687D01*
X29191804Y-44371000D01*
X29108196Y-44371000D01*
X28983177Y-44358687D01*
X28822758Y-44310024D01*
X28674924Y-44231005D01*
X28674922Y-44231004D01*
X28545341Y-44124659D01*
X28438996Y-43995078D01*
X28430886Y-43979906D01*
X28359976Y-43847242D01*
X28311313Y-43686823D01*
X28294883Y-43520000D01*
X28311313Y-43353177D01*
X28359976Y-43192758D01*
X28438995Y-43044924D01*
X28438996Y-43044922D01*
X28545341Y-42915341D01*
X28674922Y-42808996D01*
X28690094Y-42800886D01*
X28822758Y-42729976D01*
X28983177Y-42681313D01*
X29108196Y-42669000D01*
X29191804Y-42669000D01*
X29316823Y-42681313D01*
X29316823Y-42681313D01*
G37*
G36*
X64083469Y-41926124D02*
G01*
X64083471Y-41926125D01*
X64083472Y-41926125D01*
X64224695Y-41984621D01*
X64224698Y-41984623D01*
X64351790Y-42069543D01*
X64459882Y-42177635D01*
X64527540Y-42278893D01*
X64544804Y-42304730D01*
X64598201Y-42433643D01*
X64603301Y-42445956D01*
X64633121Y-42595873D01*
X64633121Y-42748735D01*
X64621135Y-42808995D01*
X64603300Y-42898655D01*
X64544804Y-43039878D01*
X64544802Y-43039881D01*
X64459882Y-43166973D01*
X64351790Y-43275065D01*
X64234890Y-43353175D01*
X64224695Y-43359987D01*
X64083472Y-43418483D01*
X64083471Y-43418483D01*
X64083469Y-43418484D01*
X63933552Y-43448304D01*
X63780690Y-43448304D01*
X63630773Y-43418484D01*
X63630771Y-43418483D01*
X63630770Y-43418483D01*
X63489547Y-43359987D01*
X63479352Y-43353175D01*
X63362452Y-43275065D01*
X63254360Y-43166973D01*
X63169440Y-43039881D01*
X63169438Y-43039878D01*
X63110942Y-42898655D01*
X63093108Y-42808995D01*
X63081121Y-42748735D01*
X63081121Y-42595873D01*
X63110941Y-42445956D01*
X63116041Y-42433643D01*
X63169438Y-42304730D01*
X63186702Y-42278893D01*
X63254360Y-42177635D01*
X63362452Y-42069543D01*
X63489544Y-41984623D01*
X63489547Y-41984621D01*
X63630770Y-41926125D01*
X63630771Y-41926125D01*
X63630773Y-41926124D01*
X63780690Y-41896304D01*
X63933552Y-41896304D01*
X64083469Y-41926124D01*
X64083469Y-41926124D01*
G37*
G36*
X24383642Y-41429781D02*
G01*
X24529414Y-41490162D01*
X24529416Y-41490163D01*
X24660608Y-41577822D01*
X24772178Y-41689392D01*
X24858569Y-41818687D01*
X24859838Y-41820586D01*
X24920219Y-41966358D01*
X24951000Y-42121107D01*
X24951000Y-42278893D01*
X24920219Y-42433642D01*
X24915118Y-42445956D01*
X24859837Y-42579416D01*
X24772178Y-42710608D01*
X24660608Y-42822178D01*
X24529416Y-42909837D01*
X24529415Y-42909838D01*
X24529414Y-42909838D01*
X24383642Y-42970219D01*
X24228893Y-43001000D01*
X24071107Y-43001000D01*
X23916358Y-42970219D01*
X23770586Y-42909838D01*
X23770585Y-42909838D01*
X23770584Y-42909837D01*
X23639392Y-42822178D01*
X23527822Y-42710608D01*
X23440163Y-42579416D01*
X23384882Y-42445956D01*
X23379781Y-42433642D01*
X23349000Y-42278893D01*
X23349000Y-42121107D01*
X23379781Y-41966358D01*
X23440162Y-41820586D01*
X23441431Y-41818687D01*
X23527822Y-41689392D01*
X23639392Y-41577822D01*
X23770584Y-41490163D01*
X23770586Y-41490162D01*
X23916358Y-41429781D01*
X24071107Y-41399000D01*
X24228893Y-41399000D01*
X24383642Y-41429781D01*
X24383642Y-41429781D01*
G37*
G36*
X29316823Y-40141313D02*
G01*
X29477242Y-40189976D01*
X29609906Y-40260886D01*
X29625078Y-40268996D01*
X29754659Y-40375341D01*
X29861004Y-40504922D01*
X29861005Y-40504924D01*
X29940024Y-40652758D01*
X29988687Y-40813177D01*
X30005117Y-40980000D01*
X29988687Y-41146823D01*
X29940024Y-41307242D01*
X29890978Y-41399000D01*
X29861004Y-41455078D01*
X29754659Y-41584659D01*
X29625078Y-41691004D01*
X29625076Y-41691005D01*
X29477242Y-41770024D01*
X29316823Y-41818687D01*
X29191804Y-41831000D01*
X29108196Y-41831000D01*
X28983177Y-41818687D01*
X28822758Y-41770024D01*
X28674924Y-41691005D01*
X28674922Y-41691004D01*
X28545341Y-41584659D01*
X28438996Y-41455078D01*
X28409022Y-41399000D01*
X28359976Y-41307242D01*
X28311313Y-41146823D01*
X28294883Y-40980000D01*
X28311313Y-40813177D01*
X28359976Y-40652758D01*
X28438995Y-40504924D01*
X28438996Y-40504922D01*
X28545341Y-40375341D01*
X28674922Y-40268996D01*
X28690094Y-40260886D01*
X28822758Y-40189976D01*
X28983177Y-40141313D01*
X29108196Y-40129000D01*
X29191804Y-40129000D01*
X29316823Y-40141313D01*
X29316823Y-40141313D01*
G37*
G36*
X36936823Y-40141313D02*
G01*
X37097242Y-40189976D01*
X37229906Y-40260886D01*
X37245078Y-40268996D01*
X37374659Y-40375341D01*
X37481004Y-40504922D01*
X37481005Y-40504924D01*
X37560024Y-40652758D01*
X37608687Y-40813177D01*
X37625117Y-40980000D01*
X37608687Y-41146823D01*
X37560024Y-41307242D01*
X37510978Y-41399000D01*
X37481004Y-41455078D01*
X37374659Y-41584659D01*
X37245078Y-41691004D01*
X37245076Y-41691005D01*
X37097242Y-41770024D01*
X36936823Y-41818687D01*
X36811804Y-41831000D01*
X36728196Y-41831000D01*
X36603177Y-41818687D01*
X36442758Y-41770024D01*
X36294924Y-41691005D01*
X36294922Y-41691004D01*
X36165341Y-41584659D01*
X36058996Y-41455078D01*
X36029022Y-41399000D01*
X35979976Y-41307242D01*
X35931313Y-41146823D01*
X35914883Y-40980000D01*
X35931313Y-40813177D01*
X35979976Y-40652758D01*
X36058995Y-40504924D01*
X36058996Y-40504922D01*
X36165341Y-40375341D01*
X36294922Y-40268996D01*
X36310094Y-40260886D01*
X36442758Y-40189976D01*
X36603177Y-40141313D01*
X36728196Y-40129000D01*
X36811804Y-40129000D01*
X36936823Y-40141313D01*
X36936823Y-40141313D01*
G37*
G36*
X65197149Y-39541432D02*
G01*
X64927647Y-41069854D01*
X63399225Y-40800352D01*
X63668727Y-39271930D01*
X65197149Y-39541432D01*
X65197149Y-39541432D01*
G37*
G36*
X19998228Y-39081703D02*
G01*
X20153100Y-39145853D01*
X20292481Y-39238985D01*
X20411015Y-39357519D01*
X20504147Y-39496900D01*
X20568297Y-39651772D01*
X20601000Y-39816184D01*
X20601000Y-39983816D01*
X20568297Y-40148228D01*
X20504147Y-40303100D01*
X20411015Y-40442481D01*
X20292481Y-40561015D01*
X20153100Y-40654147D01*
X19998228Y-40718297D01*
X19833816Y-40751000D01*
X19666184Y-40751000D01*
X19501772Y-40718297D01*
X19346900Y-40654147D01*
X19207519Y-40561015D01*
X19088985Y-40442481D01*
X18995853Y-40303100D01*
X18931703Y-40148228D01*
X18899000Y-39983816D01*
X18899000Y-39816184D01*
X18931703Y-39651772D01*
X18995853Y-39496900D01*
X19088985Y-39357519D01*
X19207519Y-39238985D01*
X19346900Y-39145853D01*
X19501772Y-39081703D01*
X19666184Y-39049000D01*
X19833816Y-39049000D01*
X19998228Y-39081703D01*
X19998228Y-39081703D01*
G37*
G36*
X68282615Y-38031305D02*
G01*
X68437487Y-38095455D01*
X68576868Y-38188587D01*
X68695402Y-38307121D01*
X68788534Y-38446502D01*
X68852684Y-38601374D01*
X68885387Y-38765786D01*
X68885387Y-38933418D01*
X68852684Y-39097830D01*
X68788534Y-39252702D01*
X68695402Y-39392083D01*
X68576868Y-39510617D01*
X68437487Y-39603749D01*
X68282615Y-39667899D01*
X68118203Y-39700602D01*
X67950571Y-39700602D01*
X67786159Y-39667899D01*
X67631287Y-39603749D01*
X67491906Y-39510617D01*
X67373372Y-39392083D01*
X67280240Y-39252702D01*
X67216090Y-39097830D01*
X67183387Y-38933418D01*
X67183387Y-38765786D01*
X67216090Y-38601374D01*
X67280240Y-38446502D01*
X67373372Y-38307121D01*
X67491906Y-38188587D01*
X67631287Y-38095455D01*
X67786159Y-38031305D01*
X67950571Y-37998602D01*
X68118203Y-37998602D01*
X68282615Y-38031305D01*
X68282615Y-38031305D01*
G37*
G36*
X36936823Y-37601313D02*
G01*
X37097242Y-37649976D01*
X37229906Y-37720886D01*
X37245078Y-37728996D01*
X37374659Y-37835341D01*
X37481004Y-37964922D01*
X37481005Y-37964924D01*
X37560024Y-38112758D01*
X37608687Y-38273177D01*
X37625117Y-38440000D01*
X37608687Y-38606823D01*
X37560024Y-38767242D01*
X37489114Y-38899906D01*
X37481004Y-38915078D01*
X37374659Y-39044659D01*
X37245078Y-39151004D01*
X37245076Y-39151005D01*
X37097242Y-39230024D01*
X36936823Y-39278687D01*
X36811804Y-39291000D01*
X36728196Y-39291000D01*
X36603177Y-39278687D01*
X36442758Y-39230024D01*
X36294924Y-39151005D01*
X36294922Y-39151004D01*
X36165341Y-39044659D01*
X36058996Y-38915078D01*
X36050886Y-38899906D01*
X35979976Y-38767242D01*
X35931313Y-38606823D01*
X35914883Y-38440000D01*
X35931313Y-38273177D01*
X35979976Y-38112758D01*
X36058995Y-37964924D01*
X36058996Y-37964922D01*
X36165341Y-37835341D01*
X36294922Y-37728996D01*
X36310094Y-37720886D01*
X36442758Y-37649976D01*
X36603177Y-37601313D01*
X36728196Y-37589000D01*
X36811804Y-37589000D01*
X36936823Y-37601313D01*
X36936823Y-37601313D01*
G37*
G36*
X29316823Y-37601313D02*
G01*
X29477242Y-37649976D01*
X29609906Y-37720886D01*
X29625078Y-37728996D01*
X29754659Y-37835341D01*
X29861004Y-37964922D01*
X29861005Y-37964924D01*
X29940024Y-38112758D01*
X29988687Y-38273177D01*
X30005117Y-38440000D01*
X29988687Y-38606823D01*
X29940024Y-38767242D01*
X29869114Y-38899906D01*
X29861004Y-38915078D01*
X29754659Y-39044659D01*
X29625078Y-39151004D01*
X29625076Y-39151005D01*
X29477242Y-39230024D01*
X29316823Y-39278687D01*
X29191804Y-39291000D01*
X29108196Y-39291000D01*
X28983177Y-39278687D01*
X28822758Y-39230024D01*
X28674924Y-39151005D01*
X28674922Y-39151004D01*
X28545341Y-39044659D01*
X28438996Y-38915078D01*
X28430886Y-38899906D01*
X28359976Y-38767242D01*
X28311313Y-38606823D01*
X28294883Y-38440000D01*
X28311313Y-38273177D01*
X28359976Y-38112758D01*
X28438995Y-37964924D01*
X28438996Y-37964922D01*
X28545341Y-37835341D01*
X28674922Y-37728996D01*
X28690094Y-37720886D01*
X28822758Y-37649976D01*
X28983177Y-37601313D01*
X29108196Y-37589000D01*
X29191804Y-37589000D01*
X29316823Y-37601313D01*
X29316823Y-37601313D01*
G37*
G36*
X54894419Y-36595675D02*
G01*
X55049291Y-36659825D01*
X55188672Y-36752957D01*
X55307206Y-36871491D01*
X55400338Y-37010872D01*
X55464488Y-37165744D01*
X55497191Y-37330156D01*
X55497191Y-37497788D01*
X55464488Y-37662200D01*
X55400338Y-37817072D01*
X55307206Y-37956453D01*
X55188672Y-38074987D01*
X55049291Y-38168119D01*
X54894419Y-38232269D01*
X54730007Y-38264972D01*
X54562375Y-38264972D01*
X54397963Y-38232269D01*
X54243091Y-38168119D01*
X54103710Y-38074987D01*
X53985176Y-37956453D01*
X53892044Y-37817072D01*
X53827894Y-37662200D01*
X53795191Y-37497788D01*
X53795191Y-37330156D01*
X53827894Y-37165744D01*
X53892044Y-37010872D01*
X53985176Y-36871491D01*
X54103710Y-36752957D01*
X54243091Y-36659825D01*
X54397963Y-36595675D01*
X54562375Y-36562972D01*
X54730007Y-36562972D01*
X54894419Y-36595675D01*
X54894419Y-36595675D01*
G37*
G36*
X19779393Y-35399304D02*
G01*
X20016101Y-35497352D01*
X20016103Y-35497353D01*
X20229135Y-35639696D01*
X20410304Y-35820865D01*
X20532067Y-36003097D01*
X20552648Y-36033899D01*
X20650696Y-36270607D01*
X20700680Y-36521893D01*
X20700680Y-36778107D01*
X20650696Y-37029393D01*
X20563941Y-37238838D01*
X20552647Y-37266103D01*
X20410304Y-37479135D01*
X20229135Y-37660304D01*
X20016103Y-37802647D01*
X20016102Y-37802648D01*
X20016101Y-37802648D01*
X19779393Y-37900696D01*
X19528107Y-37950680D01*
X19271893Y-37950680D01*
X19020607Y-37900696D01*
X18783899Y-37802648D01*
X18783898Y-37802648D01*
X18783897Y-37802647D01*
X18570865Y-37660304D01*
X18389696Y-37479135D01*
X18247353Y-37266103D01*
X18236059Y-37238838D01*
X18149304Y-37029393D01*
X18099320Y-36778107D01*
X18099320Y-36521893D01*
X18149304Y-36270607D01*
X18247352Y-36033899D01*
X18267933Y-36003097D01*
X18389696Y-35820865D01*
X18570865Y-35639696D01*
X18783897Y-35497353D01*
X18783899Y-35497352D01*
X19020607Y-35399304D01*
X19271893Y-35349320D01*
X19528107Y-35349320D01*
X19779393Y-35399304D01*
X19779393Y-35399304D01*
G37*
G36*
X23947308Y-35443342D02*
G01*
X24123165Y-35516184D01*
X24174976Y-35537645D01*
X24379871Y-35674552D01*
X24554120Y-35848801D01*
X24683533Y-36042481D01*
X24691028Y-36053698D01*
X24785330Y-36281364D01*
X24833405Y-36523053D01*
X24833405Y-36769481D01*
X24785330Y-37011170D01*
X24721304Y-37165744D01*
X24691027Y-37238838D01*
X24554120Y-37443733D01*
X24379871Y-37617982D01*
X24174976Y-37754889D01*
X24174975Y-37754890D01*
X24174974Y-37754890D01*
X23947308Y-37849192D01*
X23705619Y-37897267D01*
X23459191Y-37897267D01*
X23217502Y-37849192D01*
X22989836Y-37754890D01*
X22989835Y-37754890D01*
X22989834Y-37754889D01*
X22784939Y-37617982D01*
X22610690Y-37443733D01*
X22473783Y-37238838D01*
X22443507Y-37165744D01*
X22379480Y-37011170D01*
X22331405Y-36769481D01*
X22331405Y-36523053D01*
X22379480Y-36281364D01*
X22473782Y-36053698D01*
X22481277Y-36042481D01*
X22610690Y-35848801D01*
X22784939Y-35674552D01*
X22989834Y-35537645D01*
X23041646Y-35516184D01*
X23217502Y-35443342D01*
X23459191Y-35395267D01*
X23705619Y-35395267D01*
X23947308Y-35443342D01*
X23947308Y-35443342D01*
G37*
G36*
X36936823Y-35061313D02*
G01*
X37097242Y-35109976D01*
X37214699Y-35172758D01*
X37245078Y-35188996D01*
X37374659Y-35295341D01*
X37481004Y-35424922D01*
X37481005Y-35424924D01*
X37560024Y-35572758D01*
X37608687Y-35733177D01*
X37625117Y-35900000D01*
X37608687Y-36066823D01*
X37588392Y-36133725D01*
X37564950Y-36211005D01*
X37560024Y-36227242D01*
X37511355Y-36318295D01*
X37481004Y-36375078D01*
X37374659Y-36504659D01*
X37245078Y-36611004D01*
X37245076Y-36611005D01*
X37097242Y-36690024D01*
X36936823Y-36738687D01*
X36811804Y-36751000D01*
X36728196Y-36751000D01*
X36603177Y-36738687D01*
X36442758Y-36690024D01*
X36294924Y-36611005D01*
X36294922Y-36611004D01*
X36165341Y-36504659D01*
X36058996Y-36375078D01*
X36028645Y-36318295D01*
X35979976Y-36227242D01*
X35975051Y-36211005D01*
X35951608Y-36133725D01*
X35931313Y-36066823D01*
X35914883Y-35900000D01*
X35931313Y-35733177D01*
X35979976Y-35572758D01*
X36058995Y-35424924D01*
X36058996Y-35424922D01*
X36165341Y-35295341D01*
X36294922Y-35188996D01*
X36325301Y-35172758D01*
X36442758Y-35109976D01*
X36603177Y-35061313D01*
X36728196Y-35049000D01*
X36811804Y-35049000D01*
X36936823Y-35061313D01*
X36936823Y-35061313D01*
G37*
G36*
X29316823Y-35061313D02*
G01*
X29477242Y-35109976D01*
X29594699Y-35172758D01*
X29625078Y-35188996D01*
X29754659Y-35295341D01*
X29861004Y-35424922D01*
X29861005Y-35424924D01*
X29940024Y-35572758D01*
X29988687Y-35733177D01*
X30005117Y-35900000D01*
X29988687Y-36066823D01*
X29968392Y-36133725D01*
X29944950Y-36211005D01*
X29940024Y-36227242D01*
X29891355Y-36318295D01*
X29861004Y-36375078D01*
X29754659Y-36504659D01*
X29625078Y-36611004D01*
X29625076Y-36611005D01*
X29477242Y-36690024D01*
X29316823Y-36738687D01*
X29191804Y-36751000D01*
X29108196Y-36751000D01*
X28983177Y-36738687D01*
X28822758Y-36690024D01*
X28674924Y-36611005D01*
X28674922Y-36611004D01*
X28545341Y-36504659D01*
X28438996Y-36375078D01*
X28408645Y-36318295D01*
X28359976Y-36227242D01*
X28355051Y-36211005D01*
X28331608Y-36133725D01*
X28311313Y-36066823D01*
X28294883Y-35900000D01*
X28311313Y-35733177D01*
X28359976Y-35572758D01*
X28438995Y-35424924D01*
X28438996Y-35424922D01*
X28545341Y-35295341D01*
X28674922Y-35188996D01*
X28705301Y-35172758D01*
X28822758Y-35109976D01*
X28983177Y-35061313D01*
X29108196Y-35049000D01*
X29191804Y-35049000D01*
X29316823Y-35061313D01*
X29316823Y-35061313D01*
G37*
G36*
X40448228Y-34781703D02*
G01*
X40603100Y-34845853D01*
X40742481Y-34938985D01*
X40861015Y-35057519D01*
X40954147Y-35196900D01*
X41018297Y-35351772D01*
X41051000Y-35516184D01*
X41051000Y-35683816D01*
X41018297Y-35848228D01*
X40954147Y-36003100D01*
X40861015Y-36142481D01*
X40742481Y-36261015D01*
X40603100Y-36354147D01*
X40448228Y-36418297D01*
X40283816Y-36451000D01*
X40116184Y-36451000D01*
X39951772Y-36418297D01*
X39796900Y-36354147D01*
X39657519Y-36261015D01*
X39538985Y-36142481D01*
X39445853Y-36003100D01*
X39381703Y-35848228D01*
X39349000Y-35683816D01*
X39349000Y-35516184D01*
X39381703Y-35351772D01*
X39445853Y-35196900D01*
X39538985Y-35057519D01*
X39657519Y-34938985D01*
X39796900Y-34845853D01*
X39951772Y-34781703D01*
X40116184Y-34749000D01*
X40283816Y-34749000D01*
X40448228Y-34781703D01*
X40448228Y-34781703D01*
G37*
G36*
X59388879Y-34772947D02*
G01*
X59543751Y-34837097D01*
X59683132Y-34930229D01*
X59801666Y-35048763D01*
X59894798Y-35188144D01*
X59958948Y-35343016D01*
X59991651Y-35507428D01*
X59991651Y-35675060D01*
X59958948Y-35839472D01*
X59894798Y-35994344D01*
X59801666Y-36133725D01*
X59683132Y-36252259D01*
X59543751Y-36345391D01*
X59388879Y-36409541D01*
X59224467Y-36442244D01*
X59056835Y-36442244D01*
X58892423Y-36409541D01*
X58737551Y-36345391D01*
X58598170Y-36252259D01*
X58479636Y-36133725D01*
X58386504Y-35994344D01*
X58322354Y-35839472D01*
X58289651Y-35675060D01*
X58289651Y-35507428D01*
X58322354Y-35343016D01*
X58386504Y-35188144D01*
X58479636Y-35048763D01*
X58598170Y-34930229D01*
X58737551Y-34837097D01*
X58892423Y-34772947D01*
X59056835Y-34740244D01*
X59224467Y-34740244D01*
X59388879Y-34772947D01*
X59388879Y-34772947D01*
G37*
G36*
X52086823Y-34661313D02*
G01*
X52247242Y-34709976D01*
X52365052Y-34772947D01*
X52395078Y-34788996D01*
X52524659Y-34895341D01*
X52631004Y-35024922D01*
X52631005Y-35024924D01*
X52710024Y-35172758D01*
X52710025Y-35172761D01*
X52714950Y-35188996D01*
X52758687Y-35333177D01*
X52775117Y-35500000D01*
X52758687Y-35666823D01*
X52719083Y-35797380D01*
X52711959Y-35820865D01*
X52710024Y-35827242D01*
X52669477Y-35903100D01*
X52631004Y-35975078D01*
X52524659Y-36104659D01*
X52395078Y-36211004D01*
X52395076Y-36211005D01*
X52247242Y-36290024D01*
X52086823Y-36338687D01*
X51961804Y-36351000D01*
X51878196Y-36351000D01*
X51753177Y-36338687D01*
X51592758Y-36290024D01*
X51444924Y-36211005D01*
X51444922Y-36211004D01*
X51315341Y-36104659D01*
X51208996Y-35975078D01*
X51170523Y-35903100D01*
X51129976Y-35827242D01*
X51128042Y-35820865D01*
X51120917Y-35797380D01*
X51081313Y-35666823D01*
X51064883Y-35500000D01*
X51081313Y-35333177D01*
X51125050Y-35188996D01*
X51129975Y-35172761D01*
X51129976Y-35172758D01*
X51208995Y-35024924D01*
X51208996Y-35024922D01*
X51315341Y-34895341D01*
X51444922Y-34788996D01*
X51474948Y-34772947D01*
X51592758Y-34709976D01*
X51753177Y-34661313D01*
X51878196Y-34649000D01*
X51961804Y-34649000D01*
X52086823Y-34661313D01*
X52086823Y-34661313D01*
G37*
G36*
X44548228Y-34681703D02*
G01*
X44703100Y-34745853D01*
X44842481Y-34838985D01*
X44961015Y-34957519D01*
X45054147Y-35096900D01*
X45118297Y-35251772D01*
X45151000Y-35416184D01*
X45151000Y-35583816D01*
X45118297Y-35748228D01*
X45054147Y-35903100D01*
X44961015Y-36042481D01*
X44842481Y-36161015D01*
X44703100Y-36254147D01*
X44548228Y-36318297D01*
X44383816Y-36351000D01*
X44216184Y-36351000D01*
X44051772Y-36318297D01*
X43896900Y-36254147D01*
X43757519Y-36161015D01*
X43638985Y-36042481D01*
X43545853Y-35903100D01*
X43481703Y-35748228D01*
X43449000Y-35583816D01*
X43449000Y-35416184D01*
X43481703Y-35251772D01*
X43545853Y-35096900D01*
X43638985Y-34957519D01*
X43757519Y-34838985D01*
X43896900Y-34745853D01*
X44051772Y-34681703D01*
X44216184Y-34649000D01*
X44383816Y-34649000D01*
X44548228Y-34681703D01*
X44548228Y-34681703D01*
G37*
G36*
X26751804Y-33658709D02*
G01*
X25500803Y-35825506D01*
X23334006Y-34574505D01*
X24585007Y-32407708D01*
X26751804Y-33658709D01*
X26751804Y-33658709D01*
G37*
G36*
X29316823Y-32521313D02*
G01*
X29477242Y-32569976D01*
X29609906Y-32640886D01*
X29625078Y-32648996D01*
X29754659Y-32755341D01*
X29861004Y-32884922D01*
X29861005Y-32884924D01*
X29940024Y-33032758D01*
X29988687Y-33193177D01*
X30005117Y-33360000D01*
X29988687Y-33526823D01*
X29940024Y-33687242D01*
X29869114Y-33819906D01*
X29861004Y-33835078D01*
X29754659Y-33964659D01*
X29625078Y-34071004D01*
X29625076Y-34071005D01*
X29477242Y-34150024D01*
X29316823Y-34198687D01*
X29191804Y-34211000D01*
X29108196Y-34211000D01*
X28983177Y-34198687D01*
X28822758Y-34150024D01*
X28674924Y-34071005D01*
X28674922Y-34071004D01*
X28545341Y-33964659D01*
X28438996Y-33835078D01*
X28430886Y-33819906D01*
X28359976Y-33687242D01*
X28311313Y-33526823D01*
X28294883Y-33360000D01*
X28311313Y-33193177D01*
X28359976Y-33032758D01*
X28438995Y-32884924D01*
X28438996Y-32884922D01*
X28545341Y-32755341D01*
X28674922Y-32648996D01*
X28690094Y-32640886D01*
X28822758Y-32569976D01*
X28983177Y-32521313D01*
X29108196Y-32509000D01*
X29191804Y-32509000D01*
X29316823Y-32521313D01*
X29316823Y-32521313D01*
G37*
G36*
X36936823Y-32521313D02*
G01*
X37097242Y-32569976D01*
X37229906Y-32640886D01*
X37245078Y-32648996D01*
X37374659Y-32755341D01*
X37481004Y-32884922D01*
X37481005Y-32884924D01*
X37560024Y-33032758D01*
X37608687Y-33193177D01*
X37625117Y-33360000D01*
X37608687Y-33526823D01*
X37560024Y-33687242D01*
X37489114Y-33819906D01*
X37481004Y-33835078D01*
X37374659Y-33964659D01*
X37245078Y-34071004D01*
X37245076Y-34071005D01*
X37097242Y-34150024D01*
X36936823Y-34198687D01*
X36811804Y-34211000D01*
X36728196Y-34211000D01*
X36603177Y-34198687D01*
X36442758Y-34150024D01*
X36294924Y-34071005D01*
X36294922Y-34071004D01*
X36165341Y-33964659D01*
X36058996Y-33835078D01*
X36050886Y-33819906D01*
X35979976Y-33687242D01*
X35931313Y-33526823D01*
X35914883Y-33360000D01*
X35931313Y-33193177D01*
X35979976Y-33032758D01*
X36058995Y-32884924D01*
X36058996Y-32884922D01*
X36165341Y-32755341D01*
X36294922Y-32648996D01*
X36310094Y-32640886D01*
X36442758Y-32569976D01*
X36603177Y-32521313D01*
X36728196Y-32509000D01*
X36811804Y-32509000D01*
X36936823Y-32521313D01*
X36936823Y-32521313D01*
G37*
G36*
X54187820Y-31659139D02*
G01*
X53605701Y-33258496D01*
X52006344Y-32676377D01*
X52588463Y-31077020D01*
X54187820Y-31659139D01*
X54187820Y-31659139D01*
G37*
G36*
X20948228Y-30731703D02*
G01*
X21103100Y-30795853D01*
X21242481Y-30888985D01*
X21361015Y-31007519D01*
X21454147Y-31146900D01*
X21518297Y-31301772D01*
X21551000Y-31466184D01*
X21551000Y-31633816D01*
X21518297Y-31798228D01*
X21454147Y-31953100D01*
X21361015Y-32092481D01*
X21242481Y-32211015D01*
X21103100Y-32304147D01*
X20948228Y-32368297D01*
X20783816Y-32401000D01*
X20616184Y-32401000D01*
X20451772Y-32368297D01*
X20296900Y-32304147D01*
X20157519Y-32211015D01*
X20038985Y-32092481D01*
X19945853Y-31953100D01*
X19881703Y-31798228D01*
X19849000Y-31633816D01*
X19849000Y-31466184D01*
X19881703Y-31301772D01*
X19945853Y-31146900D01*
X20038985Y-31007519D01*
X20157519Y-30888985D01*
X20296900Y-30795853D01*
X20451772Y-30731703D01*
X20616184Y-30699000D01*
X20783816Y-30699000D01*
X20948228Y-30731703D01*
X20948228Y-30731703D01*
G37*
G36*
X36936823Y-29981313D02*
G01*
X37097242Y-30029976D01*
X37203344Y-30086689D01*
X37245078Y-30108996D01*
X37374659Y-30215341D01*
X37481004Y-30344922D01*
X37481005Y-30344924D01*
X37560024Y-30492758D01*
X37608687Y-30653177D01*
X37625117Y-30820000D01*
X37608687Y-30986823D01*
X37560024Y-31147242D01*
X37489114Y-31279906D01*
X37481004Y-31295078D01*
X37374659Y-31424659D01*
X37245078Y-31531004D01*
X37245076Y-31531005D01*
X37097242Y-31610024D01*
X36936823Y-31658687D01*
X36811804Y-31671000D01*
X36728196Y-31671000D01*
X36603177Y-31658687D01*
X36442758Y-31610024D01*
X36294924Y-31531005D01*
X36294922Y-31531004D01*
X36165341Y-31424659D01*
X36058996Y-31295078D01*
X36050886Y-31279906D01*
X35979976Y-31147242D01*
X35931313Y-30986823D01*
X35914883Y-30820000D01*
X35931313Y-30653177D01*
X35979976Y-30492758D01*
X36058995Y-30344924D01*
X36058996Y-30344922D01*
X36165341Y-30215341D01*
X36294922Y-30108996D01*
X36336656Y-30086689D01*
X36442758Y-30029976D01*
X36603177Y-29981313D01*
X36728196Y-29969000D01*
X36811804Y-29969000D01*
X36936823Y-29981313D01*
X36936823Y-29981313D01*
G37*
G36*
X29316823Y-29981313D02*
G01*
X29477242Y-30029976D01*
X29583344Y-30086689D01*
X29625078Y-30108996D01*
X29754659Y-30215341D01*
X29861004Y-30344922D01*
X29861005Y-30344924D01*
X29940024Y-30492758D01*
X29988687Y-30653177D01*
X30005117Y-30820000D01*
X29988687Y-30986823D01*
X29940024Y-31147242D01*
X29869114Y-31279906D01*
X29861004Y-31295078D01*
X29754659Y-31424659D01*
X29625078Y-31531004D01*
X29625076Y-31531005D01*
X29477242Y-31610024D01*
X29316823Y-31658687D01*
X29191804Y-31671000D01*
X29108196Y-31671000D01*
X28983177Y-31658687D01*
X28822758Y-31610024D01*
X28674924Y-31531005D01*
X28674922Y-31531004D01*
X28545341Y-31424659D01*
X28438996Y-31295078D01*
X28430886Y-31279906D01*
X28359976Y-31147242D01*
X28311313Y-30986823D01*
X28294883Y-30820000D01*
X28311313Y-30653177D01*
X28359976Y-30492758D01*
X28438995Y-30344924D01*
X28438996Y-30344922D01*
X28545341Y-30215341D01*
X28674922Y-30108996D01*
X28716656Y-30086689D01*
X28822758Y-30029976D01*
X28983177Y-29981313D01*
X29108196Y-29969000D01*
X29191804Y-29969000D01*
X29316823Y-29981313D01*
X29316823Y-29981313D01*
G37*
G36*
X57419207Y-29414827D02*
G01*
X57579626Y-29463490D01*
X57712290Y-29534400D01*
X57727462Y-29542510D01*
X57857043Y-29648855D01*
X57963388Y-29778436D01*
X57963389Y-29778438D01*
X58042408Y-29926272D01*
X58091071Y-30086691D01*
X58107501Y-30253514D01*
X58091071Y-30420337D01*
X58042408Y-30580756D01*
X58015050Y-30631939D01*
X57963388Y-30728592D01*
X57857043Y-30858173D01*
X57727462Y-30964518D01*
X57727460Y-30964519D01*
X57579626Y-31043538D01*
X57419207Y-31092201D01*
X57294188Y-31104514D01*
X57210580Y-31104514D01*
X57085561Y-31092201D01*
X56925142Y-31043538D01*
X56777308Y-30964519D01*
X56777306Y-30964518D01*
X56647725Y-30858173D01*
X56541380Y-30728592D01*
X56489718Y-30631939D01*
X56462360Y-30580756D01*
X56413697Y-30420337D01*
X56397267Y-30253514D01*
X56413697Y-30086691D01*
X56462360Y-29926272D01*
X56541379Y-29778438D01*
X56541380Y-29778436D01*
X56647725Y-29648855D01*
X56777306Y-29542510D01*
X56792478Y-29534400D01*
X56925142Y-29463490D01*
X57085561Y-29414827D01*
X57210580Y-29402514D01*
X57294188Y-29402514D01*
X57419207Y-29414827D01*
X57419207Y-29414827D01*
G37*
G36*
X65395542Y-28284885D02*
G01*
X65632250Y-28382933D01*
X65632252Y-28382934D01*
X65845284Y-28525277D01*
X66026453Y-28706446D01*
X66150381Y-28891918D01*
X66168797Y-28919480D01*
X66266845Y-29156188D01*
X66316829Y-29407474D01*
X66316829Y-29663688D01*
X66266845Y-29914974D01*
X66186478Y-30108996D01*
X66168796Y-30151684D01*
X66026453Y-30364716D01*
X65845284Y-30545885D01*
X65632252Y-30688228D01*
X65632251Y-30688229D01*
X65632250Y-30688229D01*
X65395542Y-30786277D01*
X65144256Y-30836261D01*
X64888042Y-30836261D01*
X64636756Y-30786277D01*
X64400048Y-30688229D01*
X64400047Y-30688229D01*
X64400046Y-30688228D01*
X64187014Y-30545885D01*
X64005845Y-30364716D01*
X63863502Y-30151684D01*
X63845820Y-30108996D01*
X63765453Y-29914974D01*
X63715469Y-29663688D01*
X63715469Y-29407474D01*
X63765453Y-29156188D01*
X63863501Y-28919480D01*
X63881917Y-28891918D01*
X64005845Y-28706446D01*
X64187014Y-28525277D01*
X64400046Y-28382934D01*
X64400048Y-28382933D01*
X64636756Y-28284885D01*
X64888042Y-28234901D01*
X65144256Y-28234901D01*
X65395542Y-28284885D01*
X65395542Y-28284885D01*
G37*
G36*
X54132636Y-28942252D02*
G01*
X54293055Y-28990915D01*
X54425719Y-29061825D01*
X54440891Y-29069935D01*
X54570472Y-29176280D01*
X54676817Y-29305861D01*
X54676818Y-29305863D01*
X54755837Y-29453697D01*
X54804500Y-29614116D01*
X54820930Y-29780939D01*
X54804500Y-29947762D01*
X54755837Y-30108181D01*
X54755401Y-30108996D01*
X54676817Y-30256017D01*
X54570472Y-30385598D01*
X54440891Y-30491943D01*
X54440889Y-30491944D01*
X54293055Y-30570963D01*
X54132636Y-30619626D01*
X54007617Y-30631939D01*
X53924009Y-30631939D01*
X53798990Y-30619626D01*
X53638571Y-30570963D01*
X53490737Y-30491944D01*
X53490735Y-30491943D01*
X53361154Y-30385598D01*
X53254809Y-30256017D01*
X53176225Y-30108996D01*
X53175789Y-30108181D01*
X53127126Y-29947762D01*
X53110696Y-29780939D01*
X53127126Y-29614116D01*
X53175789Y-29453697D01*
X53254808Y-29305863D01*
X53254809Y-29305861D01*
X53361154Y-29176280D01*
X53490735Y-29069935D01*
X53505907Y-29061825D01*
X53638571Y-28990915D01*
X53798990Y-28942252D01*
X53924009Y-28929939D01*
X54007617Y-28929939D01*
X54132636Y-28942252D01*
X54132636Y-28942252D01*
G37*
G36*
X46103447Y-28722878D02*
G01*
X46209595Y-28755078D01*
X46258869Y-28770025D01*
X46263866Y-28771541D01*
X46375106Y-28831000D01*
X46411702Y-28850561D01*
X46541283Y-28956906D01*
X46647628Y-29086487D01*
X46647629Y-29086489D01*
X46726648Y-29234323D01*
X46775311Y-29394742D01*
X46791741Y-29561565D01*
X46775311Y-29728388D01*
X46726648Y-29888807D01*
X46683784Y-29969000D01*
X46647628Y-30036643D01*
X46541283Y-30166224D01*
X46411702Y-30272569D01*
X46411700Y-30272570D01*
X46263866Y-30351589D01*
X46103447Y-30400252D01*
X45978428Y-30412565D01*
X45894820Y-30412565D01*
X45769801Y-30400252D01*
X45609382Y-30351589D01*
X45461548Y-30272570D01*
X45461546Y-30272569D01*
X45331965Y-30166224D01*
X45225620Y-30036643D01*
X45189464Y-29969000D01*
X45146600Y-29888807D01*
X45097937Y-29728388D01*
X45081507Y-29561565D01*
X45097937Y-29394742D01*
X45146600Y-29234323D01*
X45225619Y-29086489D01*
X45225620Y-29086487D01*
X45331965Y-28956906D01*
X45461546Y-28850561D01*
X45498142Y-28831000D01*
X45609382Y-28771541D01*
X45614380Y-28770025D01*
X45663653Y-28755078D01*
X45769801Y-28722878D01*
X45894820Y-28710565D01*
X45978428Y-28710565D01*
X46103447Y-28722878D01*
X46103447Y-28722878D01*
G37*
G36*
X61913667Y-27592099D02*
G01*
X62074086Y-27640762D01*
X62152359Y-27682600D01*
X62221922Y-27719782D01*
X62351503Y-27826127D01*
X62457848Y-27955708D01*
X62457849Y-27955710D01*
X62536868Y-28103544D01*
X62585531Y-28263963D01*
X62601961Y-28430786D01*
X62585531Y-28597609D01*
X62557200Y-28691004D01*
X62537764Y-28755076D01*
X62536868Y-28758028D01*
X62487408Y-28850561D01*
X62457848Y-28905864D01*
X62351503Y-29035445D01*
X62221922Y-29141790D01*
X62221920Y-29141791D01*
X62074086Y-29220810D01*
X61913667Y-29269473D01*
X61788648Y-29281786D01*
X61705040Y-29281786D01*
X61580021Y-29269473D01*
X61419602Y-29220810D01*
X61271768Y-29141791D01*
X61271766Y-29141790D01*
X61142185Y-29035445D01*
X61035840Y-28905864D01*
X61006280Y-28850561D01*
X60956820Y-28758028D01*
X60955925Y-28755076D01*
X60936488Y-28691004D01*
X60908157Y-28597609D01*
X60891727Y-28430786D01*
X60908157Y-28263963D01*
X60956820Y-28103544D01*
X61035839Y-27955710D01*
X61035840Y-27955708D01*
X61142185Y-27826127D01*
X61271766Y-27719782D01*
X61341329Y-27682600D01*
X61419602Y-27640762D01*
X61580021Y-27592099D01*
X61705040Y-27579786D01*
X61788648Y-27579786D01*
X61913667Y-27592099D01*
X61913667Y-27592099D01*
G37*
G36*
X19468781Y-27448572D02*
G01*
X19599338Y-27488176D01*
X19605271Y-27489976D01*
X19629200Y-27497235D01*
X19748387Y-27560942D01*
X19777036Y-27576255D01*
X19906617Y-27682600D01*
X20012962Y-27812181D01*
X20012963Y-27812183D01*
X20091982Y-27960017D01*
X20140645Y-28120436D01*
X20157075Y-28287259D01*
X20140645Y-28454082D01*
X20091982Y-28614501D01*
X20042836Y-28706446D01*
X20012962Y-28762337D01*
X19906617Y-28891918D01*
X19777036Y-28998263D01*
X19777034Y-28998264D01*
X19629200Y-29077283D01*
X19468781Y-29125946D01*
X19343762Y-29138259D01*
X19260154Y-29138259D01*
X19135135Y-29125946D01*
X18974716Y-29077283D01*
X18826882Y-28998264D01*
X18826880Y-28998263D01*
X18697299Y-28891918D01*
X18590954Y-28762337D01*
X18561080Y-28706446D01*
X18511934Y-28614501D01*
X18463271Y-28454082D01*
X18446841Y-28287259D01*
X18463271Y-28120436D01*
X18511934Y-27960017D01*
X18590953Y-27812183D01*
X18590954Y-27812181D01*
X18697299Y-27682600D01*
X18826880Y-27576255D01*
X18855529Y-27560942D01*
X18974716Y-27497235D01*
X18998646Y-27489976D01*
X19004578Y-27488176D01*
X19135135Y-27448572D01*
X19260154Y-27436259D01*
X19343762Y-27436259D01*
X19468781Y-27448572D01*
X19468781Y-27448572D01*
G37*
G36*
X29316823Y-27441313D02*
G01*
X29477242Y-27489976D01*
X29609906Y-27560886D01*
X29625078Y-27568996D01*
X29754659Y-27675341D01*
X29861004Y-27804922D01*
X29861005Y-27804924D01*
X29940024Y-27952758D01*
X29940025Y-27952761D01*
X29942226Y-27960017D01*
X29988687Y-28113177D01*
X30005117Y-28280000D01*
X29988687Y-28446823D01*
X29940024Y-28607242D01*
X29886998Y-28706446D01*
X29861004Y-28755078D01*
X29754659Y-28884659D01*
X29625078Y-28991004D01*
X29625076Y-28991005D01*
X29477242Y-29070024D01*
X29477239Y-29070025D01*
X29453309Y-29077284D01*
X29316823Y-29118687D01*
X29191804Y-29131000D01*
X29108196Y-29131000D01*
X28983177Y-29118687D01*
X28846691Y-29077284D01*
X28822761Y-29070025D01*
X28822758Y-29070024D01*
X28674924Y-28991005D01*
X28674922Y-28991004D01*
X28545341Y-28884659D01*
X28438996Y-28755078D01*
X28413002Y-28706446D01*
X28359976Y-28607242D01*
X28311313Y-28446823D01*
X28294883Y-28280000D01*
X28311313Y-28113177D01*
X28357774Y-27960017D01*
X28359975Y-27952761D01*
X28359976Y-27952758D01*
X28438995Y-27804924D01*
X28438996Y-27804922D01*
X28545341Y-27675341D01*
X28674922Y-27568996D01*
X28690094Y-27560886D01*
X28822758Y-27489976D01*
X28983177Y-27441313D01*
X29108196Y-27429000D01*
X29191804Y-27429000D01*
X29316823Y-27441313D01*
X29316823Y-27441313D01*
G37*
G36*
X36936823Y-27441313D02*
G01*
X37097242Y-27489976D01*
X37229906Y-27560886D01*
X37245078Y-27568996D01*
X37374659Y-27675341D01*
X37481004Y-27804922D01*
X37481005Y-27804924D01*
X37560024Y-27952758D01*
X37560025Y-27952761D01*
X37562226Y-27960017D01*
X37608687Y-28113177D01*
X37625117Y-28280000D01*
X37608687Y-28446823D01*
X37560024Y-28607242D01*
X37506998Y-28706446D01*
X37481004Y-28755078D01*
X37374659Y-28884659D01*
X37245078Y-28991004D01*
X37245076Y-28991005D01*
X37097242Y-29070024D01*
X37097239Y-29070025D01*
X37073309Y-29077284D01*
X36936823Y-29118687D01*
X36811804Y-29131000D01*
X36728196Y-29131000D01*
X36603177Y-29118687D01*
X36466691Y-29077284D01*
X36442761Y-29070025D01*
X36442758Y-29070024D01*
X36294924Y-28991005D01*
X36294922Y-28991004D01*
X36165341Y-28884659D01*
X36058996Y-28755078D01*
X36033002Y-28706446D01*
X35979976Y-28607242D01*
X35931313Y-28446823D01*
X35914883Y-28280000D01*
X35931313Y-28113177D01*
X35977774Y-27960017D01*
X35979975Y-27952761D01*
X35979976Y-27952758D01*
X36058995Y-27804924D01*
X36058996Y-27804922D01*
X36165341Y-27675341D01*
X36294922Y-27568996D01*
X36310094Y-27560886D01*
X36442758Y-27489976D01*
X36603177Y-27441313D01*
X36728196Y-27429000D01*
X36811804Y-27429000D01*
X36936823Y-27441313D01*
X36936823Y-27441313D01*
G37*
G36*
X58250537Y-27228635D02*
G01*
X58405409Y-27292785D01*
X58544790Y-27385917D01*
X58663324Y-27504451D01*
X58756456Y-27643832D01*
X58820606Y-27798704D01*
X58853309Y-27963116D01*
X58853309Y-28130748D01*
X58820606Y-28295160D01*
X58756456Y-28450032D01*
X58663324Y-28589413D01*
X58544790Y-28707947D01*
X58405409Y-28801079D01*
X58250537Y-28865229D01*
X58086125Y-28897932D01*
X57918493Y-28897932D01*
X57754081Y-28865229D01*
X57599209Y-28801079D01*
X57459828Y-28707947D01*
X57341294Y-28589413D01*
X57248162Y-28450032D01*
X57184012Y-28295160D01*
X57151309Y-28130748D01*
X57151309Y-27963116D01*
X57184012Y-27798704D01*
X57248162Y-27643832D01*
X57341294Y-27504451D01*
X57459828Y-27385917D01*
X57599209Y-27292785D01*
X57754081Y-27228635D01*
X57918493Y-27195932D01*
X58086125Y-27195932D01*
X58250537Y-27228635D01*
X58250537Y-27228635D01*
G37*
G36*
X40366823Y-27141313D02*
G01*
X40527242Y-27189976D01*
X40659906Y-27260886D01*
X40675078Y-27268996D01*
X40804659Y-27375341D01*
X40911004Y-27504922D01*
X40911005Y-27504924D01*
X40990024Y-27652758D01*
X41038687Y-27813177D01*
X41055117Y-27980000D01*
X41038687Y-28146823D01*
X40990024Y-28307242D01*
X40923988Y-28430786D01*
X40911004Y-28455078D01*
X40804659Y-28584659D01*
X40675078Y-28691004D01*
X40675076Y-28691005D01*
X40527242Y-28770024D01*
X40527239Y-28770025D01*
X40522241Y-28771541D01*
X40366823Y-28818687D01*
X40241804Y-28831000D01*
X40158196Y-28831000D01*
X40033177Y-28818687D01*
X39877759Y-28771541D01*
X39872761Y-28770025D01*
X39872758Y-28770024D01*
X39724924Y-28691005D01*
X39724922Y-28691004D01*
X39595341Y-28584659D01*
X39488996Y-28455078D01*
X39476012Y-28430786D01*
X39409976Y-28307242D01*
X39361313Y-28146823D01*
X39344883Y-27980000D01*
X39361313Y-27813177D01*
X39409976Y-27652758D01*
X39488995Y-27504924D01*
X39488996Y-27504922D01*
X39595341Y-27375341D01*
X39724922Y-27268996D01*
X39740094Y-27260886D01*
X39872758Y-27189976D01*
X40033177Y-27141313D01*
X40158196Y-27129000D01*
X40241804Y-27129000D01*
X40366823Y-27141313D01*
X40366823Y-27141313D01*
G37*
G36*
X55001367Y-26555432D02*
G01*
X55161786Y-26604095D01*
X55294450Y-26675005D01*
X55309622Y-26683115D01*
X55439203Y-26789460D01*
X55545548Y-26919041D01*
X55545549Y-26919043D01*
X55624568Y-27066877D01*
X55673231Y-27227296D01*
X55689661Y-27394119D01*
X55673231Y-27560942D01*
X55624568Y-27721361D01*
X55575492Y-27813175D01*
X55545548Y-27869197D01*
X55439203Y-27998778D01*
X55309622Y-28105123D01*
X55309620Y-28105124D01*
X55161786Y-28184143D01*
X55001367Y-28232806D01*
X54876348Y-28245119D01*
X54792740Y-28245119D01*
X54667721Y-28232806D01*
X54507302Y-28184143D01*
X54359468Y-28105124D01*
X54359466Y-28105123D01*
X54229885Y-27998778D01*
X54123540Y-27869197D01*
X54093596Y-27813175D01*
X54044520Y-27721361D01*
X53995857Y-27560942D01*
X53979427Y-27394119D01*
X53995857Y-27227296D01*
X54044520Y-27066877D01*
X54123539Y-26919043D01*
X54123540Y-26919041D01*
X54229885Y-26789460D01*
X54359466Y-26683115D01*
X54374638Y-26675005D01*
X54507302Y-26604095D01*
X54667721Y-26555432D01*
X54792740Y-26543119D01*
X54876348Y-26543119D01*
X55001367Y-26555432D01*
X55001367Y-26555432D01*
G37*
G36*
X46972178Y-26336058D02*
G01*
X47132597Y-26384721D01*
X47265261Y-26455631D01*
X47280433Y-26463741D01*
X47410014Y-26570086D01*
X47516359Y-26699667D01*
X47516360Y-26699669D01*
X47595379Y-26847503D01*
X47644042Y-27007922D01*
X47660472Y-27174745D01*
X47644042Y-27341568D01*
X47595379Y-27501987D01*
X47524469Y-27634651D01*
X47516359Y-27649823D01*
X47410014Y-27779404D01*
X47280433Y-27885749D01*
X47280431Y-27885750D01*
X47132597Y-27964769D01*
X46972178Y-28013432D01*
X46847159Y-28025745D01*
X46763551Y-28025745D01*
X46638532Y-28013432D01*
X46478113Y-27964769D01*
X46330279Y-27885750D01*
X46330277Y-27885749D01*
X46200696Y-27779404D01*
X46094351Y-27649823D01*
X46086241Y-27634651D01*
X46015331Y-27501987D01*
X45966668Y-27341568D01*
X45950238Y-27174745D01*
X45966668Y-27007922D01*
X46015331Y-26847503D01*
X46094350Y-26699669D01*
X46094351Y-26699667D01*
X46200696Y-26570086D01*
X46330277Y-26463741D01*
X46345449Y-26455631D01*
X46478113Y-26384721D01*
X46638532Y-26336058D01*
X46763551Y-26323745D01*
X46847159Y-26323745D01*
X46972178Y-26336058D01*
X46972178Y-26336058D01*
G37*
G36*
X66340314Y-26768027D02*
G01*
X63838314Y-26768027D01*
X63838314Y-24266027D01*
X66340314Y-24266027D01*
X66340314Y-26768027D01*
X66340314Y-26768027D01*
G37*
G36*
X36936823Y-24901313D02*
G01*
X37097242Y-24949976D01*
X37229906Y-25020886D01*
X37245078Y-25028996D01*
X37374659Y-25135341D01*
X37481004Y-25264922D01*
X37481005Y-25264924D01*
X37560024Y-25412758D01*
X37608687Y-25573177D01*
X37625117Y-25740000D01*
X37608687Y-25906823D01*
X37560024Y-26067242D01*
X37495575Y-26187817D01*
X37481004Y-26215078D01*
X37374659Y-26344659D01*
X37245078Y-26451004D01*
X37245076Y-26451005D01*
X37097242Y-26530024D01*
X36936823Y-26578687D01*
X36811804Y-26591000D01*
X36728196Y-26591000D01*
X36603177Y-26578687D01*
X36442758Y-26530024D01*
X36294924Y-26451005D01*
X36294922Y-26451004D01*
X36165341Y-26344659D01*
X36058996Y-26215078D01*
X36044425Y-26187817D01*
X35979976Y-26067242D01*
X35931313Y-25906823D01*
X35914883Y-25740000D01*
X35931313Y-25573177D01*
X35979976Y-25412758D01*
X36058995Y-25264924D01*
X36058996Y-25264922D01*
X36165341Y-25135341D01*
X36294922Y-25028996D01*
X36310094Y-25020886D01*
X36442758Y-24949976D01*
X36603177Y-24901313D01*
X36728196Y-24889000D01*
X36811804Y-24889000D01*
X36936823Y-24901313D01*
X36936823Y-24901313D01*
G37*
G36*
X29316823Y-24901313D02*
G01*
X29477242Y-24949976D01*
X29609906Y-25020886D01*
X29625078Y-25028996D01*
X29754659Y-25135341D01*
X29861004Y-25264922D01*
X29861005Y-25264924D01*
X29940024Y-25412758D01*
X29988687Y-25573177D01*
X30005117Y-25740000D01*
X29988687Y-25906823D01*
X29940024Y-26067242D01*
X29875575Y-26187817D01*
X29861004Y-26215078D01*
X29754659Y-26344659D01*
X29625078Y-26451004D01*
X29625076Y-26451005D01*
X29477242Y-26530024D01*
X29316823Y-26578687D01*
X29191804Y-26591000D01*
X29108196Y-26591000D01*
X28983177Y-26578687D01*
X28822758Y-26530024D01*
X28674924Y-26451005D01*
X28674922Y-26451004D01*
X28545341Y-26344659D01*
X28438996Y-26215078D01*
X28424425Y-26187817D01*
X28359976Y-26067242D01*
X28311313Y-25906823D01*
X28294883Y-25740000D01*
X28311313Y-25573177D01*
X28359976Y-25412758D01*
X28438995Y-25264924D01*
X28438996Y-25264922D01*
X28545341Y-25135341D01*
X28674922Y-25028996D01*
X28690094Y-25020886D01*
X28822758Y-24949976D01*
X28983177Y-24901313D01*
X29108196Y-24889000D01*
X29191804Y-24889000D01*
X29316823Y-24901313D01*
X29316823Y-24901313D01*
G37*
G36*
X25764865Y-24874054D02*
G01*
X25925284Y-24922717D01*
X25985215Y-24954751D01*
X26073120Y-25001737D01*
X26202701Y-25108082D01*
X26309046Y-25237663D01*
X26309047Y-25237665D01*
X26388066Y-25385499D01*
X26436729Y-25545918D01*
X26453159Y-25712741D01*
X26436729Y-25879564D01*
X26388066Y-26039983D01*
X26317156Y-26172647D01*
X26309046Y-26187819D01*
X26202701Y-26317400D01*
X26073120Y-26423745D01*
X26073118Y-26423746D01*
X25925284Y-26502765D01*
X25764865Y-26551428D01*
X25639846Y-26563741D01*
X25556238Y-26563741D01*
X25431219Y-26551428D01*
X25270800Y-26502765D01*
X25122966Y-26423746D01*
X25122964Y-26423745D01*
X24993383Y-26317400D01*
X24887038Y-26187819D01*
X24878928Y-26172647D01*
X24808018Y-26039983D01*
X24759355Y-25879564D01*
X24742925Y-25712741D01*
X24759355Y-25545918D01*
X24808018Y-25385499D01*
X24887037Y-25237665D01*
X24887038Y-25237663D01*
X24993383Y-25108082D01*
X25122964Y-25001737D01*
X25210869Y-24954751D01*
X25270800Y-24922717D01*
X25431219Y-24874054D01*
X25556238Y-24861741D01*
X25639846Y-24861741D01*
X25764865Y-24874054D01*
X25764865Y-24874054D01*
G37*
G36*
X55870098Y-24168613D02*
G01*
X56030517Y-24217276D01*
X56163181Y-24288186D01*
X56178353Y-24296296D01*
X56307934Y-24402641D01*
X56414279Y-24532222D01*
X56414280Y-24532224D01*
X56493299Y-24680058D01*
X56541962Y-24840477D01*
X56558392Y-25007300D01*
X56541962Y-25174123D01*
X56493299Y-25334542D01*
X56451490Y-25412761D01*
X56414279Y-25482378D01*
X56307934Y-25611959D01*
X56178353Y-25718304D01*
X56178351Y-25718305D01*
X56030517Y-25797324D01*
X55870098Y-25845987D01*
X55745079Y-25858300D01*
X55661471Y-25858300D01*
X55536452Y-25845987D01*
X55376033Y-25797324D01*
X55228199Y-25718305D01*
X55228197Y-25718304D01*
X55098616Y-25611959D01*
X54992271Y-25482378D01*
X54955060Y-25412761D01*
X54913251Y-25334542D01*
X54864588Y-25174123D01*
X54848158Y-25007300D01*
X54864588Y-24840477D01*
X54913251Y-24680058D01*
X54992270Y-24532224D01*
X54992271Y-24532222D01*
X55098616Y-24402641D01*
X55228197Y-24296296D01*
X55243369Y-24288186D01*
X55376033Y-24217276D01*
X55536452Y-24168613D01*
X55661471Y-24156300D01*
X55745079Y-24156300D01*
X55870098Y-24168613D01*
X55870098Y-24168613D01*
G37*
G36*
X47840910Y-23949239D02*
G01*
X48001329Y-23997902D01*
X48077630Y-24038686D01*
X48149165Y-24076922D01*
X48278746Y-24183267D01*
X48385091Y-24312848D01*
X48385092Y-24312850D01*
X48464111Y-24460684D01*
X48512774Y-24621103D01*
X48529204Y-24787926D01*
X48512774Y-24954749D01*
X48464111Y-25115168D01*
X48398636Y-25237663D01*
X48385091Y-25263004D01*
X48278746Y-25392585D01*
X48149165Y-25498930D01*
X48149163Y-25498931D01*
X48001329Y-25577950D01*
X47840910Y-25626613D01*
X47715891Y-25638926D01*
X47632283Y-25638926D01*
X47507264Y-25626613D01*
X47346845Y-25577950D01*
X47199011Y-25498931D01*
X47199009Y-25498930D01*
X47069428Y-25392585D01*
X46963083Y-25263004D01*
X46949538Y-25237663D01*
X46884063Y-25115168D01*
X46835400Y-24954749D01*
X46818970Y-24787926D01*
X46835400Y-24621103D01*
X46884063Y-24460684D01*
X46963082Y-24312850D01*
X46963083Y-24312848D01*
X47069428Y-24183267D01*
X47199009Y-24076922D01*
X47270544Y-24038686D01*
X47346845Y-23997902D01*
X47507264Y-23949239D01*
X47632283Y-23936926D01*
X47715891Y-23936926D01*
X47840910Y-23949239D01*
X47840910Y-23949239D01*
G37*
G36*
X41019393Y-21609304D02*
G01*
X41228340Y-21695853D01*
X41256103Y-21707353D01*
X41469135Y-21849696D01*
X41650304Y-22030865D01*
X41792647Y-22243897D01*
X41792648Y-22243899D01*
X41890696Y-22480607D01*
X41940680Y-22731893D01*
X41940680Y-22988107D01*
X41890696Y-23239393D01*
X41826866Y-23393491D01*
X41792647Y-23476103D01*
X41650304Y-23689135D01*
X41469135Y-23870304D01*
X41256103Y-24012647D01*
X41256102Y-24012648D01*
X41256101Y-24012648D01*
X41019393Y-24110696D01*
X40768107Y-24160680D01*
X40511893Y-24160680D01*
X40260607Y-24110696D01*
X40023899Y-24012648D01*
X40023898Y-24012648D01*
X40023897Y-24012647D01*
X39810865Y-23870304D01*
X39629696Y-23689135D01*
X39487353Y-23476103D01*
X39453134Y-23393491D01*
X39389304Y-23239393D01*
X39339320Y-22988107D01*
X39339320Y-22731893D01*
X39389304Y-22480607D01*
X39487352Y-22243899D01*
X39487353Y-22243897D01*
X39629696Y-22030865D01*
X39810865Y-21849696D01*
X40023897Y-21707353D01*
X40051660Y-21695853D01*
X40260607Y-21609304D01*
X40511893Y-21559320D01*
X40768107Y-21559320D01*
X41019393Y-21609304D01*
X41019393Y-21609304D01*
G37*
G36*
X30001000Y-24051000D02*
G01*
X28299000Y-24051000D01*
X28299000Y-22349000D01*
X30001000Y-22349000D01*
X30001000Y-24051000D01*
X30001000Y-24051000D01*
G37*
G36*
X36936823Y-22361313D02*
G01*
X37097242Y-22409976D01*
X37229381Y-22480606D01*
X37245078Y-22488996D01*
X37374659Y-22595341D01*
X37481004Y-22724922D01*
X37481005Y-22724924D01*
X37560024Y-22872758D01*
X37608687Y-23033177D01*
X37625117Y-23200000D01*
X37608687Y-23366823D01*
X37560024Y-23527242D01*
X37489114Y-23659906D01*
X37481004Y-23675078D01*
X37374659Y-23804659D01*
X37245078Y-23911004D01*
X37245076Y-23911005D01*
X37097242Y-23990024D01*
X36936823Y-24038687D01*
X36811804Y-24051000D01*
X36728196Y-24051000D01*
X36603177Y-24038687D01*
X36442758Y-23990024D01*
X36294924Y-23911005D01*
X36294922Y-23911004D01*
X36165341Y-23804659D01*
X36058996Y-23675078D01*
X36050886Y-23659906D01*
X35979976Y-23527242D01*
X35931313Y-23366823D01*
X35914883Y-23200000D01*
X35931313Y-23033177D01*
X35979976Y-22872758D01*
X36058995Y-22724924D01*
X36058996Y-22724922D01*
X36165341Y-22595341D01*
X36294922Y-22488996D01*
X36310619Y-22480606D01*
X36442758Y-22409976D01*
X36603177Y-22361313D01*
X36728196Y-22349000D01*
X36811804Y-22349000D01*
X36936823Y-22361313D01*
X36936823Y-22361313D01*
G37*
G36*
X65454217Y-21393102D02*
G01*
X65658825Y-21477853D01*
X65681885Y-21487405D01*
X65886780Y-21624312D01*
X66061029Y-21798561D01*
X66146202Y-21926031D01*
X66197937Y-22003458D01*
X66292239Y-22231124D01*
X66340314Y-22472813D01*
X66340314Y-22719241D01*
X66292239Y-22960930D01*
X66229618Y-23112112D01*
X66197936Y-23188598D01*
X66061029Y-23393493D01*
X65886780Y-23567742D01*
X65681885Y-23704649D01*
X65681884Y-23704650D01*
X65681883Y-23704650D01*
X65454217Y-23798952D01*
X65212528Y-23847027D01*
X64966100Y-23847027D01*
X64724411Y-23798952D01*
X64496745Y-23704650D01*
X64496744Y-23704650D01*
X64496743Y-23704649D01*
X64291848Y-23567742D01*
X64117599Y-23393493D01*
X63980692Y-23188598D01*
X63949011Y-23112112D01*
X63886389Y-22960930D01*
X63838314Y-22719241D01*
X63838314Y-22472813D01*
X63886389Y-22231124D01*
X63980691Y-22003458D01*
X64032426Y-21926031D01*
X64117599Y-21798561D01*
X64291848Y-21624312D01*
X64496743Y-21487405D01*
X64519804Y-21477853D01*
X64724411Y-21393102D01*
X64966100Y-21345027D01*
X65212528Y-21345027D01*
X65454217Y-21393102D01*
X65454217Y-21393102D01*
G37*
G36*
X24448228Y-21631703D02*
G01*
X24603100Y-21695853D01*
X24742481Y-21788985D01*
X24861015Y-21907519D01*
X24954147Y-22046900D01*
X25018297Y-22201772D01*
X25051000Y-22366184D01*
X25051000Y-22533816D01*
X25018297Y-22698228D01*
X24954147Y-22853100D01*
X24861015Y-22992481D01*
X24742481Y-23111015D01*
X24603100Y-23204147D01*
X24448228Y-23268297D01*
X24283816Y-23301000D01*
X24116184Y-23301000D01*
X23951772Y-23268297D01*
X23796900Y-23204147D01*
X23657519Y-23111015D01*
X23538985Y-22992481D01*
X23445853Y-22853100D01*
X23381703Y-22698228D01*
X23349000Y-22533816D01*
X23349000Y-22366184D01*
X23381703Y-22201772D01*
X23445853Y-22046900D01*
X23538985Y-21907519D01*
X23657519Y-21788985D01*
X23796900Y-21695853D01*
X23951772Y-21631703D01*
X24116184Y-21599000D01*
X24283816Y-21599000D01*
X24448228Y-21631703D01*
X24448228Y-21631703D01*
G37*
G36*
X48709641Y-21562420D02*
G01*
X48825211Y-21597478D01*
X48864196Y-21609304D01*
X48870060Y-21611083D01*
X48992443Y-21676498D01*
X49017896Y-21690103D01*
X49147477Y-21796448D01*
X49253822Y-21926029D01*
X49253823Y-21926031D01*
X49332842Y-22073865D01*
X49381505Y-22234284D01*
X49397935Y-22401107D01*
X49381505Y-22567930D01*
X49332842Y-22728349D01*
X49330947Y-22731894D01*
X49253822Y-22876185D01*
X49147477Y-23005766D01*
X49017896Y-23112111D01*
X49017894Y-23112112D01*
X48870060Y-23191131D01*
X48709641Y-23239794D01*
X48584622Y-23252107D01*
X48501014Y-23252107D01*
X48375995Y-23239794D01*
X48215576Y-23191131D01*
X48067742Y-23112112D01*
X48067740Y-23112111D01*
X47938159Y-23005766D01*
X47831814Y-22876185D01*
X47754689Y-22731894D01*
X47752794Y-22728349D01*
X47704131Y-22567930D01*
X47687701Y-22401107D01*
X47704131Y-22234284D01*
X47752794Y-22073865D01*
X47831813Y-21926031D01*
X47831814Y-21926029D01*
X47938159Y-21796448D01*
X48067740Y-21690103D01*
X48093193Y-21676498D01*
X48215576Y-21611083D01*
X48221441Y-21609304D01*
X48260425Y-21597478D01*
X48375995Y-21562420D01*
X48501014Y-21550107D01*
X48584622Y-21550107D01*
X48709641Y-21562420D01*
X48709641Y-21562420D01*
G37*
G36*
X55928596Y-20743372D02*
G01*
X56083468Y-20807522D01*
X56222849Y-20900654D01*
X56341383Y-21019188D01*
X56434515Y-21158569D01*
X56498665Y-21313441D01*
X56531368Y-21477853D01*
X56531368Y-21645485D01*
X56498665Y-21809897D01*
X56434515Y-21964769D01*
X56341383Y-22104150D01*
X56222849Y-22222684D01*
X56083468Y-22315816D01*
X55928596Y-22379966D01*
X55764184Y-22412669D01*
X55596552Y-22412669D01*
X55432140Y-22379966D01*
X55277268Y-22315816D01*
X55137887Y-22222684D01*
X55019353Y-22104150D01*
X54926221Y-21964769D01*
X54862071Y-21809897D01*
X54829368Y-21645485D01*
X54829368Y-21477853D01*
X54862071Y-21313441D01*
X54926221Y-21158569D01*
X55019353Y-21019188D01*
X55137887Y-20900654D01*
X55277268Y-20807522D01*
X55432140Y-20743372D01*
X55596552Y-20710669D01*
X55764184Y-20710669D01*
X55928596Y-20743372D01*
X55928596Y-20743372D01*
G37*
G36*
X60775325Y-20047787D02*
G01*
X60935744Y-20096450D01*
X61068408Y-20167360D01*
X61083580Y-20175470D01*
X61213161Y-20281815D01*
X61319506Y-20411396D01*
X61319507Y-20411398D01*
X61398526Y-20559232D01*
X61447189Y-20719651D01*
X61463619Y-20886474D01*
X61447189Y-21053297D01*
X61398526Y-21213716D01*
X61345222Y-21313440D01*
X61319506Y-21361552D01*
X61213161Y-21491133D01*
X61083580Y-21597478D01*
X61068408Y-21605588D01*
X60935744Y-21676498D01*
X60775325Y-21725161D01*
X60650306Y-21737474D01*
X60566698Y-21737474D01*
X60441679Y-21725161D01*
X60281260Y-21676498D01*
X60148596Y-21605588D01*
X60133424Y-21597478D01*
X60003843Y-21491133D01*
X59897498Y-21361552D01*
X59871782Y-21313440D01*
X59818478Y-21213716D01*
X59769815Y-21053297D01*
X59753385Y-20886474D01*
X59769815Y-20719651D01*
X59818478Y-20559232D01*
X59897497Y-20411398D01*
X59897498Y-20411396D01*
X60003843Y-20281815D01*
X60133424Y-20175470D01*
X60148596Y-20167360D01*
X60281260Y-20096450D01*
X60441679Y-20047787D01*
X60566698Y-20035474D01*
X60650306Y-20035474D01*
X60775325Y-20047787D01*
X60775325Y-20047787D01*
G37*
G36*
X27429393Y-18449304D02*
G01*
X27666101Y-18547352D01*
X27666103Y-18547353D01*
X27879135Y-18689696D01*
X28060304Y-18870865D01*
X28168821Y-19033273D01*
X28202648Y-19083899D01*
X28300696Y-19320607D01*
X28350680Y-19571893D01*
X28350680Y-19828107D01*
X28300696Y-20079393D01*
X28228094Y-20254668D01*
X28202647Y-20316103D01*
X28060304Y-20529135D01*
X27879135Y-20710304D01*
X27666103Y-20852647D01*
X27666102Y-20852648D01*
X27666101Y-20852648D01*
X27429393Y-20950696D01*
X27178107Y-21000680D01*
X26921893Y-21000680D01*
X26670607Y-20950696D01*
X26433899Y-20852648D01*
X26433898Y-20852648D01*
X26433897Y-20852647D01*
X26220865Y-20710304D01*
X26039696Y-20529135D01*
X25897353Y-20316103D01*
X25871906Y-20254668D01*
X25799304Y-20079393D01*
X25749320Y-19828107D01*
X25749320Y-19571893D01*
X25799304Y-19320607D01*
X25897352Y-19083899D01*
X25931179Y-19033273D01*
X26039696Y-18870865D01*
X26220865Y-18689696D01*
X26433897Y-18547353D01*
X26433899Y-18547352D01*
X26670607Y-18449304D01*
X26921893Y-18399320D01*
X27178107Y-18399320D01*
X27429393Y-18449304D01*
X27429393Y-18449304D01*
G37*
G36*
X51230133Y-19033271D02*
G01*
X51385005Y-19097421D01*
X51524386Y-19190553D01*
X51642920Y-19309087D01*
X51736052Y-19448468D01*
X51800202Y-19603340D01*
X51832905Y-19767752D01*
X51832905Y-19935384D01*
X51800202Y-20099796D01*
X51736052Y-20254668D01*
X51642920Y-20394049D01*
X51524386Y-20512583D01*
X51385005Y-20605715D01*
X51230133Y-20669865D01*
X51065721Y-20702568D01*
X50898089Y-20702568D01*
X50733677Y-20669865D01*
X50578805Y-20605715D01*
X50439424Y-20512583D01*
X50320890Y-20394049D01*
X50227758Y-20254668D01*
X50163608Y-20099796D01*
X50130905Y-19935384D01*
X50130905Y-19767752D01*
X50163608Y-19603340D01*
X50227758Y-19448468D01*
X50320890Y-19309087D01*
X50439424Y-19190553D01*
X50578805Y-19097421D01*
X50733677Y-19033271D01*
X50898089Y-19000568D01*
X51065721Y-19000568D01*
X51230133Y-19033271D01*
X51230133Y-19033271D01*
G37*
G36*
X58162325Y-17458042D02*
G01*
X58399033Y-17556090D01*
X58399035Y-17556091D01*
X58612067Y-17698434D01*
X58793236Y-17879603D01*
X58935579Y-18092635D01*
X58935580Y-18092637D01*
X59033628Y-18329345D01*
X59083612Y-18580631D01*
X59083612Y-18836845D01*
X59033628Y-19088131D01*
X58991203Y-19190553D01*
X58935579Y-19324841D01*
X58793236Y-19537873D01*
X58612067Y-19719042D01*
X58399035Y-19861385D01*
X58399034Y-19861386D01*
X58399033Y-19861386D01*
X58162325Y-19959434D01*
X57911039Y-20009418D01*
X57654825Y-20009418D01*
X57403539Y-19959434D01*
X57166831Y-19861386D01*
X57166830Y-19861386D01*
X57166829Y-19861385D01*
X56953797Y-19719042D01*
X56772628Y-19537873D01*
X56630285Y-19324841D01*
X56574661Y-19190553D01*
X56532236Y-19088131D01*
X56482252Y-18836845D01*
X56482252Y-18580631D01*
X56532236Y-18329345D01*
X56630284Y-18092637D01*
X56630285Y-18092635D01*
X56772628Y-17879603D01*
X56953797Y-17698434D01*
X57166829Y-17556091D01*
X57166831Y-17556090D01*
X57403539Y-17458042D01*
X57654825Y-17408058D01*
X57911039Y-17408058D01*
X58162325Y-17458042D01*
X58162325Y-17458042D01*
G37*
G36*
X34107903Y-17184275D02*
G01*
X34176477Y-17212679D01*
X34335571Y-17278578D01*
X34540466Y-17415485D01*
X34714715Y-17589734D01*
X34787346Y-17698434D01*
X34851623Y-17794631D01*
X34945925Y-18022297D01*
X34994000Y-18263986D01*
X34994000Y-18510414D01*
X34945925Y-18752103D01*
X34879777Y-18911800D01*
X34851622Y-18979771D01*
X34714715Y-19184666D01*
X34540466Y-19358915D01*
X34335571Y-19495822D01*
X34335570Y-19495823D01*
X34335569Y-19495823D01*
X34107903Y-19590125D01*
X33866214Y-19638200D01*
X33619786Y-19638200D01*
X33378097Y-19590125D01*
X33150431Y-19495823D01*
X33150430Y-19495823D01*
X33150429Y-19495822D01*
X32945534Y-19358915D01*
X32771285Y-19184666D01*
X32634378Y-18979771D01*
X32606224Y-18911800D01*
X32540075Y-18752103D01*
X32492000Y-18510414D01*
X32492000Y-18263986D01*
X32540075Y-18022297D01*
X32634377Y-17794631D01*
X32698654Y-17698434D01*
X32771285Y-17589734D01*
X32945534Y-17415485D01*
X33150429Y-17278578D01*
X33309524Y-17212679D01*
X33378097Y-17184275D01*
X33619786Y-17136200D01*
X33866214Y-17136200D01*
X34107903Y-17184275D01*
X34107903Y-17184275D01*
G37*
G36*
X32073000Y-19638200D02*
G01*
X29571000Y-19638200D01*
X29571000Y-17136200D01*
X32073000Y-17136200D01*
X32073000Y-19638200D01*
X32073000Y-19638200D01*
G37*
G36*
X48210507Y-17242503D02*
G01*
X48365379Y-17306653D01*
X48504760Y-17399785D01*
X48623294Y-17518319D01*
X48716426Y-17657700D01*
X48780576Y-17812572D01*
X48813279Y-17976984D01*
X48813279Y-18144616D01*
X48780576Y-18309028D01*
X48716426Y-18463900D01*
X48623294Y-18603281D01*
X48504760Y-18721815D01*
X48365379Y-18814947D01*
X48210507Y-18879097D01*
X48046095Y-18911800D01*
X47878463Y-18911800D01*
X47714051Y-18879097D01*
X47559179Y-18814947D01*
X47419798Y-18721815D01*
X47301264Y-18603281D01*
X47208132Y-18463900D01*
X47143982Y-18309028D01*
X47111279Y-18144616D01*
X47111279Y-17976984D01*
X47143982Y-17812572D01*
X47208132Y-17657700D01*
X47301264Y-17518319D01*
X47419798Y-17399785D01*
X47559179Y-17306653D01*
X47714051Y-17242503D01*
X47878463Y-17209800D01*
X48046095Y-17209800D01*
X48210507Y-17242503D01*
X48210507Y-17242503D01*
G37*
G36*
X17525331Y-15268211D02*
G01*
X17853092Y-15403974D01*
X18148070Y-15601072D01*
X18398928Y-15851930D01*
X18596026Y-16146908D01*
X18731789Y-16474669D01*
X18801000Y-16822616D01*
X18801000Y-17177384D01*
X18731789Y-17525331D01*
X18596026Y-17853092D01*
X18398928Y-18148070D01*
X18148070Y-18398928D01*
X17853092Y-18596026D01*
X17525331Y-18731789D01*
X17177384Y-18801000D01*
X16822616Y-18801000D01*
X16474669Y-18731789D01*
X16146908Y-18596026D01*
X15851930Y-18398928D01*
X15601072Y-18148070D01*
X15403974Y-17853092D01*
X15268211Y-17525331D01*
X15199000Y-17177384D01*
X15199000Y-16822616D01*
X15268211Y-16474669D01*
X15403974Y-16146908D01*
X15601072Y-15851930D01*
X15851930Y-15601072D01*
X16146908Y-15403974D01*
X16474669Y-15268211D01*
X16822616Y-15199000D01*
X17177384Y-15199000D01*
X17525331Y-15268211D01*
X17525331Y-15268211D01*
G37*
G36*
X73525331Y-15268211D02*
G01*
X73853092Y-15403974D01*
X74148070Y-15601072D01*
X74398928Y-15851930D01*
X74596026Y-16146908D01*
X74731789Y-16474669D01*
X74801000Y-16822616D01*
X74801000Y-17177384D01*
X74731789Y-17525331D01*
X74596026Y-17853092D01*
X74398928Y-18148070D01*
X74148070Y-18398928D01*
X73853092Y-18596026D01*
X73525331Y-18731789D01*
X73177384Y-18801000D01*
X72822616Y-18801000D01*
X72474669Y-18731789D01*
X72146908Y-18596026D01*
X71851930Y-18398928D01*
X71601072Y-18148070D01*
X71403974Y-17853092D01*
X71268211Y-17525331D01*
X71199000Y-17177384D01*
X71199000Y-16822616D01*
X71268211Y-16474669D01*
X71403974Y-16146908D01*
X71601072Y-15851930D01*
X71851930Y-15601072D01*
X72146908Y-15403974D01*
X72474669Y-15268211D01*
X72822616Y-15199000D01*
X73177384Y-15199000D01*
X73525331Y-15268211D01*
X73525331Y-15268211D01*
G37*
G36*
X40624867Y-15898914D02*
G01*
X40785286Y-15947577D01*
X40917950Y-16018487D01*
X40933122Y-16026597D01*
X41062703Y-16132942D01*
X41169048Y-16262523D01*
X41169049Y-16262525D01*
X41248068Y-16410359D01*
X41296731Y-16570778D01*
X41313161Y-16737601D01*
X41296731Y-16904424D01*
X41248068Y-17064843D01*
X41184230Y-17184275D01*
X41169048Y-17212679D01*
X41062703Y-17342260D01*
X40933122Y-17448605D01*
X40933120Y-17448606D01*
X40785286Y-17527625D01*
X40624867Y-17576288D01*
X40499848Y-17588601D01*
X40416240Y-17588601D01*
X40291221Y-17576288D01*
X40130802Y-17527625D01*
X39982968Y-17448606D01*
X39982966Y-17448605D01*
X39853385Y-17342260D01*
X39747040Y-17212679D01*
X39731858Y-17184275D01*
X39668020Y-17064843D01*
X39619357Y-16904424D01*
X39602927Y-16737601D01*
X39619357Y-16570778D01*
X39668020Y-16410359D01*
X39747039Y-16262525D01*
X39747040Y-16262523D01*
X39853385Y-16132942D01*
X39982966Y-16026597D01*
X39998138Y-16018487D01*
X40130802Y-15947577D01*
X40291221Y-15898914D01*
X40416240Y-15886601D01*
X40499848Y-15886601D01*
X40624867Y-15898914D01*
X40624867Y-15898914D01*
G37*
M02*
